G75*
%MOIN*%
%OFA0B0*%
%FSLAX25Y25*%
%IPPOS*%
%LPD*%
%AMOC8*
5,1,8,0,0,1.08239X$1,22.5*
%
%ADD10C,0.00600*%
%ADD11C,0.00700*%
%ADD12C,0.01100*%
%ADD13C,0.01600*%
%ADD14C,0.01000*%
%ADD15C,0.01400*%
%ADD16C,0.00500*%
%ADD17R,0.00500X0.00100*%
%ADD18R,0.00800X0.00100*%
%ADD19R,0.00700X0.00100*%
%ADD20R,0.02500X0.00100*%
%ADD21R,0.02800X0.00100*%
%ADD22R,0.03200X0.00100*%
%ADD23R,0.04100X0.00100*%
%ADD24R,0.00400X0.00100*%
%ADD25R,0.04800X0.00100*%
%ADD26R,0.00100X0.00100*%
%ADD27R,0.07000X0.00100*%
%ADD28R,0.07400X0.00100*%
%ADD29R,0.07500X0.00100*%
%ADD30R,0.00600X0.00100*%
%ADD31R,0.07800X0.00100*%
%ADD32R,0.01000X0.00100*%
%ADD33R,0.09300X0.00100*%
%ADD34R,0.09700X0.00100*%
%ADD35R,0.10100X0.00100*%
%ADD36R,0.10600X0.00100*%
%ADD37R,0.00200X0.00100*%
%ADD38R,0.10900X0.00100*%
%ADD39R,0.12100X0.00100*%
%ADD40R,0.12400X0.00100*%
%ADD41R,0.12700X0.00100*%
%ADD42R,0.13000X0.00100*%
%ADD43R,0.13200X0.00100*%
%ADD44R,0.13600X0.00100*%
%ADD45R,0.13900X0.00100*%
%ADD46R,0.00300X0.00100*%
%ADD47R,0.14100X0.00100*%
%ADD48R,0.01400X0.00100*%
%ADD49R,0.14200X0.00100*%
%ADD50R,0.17000X0.00100*%
%ADD51R,0.17100X0.00100*%
%ADD52R,0.16900X0.00100*%
%ADD53R,0.17300X0.00100*%
%ADD54R,0.17200X0.00100*%
%ADD55R,0.17400X0.00100*%
%ADD56R,0.17500X0.00100*%
%ADD57R,0.17600X0.00100*%
%ADD58R,0.17800X0.00100*%
%ADD59R,0.18000X0.00100*%
%ADD60R,0.18400X0.00100*%
%ADD61R,0.19600X0.00100*%
%ADD62R,0.19500X0.00100*%
%ADD63R,0.19400X0.00100*%
%ADD64R,0.19300X0.00100*%
%ADD65R,0.19700X0.00100*%
%ADD66R,0.19800X0.00100*%
%ADD67R,0.19900X0.00100*%
%ADD68R,0.20000X0.00100*%
%ADD69R,0.20100X0.00100*%
%ADD70R,0.20200X0.00100*%
%ADD71R,0.20300X0.00100*%
%ADD72R,0.20400X0.00100*%
%ADD73R,0.20500X0.00100*%
%ADD74R,0.20600X0.00100*%
%ADD75R,0.20700X0.00100*%
%ADD76R,0.20800X0.00100*%
%ADD77R,0.20900X0.00100*%
%ADD78R,0.21000X0.00100*%
%ADD79R,0.21100X0.00100*%
%ADD80R,0.21200X0.00100*%
%ADD81R,0.21300X0.00100*%
%ADD82R,0.21600X0.00100*%
%ADD83R,0.21800X0.00100*%
%ADD84R,0.22400X0.00100*%
%ADD85R,0.22500X0.00100*%
%ADD86R,0.22700X0.00100*%
%ADD87R,0.22800X0.00100*%
%ADD88R,0.22900X0.00100*%
%ADD89R,0.23000X0.00100*%
%ADD90R,0.23100X0.00100*%
%ADD91R,0.23200X0.00100*%
%ADD92R,0.22600X0.00100*%
%ADD93R,0.22300X0.00100*%
%ADD94R,0.22100X0.00100*%
%ADD95R,0.22200X0.00100*%
%ADD96R,0.23300X0.00100*%
%ADD97R,0.23600X0.00100*%
%ADD98R,0.23800X0.00100*%
%ADD99R,0.24000X0.00100*%
%ADD100R,0.24100X0.00100*%
%ADD101R,0.24200X0.00100*%
%ADD102R,0.24400X0.00100*%
%ADD103R,0.24500X0.00100*%
%ADD104R,0.24600X0.00100*%
%ADD105R,0.24700X0.00100*%
%ADD106R,0.24800X0.00100*%
%ADD107R,0.25500X0.00100*%
%ADD108R,0.25600X0.00100*%
%ADD109R,0.25900X0.00100*%
%ADD110R,0.26100X0.00100*%
%ADD111R,0.26200X0.00100*%
%ADD112R,0.26300X0.00100*%
%ADD113R,0.26400X0.00100*%
%ADD114R,0.26500X0.00100*%
%ADD115R,0.26600X0.00100*%
%ADD116R,0.25400X0.00100*%
%ADD117R,0.01100X0.00100*%
%ADD118R,0.25000X0.00100*%
%ADD119R,0.24300X0.00100*%
%ADD120R,0.23900X0.00100*%
%ADD121R,0.23700X0.00100*%
%ADD122R,0.23500X0.00100*%
%ADD123R,0.23400X0.00100*%
%ADD124R,0.21900X0.00100*%
%ADD125R,0.21700X0.00100*%
%ADD126R,0.21500X0.00100*%
%ADD127R,0.01600X0.00100*%
%ADD128R,0.01200X0.00100*%
%ADD129R,0.00900X0.00100*%
%ADD130R,0.16600X0.00100*%
%ADD131R,0.02300X0.00100*%
%ADD132R,0.01900X0.00100*%
%ADD133R,0.16700X0.00100*%
%ADD134R,0.01700X0.00100*%
%ADD135R,0.01500X0.00100*%
%ADD136R,0.14700X0.00100*%
%ADD137R,0.01300X0.00100*%
%ADD138R,0.13500X0.00100*%
%ADD139R,0.13300X0.00100*%
%ADD140R,0.13100X0.00100*%
%ADD141R,0.13400X0.00100*%
%ADD142R,0.02200X0.00100*%
%ADD143R,0.14000X0.00100*%
%ADD144R,0.14400X0.00100*%
%ADD145R,0.17900X0.00100*%
%ADD146R,0.17700X0.00100*%
%ADD147R,0.15700X0.00100*%
%ADD148R,0.15800X0.00100*%
%ADD149R,0.16000X0.00100*%
%ADD150R,0.16200X0.00100*%
%ADD151R,0.16500X0.00100*%
%ADD152R,0.02600X0.00100*%
%ADD153R,0.02400X0.00100*%
%ADD154R,0.02000X0.00100*%
%ADD155R,0.13800X0.00100*%
%ADD156R,0.13700X0.00100*%
%ADD157R,0.14600X0.00100*%
%ADD158R,0.14800X0.00100*%
%ADD159R,0.15000X0.00100*%
%ADD160R,0.15100X0.00100*%
%ADD161R,0.15400X0.00100*%
%ADD162R,0.15600X0.00100*%
%ADD163R,0.18300X0.00100*%
%ADD164R,0.18600X0.00100*%
%ADD165R,0.18900X0.00100*%
%ADD166R,0.14300X0.00100*%
%ADD167R,0.05000X0.00100*%
%ADD168R,0.04600X0.00100*%
%ADD169R,0.04200X0.00100*%
%ADD170R,0.04000X0.00100*%
%ADD171R,0.12800X0.00100*%
%ADD172R,0.03800X0.00100*%
%ADD173R,0.03700X0.00100*%
%ADD174R,0.12600X0.00100*%
%ADD175R,0.12500X0.00100*%
%ADD176R,0.03600X0.00100*%
%ADD177R,0.03900X0.00100*%
%ADD178R,0.12300X0.00100*%
%ADD179R,0.03500X0.00100*%
%ADD180R,0.12200X0.00100*%
%ADD181R,0.03300X0.00100*%
%ADD182R,0.03100X0.00100*%
%ADD183R,0.02900X0.00100*%
%ADD184R,0.11900X0.00100*%
%ADD185R,0.02700X0.00100*%
%ADD186R,0.11700X0.00100*%
%ADD187R,0.11600X0.00100*%
%ADD188R,0.08000X0.00100*%
%ADD189R,0.08100X0.00100*%
%ADD190R,0.06800X0.00100*%
%ADD191R,0.04900X0.00100*%
%ADD192R,0.06700X0.00100*%
%ADD193R,0.04700X0.00100*%
%ADD194R,0.03000X0.00100*%
%ADD195R,0.08200X0.00100*%
%ADD196R,0.02100X0.00100*%
%ADD197R,0.01800X0.00100*%
%ADD198R,0.06900X0.00100*%
%ADD199R,0.07300X0.00100*%
%ADD200R,0.07200X0.00100*%
%ADD201R,0.05400X0.00100*%
%ADD202R,0.05300X0.00100*%
%ADD203R,0.07100X0.00100*%
%ADD204R,0.05100X0.00100*%
%ADD205R,0.04400X0.00100*%
%ADD206R,0.04300X0.00100*%
%ADD207R,0.02000X0.08000*%
%ADD208C,0.00800*%
%ADD209C,0.00300*%
%ADD210R,0.03400X0.02400*%
D10*
X0042221Y0004100D02*
X0042221Y0007503D01*
X0042789Y0005801D02*
X0044490Y0004100D01*
X0045905Y0004100D02*
X0048173Y0004100D01*
X0047039Y0005801D02*
X0045905Y0005801D01*
X0045905Y0004100D02*
X0045905Y0007503D01*
X0048173Y0007503D01*
X0049588Y0007503D02*
X0049588Y0006936D01*
X0050722Y0005801D01*
X0050722Y0004100D01*
X0050722Y0005801D02*
X0051856Y0006936D01*
X0051856Y0007503D01*
X0044490Y0007503D02*
X0042221Y0005234D01*
X0037421Y0021700D02*
X0037424Y0021945D01*
X0037433Y0022191D01*
X0037448Y0022436D01*
X0037469Y0022680D01*
X0037496Y0022924D01*
X0037529Y0023167D01*
X0037568Y0023410D01*
X0037613Y0023651D01*
X0037664Y0023891D01*
X0037721Y0024130D01*
X0037783Y0024367D01*
X0037852Y0024603D01*
X0037926Y0024837D01*
X0038006Y0025069D01*
X0038091Y0025299D01*
X0038182Y0025527D01*
X0038279Y0025752D01*
X0038381Y0025976D01*
X0038489Y0026196D01*
X0038602Y0026414D01*
X0038720Y0026629D01*
X0038844Y0026841D01*
X0038972Y0027050D01*
X0039106Y0027256D01*
X0039245Y0027458D01*
X0039389Y0027657D01*
X0039538Y0027852D01*
X0039691Y0028044D01*
X0039849Y0028232D01*
X0040011Y0028416D01*
X0040179Y0028595D01*
X0040350Y0028771D01*
X0040526Y0028942D01*
X0040705Y0029110D01*
X0040889Y0029272D01*
X0041077Y0029430D01*
X0041269Y0029583D01*
X0041464Y0029732D01*
X0041663Y0029876D01*
X0041865Y0030015D01*
X0042071Y0030149D01*
X0042280Y0030277D01*
X0042492Y0030401D01*
X0042707Y0030519D01*
X0042925Y0030632D01*
X0043145Y0030740D01*
X0043369Y0030842D01*
X0043594Y0030939D01*
X0043822Y0031030D01*
X0044052Y0031115D01*
X0044284Y0031195D01*
X0044518Y0031269D01*
X0044754Y0031338D01*
X0044991Y0031400D01*
X0045230Y0031457D01*
X0045470Y0031508D01*
X0045711Y0031553D01*
X0045954Y0031592D01*
X0046197Y0031625D01*
X0046441Y0031652D01*
X0046685Y0031673D01*
X0046930Y0031688D01*
X0047176Y0031697D01*
X0047421Y0031700D01*
X0047666Y0031697D01*
X0047912Y0031688D01*
X0048157Y0031673D01*
X0048401Y0031652D01*
X0048645Y0031625D01*
X0048888Y0031592D01*
X0049131Y0031553D01*
X0049372Y0031508D01*
X0049612Y0031457D01*
X0049851Y0031400D01*
X0050088Y0031338D01*
X0050324Y0031269D01*
X0050558Y0031195D01*
X0050790Y0031115D01*
X0051020Y0031030D01*
X0051248Y0030939D01*
X0051473Y0030842D01*
X0051697Y0030740D01*
X0051917Y0030632D01*
X0052135Y0030519D01*
X0052350Y0030401D01*
X0052562Y0030277D01*
X0052771Y0030149D01*
X0052977Y0030015D01*
X0053179Y0029876D01*
X0053378Y0029732D01*
X0053573Y0029583D01*
X0053765Y0029430D01*
X0053953Y0029272D01*
X0054137Y0029110D01*
X0054316Y0028942D01*
X0054492Y0028771D01*
X0054663Y0028595D01*
X0054831Y0028416D01*
X0054993Y0028232D01*
X0055151Y0028044D01*
X0055304Y0027852D01*
X0055453Y0027657D01*
X0055597Y0027458D01*
X0055736Y0027256D01*
X0055870Y0027050D01*
X0055998Y0026841D01*
X0056122Y0026629D01*
X0056240Y0026414D01*
X0056353Y0026196D01*
X0056461Y0025976D01*
X0056563Y0025752D01*
X0056660Y0025527D01*
X0056751Y0025299D01*
X0056836Y0025069D01*
X0056916Y0024837D01*
X0056990Y0024603D01*
X0057059Y0024367D01*
X0057121Y0024130D01*
X0057178Y0023891D01*
X0057229Y0023651D01*
X0057274Y0023410D01*
X0057313Y0023167D01*
X0057346Y0022924D01*
X0057373Y0022680D01*
X0057394Y0022436D01*
X0057409Y0022191D01*
X0057418Y0021945D01*
X0057421Y0021700D01*
X0057418Y0021455D01*
X0057409Y0021209D01*
X0057394Y0020964D01*
X0057373Y0020720D01*
X0057346Y0020476D01*
X0057313Y0020233D01*
X0057274Y0019990D01*
X0057229Y0019749D01*
X0057178Y0019509D01*
X0057121Y0019270D01*
X0057059Y0019033D01*
X0056990Y0018797D01*
X0056916Y0018563D01*
X0056836Y0018331D01*
X0056751Y0018101D01*
X0056660Y0017873D01*
X0056563Y0017648D01*
X0056461Y0017424D01*
X0056353Y0017204D01*
X0056240Y0016986D01*
X0056122Y0016771D01*
X0055998Y0016559D01*
X0055870Y0016350D01*
X0055736Y0016144D01*
X0055597Y0015942D01*
X0055453Y0015743D01*
X0055304Y0015548D01*
X0055151Y0015356D01*
X0054993Y0015168D01*
X0054831Y0014984D01*
X0054663Y0014805D01*
X0054492Y0014629D01*
X0054316Y0014458D01*
X0054137Y0014290D01*
X0053953Y0014128D01*
X0053765Y0013970D01*
X0053573Y0013817D01*
X0053378Y0013668D01*
X0053179Y0013524D01*
X0052977Y0013385D01*
X0052771Y0013251D01*
X0052562Y0013123D01*
X0052350Y0012999D01*
X0052135Y0012881D01*
X0051917Y0012768D01*
X0051697Y0012660D01*
X0051473Y0012558D01*
X0051248Y0012461D01*
X0051020Y0012370D01*
X0050790Y0012285D01*
X0050558Y0012205D01*
X0050324Y0012131D01*
X0050088Y0012062D01*
X0049851Y0012000D01*
X0049612Y0011943D01*
X0049372Y0011892D01*
X0049131Y0011847D01*
X0048888Y0011808D01*
X0048645Y0011775D01*
X0048401Y0011748D01*
X0048157Y0011727D01*
X0047912Y0011712D01*
X0047666Y0011703D01*
X0047421Y0011700D01*
X0047176Y0011703D01*
X0046930Y0011712D01*
X0046685Y0011727D01*
X0046441Y0011748D01*
X0046197Y0011775D01*
X0045954Y0011808D01*
X0045711Y0011847D01*
X0045470Y0011892D01*
X0045230Y0011943D01*
X0044991Y0012000D01*
X0044754Y0012062D01*
X0044518Y0012131D01*
X0044284Y0012205D01*
X0044052Y0012285D01*
X0043822Y0012370D01*
X0043594Y0012461D01*
X0043369Y0012558D01*
X0043145Y0012660D01*
X0042925Y0012768D01*
X0042707Y0012881D01*
X0042492Y0012999D01*
X0042280Y0013123D01*
X0042071Y0013251D01*
X0041865Y0013385D01*
X0041663Y0013524D01*
X0041464Y0013668D01*
X0041269Y0013817D01*
X0041077Y0013970D01*
X0040889Y0014128D01*
X0040705Y0014290D01*
X0040526Y0014458D01*
X0040350Y0014629D01*
X0040179Y0014805D01*
X0040011Y0014984D01*
X0039849Y0015168D01*
X0039691Y0015356D01*
X0039538Y0015548D01*
X0039389Y0015743D01*
X0039245Y0015942D01*
X0039106Y0016144D01*
X0038972Y0016350D01*
X0038844Y0016559D01*
X0038720Y0016771D01*
X0038602Y0016986D01*
X0038489Y0017204D01*
X0038381Y0017424D01*
X0038279Y0017648D01*
X0038182Y0017873D01*
X0038091Y0018101D01*
X0038006Y0018331D01*
X0037926Y0018563D01*
X0037852Y0018797D01*
X0037783Y0019033D01*
X0037721Y0019270D01*
X0037664Y0019509D01*
X0037613Y0019749D01*
X0037568Y0019990D01*
X0037529Y0020233D01*
X0037496Y0020476D01*
X0037469Y0020720D01*
X0037448Y0020964D01*
X0037433Y0021209D01*
X0037424Y0021455D01*
X0037421Y0021700D01*
X0098421Y0029700D02*
X0098421Y0036700D01*
X0098423Y0036760D01*
X0098428Y0036821D01*
X0098437Y0036880D01*
X0098450Y0036939D01*
X0098466Y0036998D01*
X0098486Y0037055D01*
X0098509Y0037110D01*
X0098536Y0037165D01*
X0098565Y0037217D01*
X0098598Y0037268D01*
X0098634Y0037317D01*
X0098672Y0037363D01*
X0098714Y0037407D01*
X0098758Y0037449D01*
X0098804Y0037487D01*
X0098853Y0037523D01*
X0098904Y0037556D01*
X0098956Y0037585D01*
X0099011Y0037612D01*
X0099066Y0037635D01*
X0099123Y0037655D01*
X0099182Y0037671D01*
X0099241Y0037684D01*
X0099300Y0037693D01*
X0099361Y0037698D01*
X0099421Y0037700D01*
X0100921Y0037700D01*
X0101421Y0037200D01*
X0120421Y0037200D01*
X0120921Y0037700D01*
X0122421Y0037700D01*
X0122481Y0037698D01*
X0122542Y0037693D01*
X0122601Y0037684D01*
X0122660Y0037671D01*
X0122719Y0037655D01*
X0122776Y0037635D01*
X0122831Y0037612D01*
X0122886Y0037585D01*
X0122938Y0037556D01*
X0122989Y0037523D01*
X0123038Y0037487D01*
X0123084Y0037449D01*
X0123128Y0037407D01*
X0123170Y0037363D01*
X0123208Y0037317D01*
X0123244Y0037268D01*
X0123277Y0037217D01*
X0123306Y0037165D01*
X0123333Y0037110D01*
X0123356Y0037055D01*
X0123376Y0036998D01*
X0123392Y0036939D01*
X0123405Y0036880D01*
X0123414Y0036821D01*
X0123419Y0036760D01*
X0123421Y0036700D01*
X0123421Y0029700D01*
X0123419Y0029640D01*
X0123414Y0029579D01*
X0123405Y0029520D01*
X0123392Y0029461D01*
X0123376Y0029402D01*
X0123356Y0029345D01*
X0123333Y0029290D01*
X0123306Y0029235D01*
X0123277Y0029183D01*
X0123244Y0029132D01*
X0123208Y0029083D01*
X0123170Y0029037D01*
X0123128Y0028993D01*
X0123084Y0028951D01*
X0123038Y0028913D01*
X0122989Y0028877D01*
X0122938Y0028844D01*
X0122886Y0028815D01*
X0122831Y0028788D01*
X0122776Y0028765D01*
X0122719Y0028745D01*
X0122660Y0028729D01*
X0122601Y0028716D01*
X0122542Y0028707D01*
X0122481Y0028702D01*
X0122421Y0028700D01*
X0120921Y0028700D01*
X0120421Y0029200D01*
X0101421Y0029200D01*
X0100921Y0028700D01*
X0099421Y0028700D01*
X0099361Y0028702D01*
X0099300Y0028707D01*
X0099241Y0028716D01*
X0099182Y0028729D01*
X0099123Y0028745D01*
X0099066Y0028765D01*
X0099011Y0028788D01*
X0098956Y0028815D01*
X0098904Y0028844D01*
X0098853Y0028877D01*
X0098804Y0028913D01*
X0098758Y0028951D01*
X0098714Y0028993D01*
X0098672Y0029037D01*
X0098634Y0029083D01*
X0098598Y0029132D01*
X0098565Y0029183D01*
X0098536Y0029235D01*
X0098509Y0029290D01*
X0098486Y0029345D01*
X0098466Y0029402D01*
X0098450Y0029461D01*
X0098437Y0029520D01*
X0098428Y0029579D01*
X0098423Y0029640D01*
X0098421Y0029700D01*
X0100253Y0031500D02*
X0099686Y0032067D01*
X0100253Y0031500D02*
X0101387Y0031500D01*
X0101955Y0032067D01*
X0101955Y0032634D01*
X0101387Y0033201D01*
X0100820Y0033201D01*
X0101387Y0033201D02*
X0101955Y0033769D01*
X0101955Y0034336D01*
X0101387Y0034903D01*
X0100253Y0034903D01*
X0099686Y0034336D01*
X0103369Y0034336D02*
X0103936Y0034903D01*
X0105071Y0034903D01*
X0105638Y0034336D01*
X0105638Y0033769D01*
X0105071Y0033201D01*
X0105638Y0032634D01*
X0105638Y0032067D01*
X0105071Y0031500D01*
X0103936Y0031500D01*
X0103369Y0032067D01*
X0104503Y0033201D02*
X0105071Y0033201D01*
X0107052Y0032634D02*
X0108754Y0033769D01*
X0107052Y0034903D02*
X0107052Y0031500D01*
X0107052Y0032634D02*
X0108754Y0031500D01*
X0132421Y0014200D02*
X0134921Y0016700D01*
X0139921Y0016700D01*
X0142421Y0014200D01*
X0144921Y0016700D01*
X0149921Y0016700D01*
X0152421Y0014200D01*
X0152421Y0009200D01*
X0149921Y0006700D01*
X0144921Y0006700D01*
X0142421Y0009200D01*
X0139921Y0006700D01*
X0134921Y0006700D01*
X0132421Y0009200D01*
X0132421Y0014200D01*
X0142421Y0014200D02*
X0142421Y0009200D01*
X0152421Y0009200D02*
X0154921Y0006700D01*
X0159921Y0006700D01*
X0162421Y0009200D01*
X0164921Y0006700D01*
X0169921Y0006700D01*
X0172421Y0009200D01*
X0174921Y0006700D01*
X0179921Y0006700D01*
X0182421Y0009200D01*
X0182421Y0014200D01*
X0179921Y0016700D01*
X0174921Y0016700D01*
X0172421Y0014200D01*
X0172421Y0009200D01*
X0172421Y0014200D02*
X0169921Y0016700D01*
X0164921Y0016700D01*
X0162421Y0014200D01*
X0162421Y0009200D01*
X0162421Y0014200D02*
X0159921Y0016700D01*
X0154921Y0016700D01*
X0152421Y0014200D01*
X0182421Y0014200D02*
X0184921Y0016700D01*
X0189921Y0016700D01*
X0192421Y0014200D01*
X0194921Y0016700D01*
X0199921Y0016700D01*
X0202421Y0014200D01*
X0204921Y0016700D01*
X0209921Y0016700D01*
X0212421Y0014200D01*
X0212421Y0009200D01*
X0209921Y0006700D01*
X0204921Y0006700D01*
X0202421Y0009200D01*
X0199921Y0006700D01*
X0194921Y0006700D01*
X0192421Y0009200D01*
X0189921Y0006700D01*
X0184921Y0006700D01*
X0182421Y0009200D01*
X0192421Y0009200D02*
X0192421Y0014200D01*
X0202421Y0014200D02*
X0202421Y0009200D01*
X0222421Y0009200D02*
X0224921Y0006700D01*
X0229921Y0006700D01*
X0232421Y0009200D01*
X0234921Y0006700D01*
X0239921Y0006700D01*
X0242421Y0009200D01*
X0242421Y0014200D01*
X0239921Y0016700D01*
X0234921Y0016700D01*
X0232421Y0014200D01*
X0232421Y0009200D01*
X0232421Y0014200D02*
X0229921Y0016700D01*
X0224921Y0016700D01*
X0222421Y0014200D01*
X0222421Y0009200D01*
X0242421Y0009200D02*
X0244921Y0006700D01*
X0249921Y0006700D01*
X0252421Y0009200D01*
X0254921Y0006700D01*
X0259921Y0006700D01*
X0262421Y0009200D01*
X0264921Y0006700D01*
X0269921Y0006700D01*
X0272421Y0009200D01*
X0274921Y0006700D01*
X0279921Y0006700D01*
X0282421Y0009200D01*
X0282421Y0014200D01*
X0279921Y0016700D01*
X0274921Y0016700D01*
X0272421Y0014200D01*
X0272421Y0009200D01*
X0272421Y0014200D02*
X0269921Y0016700D01*
X0264921Y0016700D01*
X0262421Y0014200D01*
X0262421Y0009200D01*
X0262421Y0014200D02*
X0259921Y0016700D01*
X0254921Y0016700D01*
X0252421Y0014200D01*
X0252421Y0009200D01*
X0252421Y0014200D02*
X0249921Y0016700D01*
X0244921Y0016700D01*
X0242421Y0014200D01*
X0289718Y0043500D02*
X0289718Y0045702D01*
X0290452Y0046436D01*
X0291920Y0046436D01*
X0292654Y0045702D01*
X0292654Y0043500D01*
X0294121Y0043500D02*
X0289718Y0043500D01*
X0290452Y0048104D02*
X0289718Y0048838D01*
X0289718Y0050306D01*
X0290452Y0051040D01*
X0291920Y0050306D02*
X0292654Y0051040D01*
X0293388Y0051040D01*
X0294121Y0050306D01*
X0294121Y0048838D01*
X0293388Y0048104D01*
X0291920Y0048838D02*
X0291920Y0050306D01*
X0291920Y0048838D02*
X0291186Y0048104D01*
X0290452Y0048104D01*
X0294121Y0052708D02*
X0289718Y0055644D01*
X0290452Y0057312D02*
X0289718Y0058046D01*
X0289718Y0059514D01*
X0290452Y0060248D01*
X0291186Y0060248D01*
X0294121Y0057312D01*
X0294121Y0060248D01*
X0294121Y0066520D02*
X0289718Y0066520D01*
X0291920Y0067254D02*
X0294121Y0069455D01*
X0293388Y0071124D02*
X0291920Y0071124D01*
X0291186Y0071858D01*
X0291186Y0073325D01*
X0291920Y0074059D01*
X0292654Y0074059D01*
X0292654Y0071124D01*
X0293388Y0071124D02*
X0294121Y0071858D01*
X0294121Y0073325D01*
X0293388Y0075727D02*
X0291186Y0075727D01*
X0293388Y0075727D02*
X0294121Y0076461D01*
X0294121Y0078663D01*
X0294855Y0078663D02*
X0295589Y0077929D01*
X0295589Y0077195D01*
X0294855Y0078663D02*
X0291186Y0078663D01*
X0291186Y0080331D02*
X0291186Y0082533D01*
X0291920Y0083267D01*
X0293388Y0083267D01*
X0294121Y0082533D01*
X0294121Y0080331D01*
X0289718Y0080331D01*
X0291920Y0084935D02*
X0293388Y0084935D01*
X0294121Y0085669D01*
X0294121Y0087137D01*
X0293388Y0087871D01*
X0291920Y0087871D01*
X0291186Y0087137D01*
X0291186Y0085669D01*
X0291920Y0084935D01*
X0293388Y0089539D02*
X0292654Y0090273D01*
X0292654Y0092475D01*
X0291920Y0092475D02*
X0294121Y0092475D01*
X0294121Y0090273D01*
X0293388Y0089539D01*
X0291186Y0090273D02*
X0291186Y0091741D01*
X0291920Y0092475D01*
X0292654Y0094143D02*
X0291186Y0095611D01*
X0291186Y0096345D01*
X0291920Y0097980D02*
X0291186Y0098714D01*
X0291186Y0100916D01*
X0289718Y0100916D02*
X0294121Y0100916D01*
X0294121Y0098714D01*
X0293388Y0097980D01*
X0291920Y0097980D01*
X0291186Y0094143D02*
X0294121Y0094143D01*
X0293388Y0107188D02*
X0294121Y0107922D01*
X0294121Y0109389D01*
X0293388Y0110123D01*
X0292654Y0110123D01*
X0291920Y0109389D01*
X0291920Y0107922D01*
X0291186Y0107188D01*
X0290452Y0107188D01*
X0289718Y0107922D01*
X0289718Y0109389D01*
X0290452Y0110123D01*
X0289718Y0111792D02*
X0294121Y0111792D01*
X0291920Y0111792D02*
X0291186Y0112526D01*
X0291186Y0113993D01*
X0291920Y0114727D01*
X0294121Y0114727D01*
X0294121Y0116395D02*
X0294121Y0117863D01*
X0294121Y0117129D02*
X0291186Y0117129D01*
X0291186Y0116395D01*
X0289718Y0117129D02*
X0288984Y0117129D01*
X0291920Y0119465D02*
X0291186Y0120199D01*
X0291186Y0121667D01*
X0291920Y0122401D01*
X0292654Y0122401D01*
X0292654Y0119465D01*
X0293388Y0119465D02*
X0291920Y0119465D01*
X0293388Y0119465D02*
X0294121Y0120199D01*
X0294121Y0121667D01*
X0294121Y0124069D02*
X0294121Y0125537D01*
X0294121Y0124803D02*
X0289718Y0124803D01*
X0289718Y0124069D01*
X0291920Y0127138D02*
X0291186Y0127872D01*
X0291186Y0130074D01*
X0289718Y0130074D02*
X0294121Y0130074D01*
X0294121Y0127872D01*
X0293388Y0127138D01*
X0291920Y0127138D01*
X0238921Y0129700D02*
X0238921Y0119700D01*
X0238919Y0119640D01*
X0238914Y0119579D01*
X0238905Y0119520D01*
X0238892Y0119461D01*
X0238876Y0119402D01*
X0238856Y0119345D01*
X0238833Y0119290D01*
X0238806Y0119235D01*
X0238777Y0119183D01*
X0238744Y0119132D01*
X0238708Y0119083D01*
X0238670Y0119037D01*
X0238628Y0118993D01*
X0238584Y0118951D01*
X0238538Y0118913D01*
X0238489Y0118877D01*
X0238438Y0118844D01*
X0238386Y0118815D01*
X0238331Y0118788D01*
X0238276Y0118765D01*
X0238219Y0118745D01*
X0238160Y0118729D01*
X0238101Y0118716D01*
X0238042Y0118707D01*
X0237981Y0118702D01*
X0237921Y0118700D01*
X0220921Y0118700D01*
X0220861Y0118702D01*
X0220800Y0118707D01*
X0220741Y0118716D01*
X0220682Y0118729D01*
X0220623Y0118745D01*
X0220566Y0118765D01*
X0220511Y0118788D01*
X0220456Y0118815D01*
X0220404Y0118844D01*
X0220353Y0118877D01*
X0220304Y0118913D01*
X0220258Y0118951D01*
X0220214Y0118993D01*
X0220172Y0119037D01*
X0220134Y0119083D01*
X0220098Y0119132D01*
X0220065Y0119183D01*
X0220036Y0119235D01*
X0220009Y0119290D01*
X0219986Y0119345D01*
X0219966Y0119402D01*
X0219950Y0119461D01*
X0219937Y0119520D01*
X0219928Y0119579D01*
X0219923Y0119640D01*
X0219921Y0119700D01*
X0219921Y0129700D01*
X0219923Y0129760D01*
X0219928Y0129821D01*
X0219937Y0129880D01*
X0219950Y0129939D01*
X0219966Y0129998D01*
X0219986Y0130055D01*
X0220009Y0130110D01*
X0220036Y0130165D01*
X0220065Y0130217D01*
X0220098Y0130268D01*
X0220134Y0130317D01*
X0220172Y0130363D01*
X0220214Y0130407D01*
X0220258Y0130449D01*
X0220304Y0130487D01*
X0220353Y0130523D01*
X0220404Y0130556D01*
X0220456Y0130585D01*
X0220511Y0130612D01*
X0220566Y0130635D01*
X0220623Y0130655D01*
X0220682Y0130671D01*
X0220741Y0130684D01*
X0220800Y0130693D01*
X0220861Y0130698D01*
X0220921Y0130700D01*
X0237921Y0130700D01*
X0237981Y0130698D01*
X0238042Y0130693D01*
X0238101Y0130684D01*
X0238160Y0130671D01*
X0238219Y0130655D01*
X0238276Y0130635D01*
X0238331Y0130612D01*
X0238386Y0130585D01*
X0238438Y0130556D01*
X0238489Y0130523D01*
X0238538Y0130487D01*
X0238584Y0130449D01*
X0238628Y0130407D01*
X0238670Y0130363D01*
X0238708Y0130317D01*
X0238744Y0130268D01*
X0238777Y0130217D01*
X0238806Y0130165D01*
X0238833Y0130110D01*
X0238856Y0130055D01*
X0238876Y0129998D01*
X0238892Y0129939D01*
X0238905Y0129880D01*
X0238914Y0129821D01*
X0238919Y0129760D01*
X0238921Y0129700D01*
X0235538Y0132000D02*
X0235538Y0135403D01*
X0237807Y0135403D01*
X0236673Y0133701D02*
X0235538Y0133701D01*
X0234124Y0133701D02*
X0234124Y0132000D01*
X0234124Y0133701D02*
X0233557Y0134269D01*
X0231855Y0134269D01*
X0231855Y0132000D01*
X0230441Y0132567D02*
X0229873Y0132000D01*
X0228739Y0132000D01*
X0228172Y0132567D01*
X0230441Y0134836D01*
X0230441Y0132567D01*
X0230441Y0134836D02*
X0229873Y0135403D01*
X0228739Y0135403D01*
X0228172Y0134836D01*
X0228172Y0132567D01*
X0226758Y0132567D02*
X0226758Y0134836D01*
X0224489Y0132567D01*
X0225056Y0132000D01*
X0226190Y0132000D01*
X0226758Y0132567D01*
X0226758Y0134836D02*
X0226190Y0135403D01*
X0225056Y0135403D01*
X0224489Y0134836D01*
X0224489Y0132567D01*
X0223074Y0132000D02*
X0220806Y0132000D01*
X0221940Y0132000D02*
X0221940Y0135403D01*
X0220806Y0134269D01*
X0227921Y0124700D02*
X0228421Y0124700D01*
X0230421Y0124700D02*
X0230921Y0124700D01*
X0191421Y0116200D02*
X0189421Y0116200D01*
X0190421Y0117200D02*
X0190421Y0115200D01*
X0188421Y0114700D02*
X0188421Y0118700D01*
X0188421Y0122700D01*
X0186421Y0122700D01*
X0186421Y0114700D01*
X0188421Y0114700D01*
X0188421Y0118700D02*
X0190921Y0118700D01*
X0193908Y0123988D02*
X0193777Y0124194D01*
X0193640Y0124396D01*
X0193498Y0124595D01*
X0193352Y0124791D01*
X0193201Y0124983D01*
X0193045Y0125171D01*
X0192885Y0125355D01*
X0192720Y0125535D01*
X0192551Y0125712D01*
X0192378Y0125884D01*
X0192200Y0126051D01*
X0192019Y0126215D01*
X0191833Y0126374D01*
X0191644Y0126528D01*
X0191451Y0126678D01*
X0191254Y0126823D01*
X0191054Y0126963D01*
X0190851Y0127098D01*
X0190644Y0127228D01*
X0190434Y0127353D01*
X0190221Y0127473D01*
X0190006Y0127587D01*
X0189787Y0127696D01*
X0189566Y0127800D01*
X0189343Y0127899D01*
X0189117Y0127992D01*
X0188889Y0128079D01*
X0188659Y0128161D01*
X0188427Y0128238D01*
X0188193Y0128308D01*
X0187957Y0128373D01*
X0187720Y0128432D01*
X0187482Y0128485D01*
X0187243Y0128533D01*
X0187002Y0128574D01*
X0186760Y0128610D01*
X0186518Y0128640D01*
X0186275Y0128663D01*
X0186031Y0128681D01*
X0185787Y0128693D01*
X0185543Y0128699D01*
X0185299Y0128699D01*
X0185055Y0128693D01*
X0184811Y0128681D01*
X0184567Y0128663D01*
X0184324Y0128640D01*
X0184082Y0128610D01*
X0183840Y0128574D01*
X0183599Y0128533D01*
X0183360Y0128485D01*
X0183122Y0128432D01*
X0182885Y0128373D01*
X0182649Y0128308D01*
X0182415Y0128238D01*
X0182183Y0128161D01*
X0181953Y0128079D01*
X0181725Y0127992D01*
X0181499Y0127899D01*
X0181276Y0127800D01*
X0181055Y0127696D01*
X0180836Y0127587D01*
X0180621Y0127473D01*
X0180408Y0127353D01*
X0180198Y0127228D01*
X0179991Y0127098D01*
X0179788Y0126963D01*
X0179588Y0126823D01*
X0179391Y0126678D01*
X0179198Y0126528D01*
X0179009Y0126374D01*
X0178823Y0126215D01*
X0178642Y0126051D01*
X0178464Y0125884D01*
X0178291Y0125712D01*
X0178122Y0125535D01*
X0177957Y0125355D01*
X0177797Y0125171D01*
X0177641Y0124983D01*
X0177490Y0124791D01*
X0177344Y0124595D01*
X0177202Y0124396D01*
X0177065Y0124194D01*
X0176934Y0123988D01*
X0178690Y0130000D02*
X0178690Y0133403D01*
X0176989Y0131701D01*
X0179258Y0131701D01*
X0180672Y0130567D02*
X0180672Y0130000D01*
X0180672Y0130567D02*
X0182941Y0132836D01*
X0182941Y0133403D01*
X0180672Y0133403D01*
X0184355Y0132269D02*
X0184355Y0130567D01*
X0184922Y0130000D01*
X0186624Y0130000D01*
X0186624Y0132269D01*
X0188038Y0131701D02*
X0189173Y0131701D01*
X0188038Y0130000D02*
X0188038Y0133403D01*
X0190307Y0133403D01*
X0193908Y0113412D02*
X0193777Y0113206D01*
X0193640Y0113004D01*
X0193498Y0112805D01*
X0193352Y0112609D01*
X0193201Y0112417D01*
X0193045Y0112229D01*
X0192885Y0112045D01*
X0192720Y0111865D01*
X0192551Y0111688D01*
X0192378Y0111516D01*
X0192200Y0111349D01*
X0192019Y0111185D01*
X0191833Y0111026D01*
X0191644Y0110872D01*
X0191451Y0110722D01*
X0191254Y0110577D01*
X0191054Y0110437D01*
X0190851Y0110302D01*
X0190644Y0110172D01*
X0190434Y0110047D01*
X0190221Y0109927D01*
X0190006Y0109813D01*
X0189787Y0109704D01*
X0189566Y0109600D01*
X0189343Y0109501D01*
X0189117Y0109408D01*
X0188889Y0109321D01*
X0188659Y0109239D01*
X0188427Y0109162D01*
X0188193Y0109092D01*
X0187957Y0109027D01*
X0187720Y0108968D01*
X0187482Y0108915D01*
X0187243Y0108867D01*
X0187002Y0108826D01*
X0186760Y0108790D01*
X0186518Y0108760D01*
X0186275Y0108737D01*
X0186031Y0108719D01*
X0185787Y0108707D01*
X0185543Y0108701D01*
X0185299Y0108701D01*
X0185055Y0108707D01*
X0184811Y0108719D01*
X0184567Y0108737D01*
X0184324Y0108760D01*
X0184082Y0108790D01*
X0183840Y0108826D01*
X0183599Y0108867D01*
X0183360Y0108915D01*
X0183122Y0108968D01*
X0182885Y0109027D01*
X0182649Y0109092D01*
X0182415Y0109162D01*
X0182183Y0109239D01*
X0181953Y0109321D01*
X0181725Y0109408D01*
X0181499Y0109501D01*
X0181276Y0109600D01*
X0181055Y0109704D01*
X0180836Y0109813D01*
X0180621Y0109927D01*
X0180408Y0110047D01*
X0180198Y0110172D01*
X0179991Y0110302D01*
X0179788Y0110437D01*
X0179588Y0110577D01*
X0179391Y0110722D01*
X0179198Y0110872D01*
X0179009Y0111026D01*
X0178823Y0111185D01*
X0178642Y0111349D01*
X0178464Y0111516D01*
X0178291Y0111688D01*
X0178122Y0111865D01*
X0177957Y0112045D01*
X0177797Y0112229D01*
X0177641Y0112417D01*
X0177490Y0112609D01*
X0177344Y0112805D01*
X0177202Y0113004D01*
X0177065Y0113206D01*
X0176934Y0113412D01*
X0179921Y0118700D02*
X0182921Y0118700D01*
X0186921Y0101200D02*
X0188421Y0101200D01*
X0188481Y0101198D01*
X0188542Y0101193D01*
X0188601Y0101184D01*
X0188660Y0101171D01*
X0188719Y0101155D01*
X0188776Y0101135D01*
X0188831Y0101112D01*
X0188886Y0101085D01*
X0188938Y0101056D01*
X0188989Y0101023D01*
X0189038Y0100987D01*
X0189084Y0100949D01*
X0189128Y0100907D01*
X0189170Y0100863D01*
X0189208Y0100817D01*
X0189244Y0100768D01*
X0189277Y0100717D01*
X0189306Y0100665D01*
X0189333Y0100610D01*
X0189356Y0100555D01*
X0189376Y0100498D01*
X0189392Y0100439D01*
X0189405Y0100380D01*
X0189414Y0100321D01*
X0189419Y0100260D01*
X0189421Y0100200D01*
X0189421Y0093200D01*
X0189419Y0093140D01*
X0189414Y0093079D01*
X0189405Y0093020D01*
X0189392Y0092961D01*
X0189376Y0092902D01*
X0189356Y0092845D01*
X0189333Y0092790D01*
X0189306Y0092735D01*
X0189277Y0092683D01*
X0189244Y0092632D01*
X0189208Y0092583D01*
X0189170Y0092537D01*
X0189128Y0092493D01*
X0189084Y0092451D01*
X0189038Y0092413D01*
X0188989Y0092377D01*
X0188938Y0092344D01*
X0188886Y0092315D01*
X0188831Y0092288D01*
X0188776Y0092265D01*
X0188719Y0092245D01*
X0188660Y0092229D01*
X0188601Y0092216D01*
X0188542Y0092207D01*
X0188481Y0092202D01*
X0188421Y0092200D01*
X0186921Y0092200D01*
X0186421Y0092700D01*
X0167421Y0092700D01*
X0166921Y0092200D01*
X0165421Y0092200D01*
X0165361Y0092202D01*
X0165300Y0092207D01*
X0165241Y0092216D01*
X0165182Y0092229D01*
X0165123Y0092245D01*
X0165066Y0092265D01*
X0165011Y0092288D01*
X0164956Y0092315D01*
X0164904Y0092344D01*
X0164853Y0092377D01*
X0164804Y0092413D01*
X0164758Y0092451D01*
X0164714Y0092493D01*
X0164672Y0092537D01*
X0164634Y0092583D01*
X0164598Y0092632D01*
X0164565Y0092683D01*
X0164536Y0092735D01*
X0164509Y0092790D01*
X0164486Y0092845D01*
X0164466Y0092902D01*
X0164450Y0092961D01*
X0164437Y0093020D01*
X0164428Y0093079D01*
X0164423Y0093140D01*
X0164421Y0093200D01*
X0164421Y0100200D01*
X0164423Y0100260D01*
X0164428Y0100321D01*
X0164437Y0100380D01*
X0164450Y0100439D01*
X0164466Y0100498D01*
X0164486Y0100555D01*
X0164509Y0100610D01*
X0164536Y0100665D01*
X0164565Y0100717D01*
X0164598Y0100768D01*
X0164634Y0100817D01*
X0164672Y0100863D01*
X0164714Y0100907D01*
X0164758Y0100949D01*
X0164804Y0100987D01*
X0164853Y0101023D01*
X0164904Y0101056D01*
X0164956Y0101085D01*
X0165011Y0101112D01*
X0165066Y0101135D01*
X0165123Y0101155D01*
X0165182Y0101171D01*
X0165241Y0101184D01*
X0165300Y0101193D01*
X0165361Y0101198D01*
X0165421Y0101200D01*
X0166921Y0101200D01*
X0167421Y0100700D01*
X0186421Y0100700D01*
X0186921Y0101200D01*
X0174889Y0097269D02*
X0173188Y0096134D01*
X0174889Y0095000D01*
X0173188Y0095000D02*
X0173188Y0098403D01*
X0171773Y0097836D02*
X0171206Y0098403D01*
X0170072Y0098403D01*
X0169505Y0097836D01*
X0169505Y0095567D01*
X0171773Y0097836D01*
X0171773Y0095567D01*
X0171206Y0095000D01*
X0170072Y0095000D01*
X0169505Y0095567D01*
X0168090Y0095000D02*
X0165821Y0095000D01*
X0166956Y0095000D02*
X0166956Y0098403D01*
X0165821Y0097269D01*
X0165921Y0086200D02*
X0167421Y0086200D01*
X0167921Y0085700D01*
X0186921Y0085700D01*
X0187421Y0086200D01*
X0188921Y0086200D01*
X0188981Y0086198D01*
X0189042Y0086193D01*
X0189101Y0086184D01*
X0189160Y0086171D01*
X0189219Y0086155D01*
X0189276Y0086135D01*
X0189331Y0086112D01*
X0189386Y0086085D01*
X0189438Y0086056D01*
X0189489Y0086023D01*
X0189538Y0085987D01*
X0189584Y0085949D01*
X0189628Y0085907D01*
X0189670Y0085863D01*
X0189708Y0085817D01*
X0189744Y0085768D01*
X0189777Y0085717D01*
X0189806Y0085665D01*
X0189833Y0085610D01*
X0189856Y0085555D01*
X0189876Y0085498D01*
X0189892Y0085439D01*
X0189905Y0085380D01*
X0189914Y0085321D01*
X0189919Y0085260D01*
X0189921Y0085200D01*
X0189921Y0078200D01*
X0189919Y0078140D01*
X0189914Y0078079D01*
X0189905Y0078020D01*
X0189892Y0077961D01*
X0189876Y0077902D01*
X0189856Y0077845D01*
X0189833Y0077790D01*
X0189806Y0077735D01*
X0189777Y0077683D01*
X0189744Y0077632D01*
X0189708Y0077583D01*
X0189670Y0077537D01*
X0189628Y0077493D01*
X0189584Y0077451D01*
X0189538Y0077413D01*
X0189489Y0077377D01*
X0189438Y0077344D01*
X0189386Y0077315D01*
X0189331Y0077288D01*
X0189276Y0077265D01*
X0189219Y0077245D01*
X0189160Y0077229D01*
X0189101Y0077216D01*
X0189042Y0077207D01*
X0188981Y0077202D01*
X0188921Y0077200D01*
X0187421Y0077200D01*
X0186921Y0077700D01*
X0167921Y0077700D01*
X0167421Y0077200D01*
X0165921Y0077200D01*
X0165861Y0077202D01*
X0165800Y0077207D01*
X0165741Y0077216D01*
X0165682Y0077229D01*
X0165623Y0077245D01*
X0165566Y0077265D01*
X0165511Y0077288D01*
X0165456Y0077315D01*
X0165404Y0077344D01*
X0165353Y0077377D01*
X0165304Y0077413D01*
X0165258Y0077451D01*
X0165214Y0077493D01*
X0165172Y0077537D01*
X0165134Y0077583D01*
X0165098Y0077632D01*
X0165065Y0077683D01*
X0165036Y0077735D01*
X0165009Y0077790D01*
X0164986Y0077845D01*
X0164966Y0077902D01*
X0164950Y0077961D01*
X0164937Y0078020D01*
X0164928Y0078079D01*
X0164923Y0078140D01*
X0164921Y0078200D01*
X0164921Y0085200D01*
X0164923Y0085260D01*
X0164928Y0085321D01*
X0164937Y0085380D01*
X0164950Y0085439D01*
X0164966Y0085498D01*
X0164986Y0085555D01*
X0165009Y0085610D01*
X0165036Y0085665D01*
X0165065Y0085717D01*
X0165098Y0085768D01*
X0165134Y0085817D01*
X0165172Y0085863D01*
X0165214Y0085907D01*
X0165258Y0085949D01*
X0165304Y0085987D01*
X0165353Y0086023D01*
X0165404Y0086056D01*
X0165456Y0086085D01*
X0165511Y0086112D01*
X0165566Y0086135D01*
X0165623Y0086155D01*
X0165682Y0086171D01*
X0165741Y0086184D01*
X0165800Y0086193D01*
X0165861Y0086198D01*
X0165921Y0086200D01*
X0167774Y0083403D02*
X0166072Y0081701D01*
X0168341Y0081701D01*
X0167774Y0080000D02*
X0167774Y0083403D01*
X0169755Y0083403D02*
X0172024Y0083403D01*
X0172024Y0082836D01*
X0169755Y0080567D01*
X0169755Y0080000D01*
X0173438Y0080567D02*
X0173438Y0082836D01*
X0174005Y0083403D01*
X0175140Y0083403D01*
X0175707Y0082836D01*
X0173438Y0080567D01*
X0174005Y0080000D01*
X0175140Y0080000D01*
X0175707Y0080567D01*
X0175707Y0082836D01*
X0193721Y0075769D02*
X0194856Y0076903D01*
X0194856Y0073500D01*
X0195990Y0073500D02*
X0193721Y0073500D01*
X0192921Y0071700D02*
X0209921Y0071700D01*
X0209981Y0071698D01*
X0210042Y0071693D01*
X0210101Y0071684D01*
X0210160Y0071671D01*
X0210219Y0071655D01*
X0210276Y0071635D01*
X0210331Y0071612D01*
X0210386Y0071585D01*
X0210438Y0071556D01*
X0210489Y0071523D01*
X0210538Y0071487D01*
X0210584Y0071449D01*
X0210628Y0071407D01*
X0210670Y0071363D01*
X0210708Y0071317D01*
X0210744Y0071268D01*
X0210777Y0071217D01*
X0210806Y0071165D01*
X0210833Y0071110D01*
X0210856Y0071055D01*
X0210876Y0070998D01*
X0210892Y0070939D01*
X0210905Y0070880D01*
X0210914Y0070821D01*
X0210919Y0070760D01*
X0210921Y0070700D01*
X0210921Y0060700D01*
X0210919Y0060640D01*
X0210914Y0060579D01*
X0210905Y0060520D01*
X0210892Y0060461D01*
X0210876Y0060402D01*
X0210856Y0060345D01*
X0210833Y0060290D01*
X0210806Y0060235D01*
X0210777Y0060183D01*
X0210744Y0060132D01*
X0210708Y0060083D01*
X0210670Y0060037D01*
X0210628Y0059993D01*
X0210584Y0059951D01*
X0210538Y0059913D01*
X0210489Y0059877D01*
X0210438Y0059844D01*
X0210386Y0059815D01*
X0210331Y0059788D01*
X0210276Y0059765D01*
X0210219Y0059745D01*
X0210160Y0059729D01*
X0210101Y0059716D01*
X0210042Y0059707D01*
X0209981Y0059702D01*
X0209921Y0059700D01*
X0192921Y0059700D01*
X0192861Y0059702D01*
X0192800Y0059707D01*
X0192741Y0059716D01*
X0192682Y0059729D01*
X0192623Y0059745D01*
X0192566Y0059765D01*
X0192511Y0059788D01*
X0192456Y0059815D01*
X0192404Y0059844D01*
X0192353Y0059877D01*
X0192304Y0059913D01*
X0192258Y0059951D01*
X0192214Y0059993D01*
X0192172Y0060037D01*
X0192134Y0060083D01*
X0192098Y0060132D01*
X0192065Y0060183D01*
X0192036Y0060235D01*
X0192009Y0060290D01*
X0191986Y0060345D01*
X0191966Y0060402D01*
X0191950Y0060461D01*
X0191937Y0060520D01*
X0191928Y0060579D01*
X0191923Y0060640D01*
X0191921Y0060700D01*
X0191921Y0070700D01*
X0191923Y0070760D01*
X0191928Y0070821D01*
X0191937Y0070880D01*
X0191950Y0070939D01*
X0191966Y0070998D01*
X0191986Y0071055D01*
X0192009Y0071110D01*
X0192036Y0071165D01*
X0192065Y0071217D01*
X0192098Y0071268D01*
X0192134Y0071317D01*
X0192172Y0071363D01*
X0192214Y0071407D01*
X0192258Y0071449D01*
X0192304Y0071487D01*
X0192353Y0071523D01*
X0192404Y0071556D01*
X0192456Y0071585D01*
X0192511Y0071612D01*
X0192566Y0071635D01*
X0192623Y0071655D01*
X0192682Y0071671D01*
X0192741Y0071684D01*
X0192800Y0071693D01*
X0192861Y0071698D01*
X0192921Y0071700D01*
X0197405Y0074067D02*
X0199673Y0076336D01*
X0199673Y0074067D01*
X0199106Y0073500D01*
X0197972Y0073500D01*
X0197405Y0074067D01*
X0197405Y0076336D01*
X0197972Y0076903D01*
X0199106Y0076903D01*
X0199673Y0076336D01*
X0201088Y0076336D02*
X0201088Y0074067D01*
X0203356Y0076336D01*
X0203356Y0074067D01*
X0202789Y0073500D01*
X0201655Y0073500D01*
X0201088Y0074067D01*
X0201088Y0076336D02*
X0201655Y0076903D01*
X0202789Y0076903D01*
X0203356Y0076336D01*
X0204771Y0075769D02*
X0204771Y0073500D01*
X0207040Y0073500D02*
X0207040Y0075201D01*
X0206472Y0075769D01*
X0204771Y0075769D01*
X0208454Y0075201D02*
X0209588Y0075201D01*
X0208454Y0073500D02*
X0208454Y0076903D01*
X0210723Y0076903D01*
X0202921Y0065700D02*
X0202421Y0065700D01*
X0200421Y0065700D02*
X0199921Y0065700D01*
X0139921Y0065200D02*
X0139921Y0058200D01*
X0139919Y0058140D01*
X0139914Y0058079D01*
X0139905Y0058020D01*
X0139892Y0057961D01*
X0139876Y0057902D01*
X0139856Y0057845D01*
X0139833Y0057790D01*
X0139806Y0057735D01*
X0139777Y0057683D01*
X0139744Y0057632D01*
X0139708Y0057583D01*
X0139670Y0057537D01*
X0139628Y0057493D01*
X0139584Y0057451D01*
X0139538Y0057413D01*
X0139489Y0057377D01*
X0139438Y0057344D01*
X0139386Y0057315D01*
X0139331Y0057288D01*
X0139276Y0057265D01*
X0139219Y0057245D01*
X0139160Y0057229D01*
X0139101Y0057216D01*
X0139042Y0057207D01*
X0138981Y0057202D01*
X0138921Y0057200D01*
X0137421Y0057200D01*
X0136921Y0057700D01*
X0117921Y0057700D01*
X0117421Y0057200D01*
X0115921Y0057200D01*
X0115861Y0057202D01*
X0115800Y0057207D01*
X0115741Y0057216D01*
X0115682Y0057229D01*
X0115623Y0057245D01*
X0115566Y0057265D01*
X0115511Y0057288D01*
X0115456Y0057315D01*
X0115404Y0057344D01*
X0115353Y0057377D01*
X0115304Y0057413D01*
X0115258Y0057451D01*
X0115214Y0057493D01*
X0115172Y0057537D01*
X0115134Y0057583D01*
X0115098Y0057632D01*
X0115065Y0057683D01*
X0115036Y0057735D01*
X0115009Y0057790D01*
X0114986Y0057845D01*
X0114966Y0057902D01*
X0114950Y0057961D01*
X0114937Y0058020D01*
X0114928Y0058079D01*
X0114923Y0058140D01*
X0114921Y0058200D01*
X0114921Y0065200D01*
X0114923Y0065260D01*
X0114928Y0065321D01*
X0114937Y0065380D01*
X0114950Y0065439D01*
X0114966Y0065498D01*
X0114986Y0065555D01*
X0115009Y0065610D01*
X0115036Y0065665D01*
X0115065Y0065717D01*
X0115098Y0065768D01*
X0115134Y0065817D01*
X0115172Y0065863D01*
X0115214Y0065907D01*
X0115258Y0065949D01*
X0115304Y0065987D01*
X0115353Y0066023D01*
X0115404Y0066056D01*
X0115456Y0066085D01*
X0115511Y0066112D01*
X0115566Y0066135D01*
X0115623Y0066155D01*
X0115682Y0066171D01*
X0115741Y0066184D01*
X0115800Y0066193D01*
X0115861Y0066198D01*
X0115921Y0066200D01*
X0117421Y0066200D01*
X0117921Y0065700D01*
X0136921Y0065700D01*
X0137421Y0066200D01*
X0138921Y0066200D01*
X0138981Y0066198D01*
X0139042Y0066193D01*
X0139101Y0066184D01*
X0139160Y0066171D01*
X0139219Y0066155D01*
X0139276Y0066135D01*
X0139331Y0066112D01*
X0139386Y0066085D01*
X0139438Y0066056D01*
X0139489Y0066023D01*
X0139538Y0065987D01*
X0139584Y0065949D01*
X0139628Y0065907D01*
X0139670Y0065863D01*
X0139708Y0065817D01*
X0139744Y0065768D01*
X0139777Y0065717D01*
X0139806Y0065665D01*
X0139833Y0065610D01*
X0139856Y0065555D01*
X0139876Y0065498D01*
X0139892Y0065439D01*
X0139905Y0065380D01*
X0139914Y0065321D01*
X0139919Y0065260D01*
X0139921Y0065200D01*
X0138921Y0072200D02*
X0137421Y0072200D01*
X0136921Y0072700D01*
X0117921Y0072700D01*
X0117421Y0072200D01*
X0115921Y0072200D01*
X0115861Y0072202D01*
X0115800Y0072207D01*
X0115741Y0072216D01*
X0115682Y0072229D01*
X0115623Y0072245D01*
X0115566Y0072265D01*
X0115511Y0072288D01*
X0115456Y0072315D01*
X0115404Y0072344D01*
X0115353Y0072377D01*
X0115304Y0072413D01*
X0115258Y0072451D01*
X0115214Y0072493D01*
X0115172Y0072537D01*
X0115134Y0072583D01*
X0115098Y0072632D01*
X0115065Y0072683D01*
X0115036Y0072735D01*
X0115009Y0072790D01*
X0114986Y0072845D01*
X0114966Y0072902D01*
X0114950Y0072961D01*
X0114937Y0073020D01*
X0114928Y0073079D01*
X0114923Y0073140D01*
X0114921Y0073200D01*
X0114921Y0080200D01*
X0114923Y0080260D01*
X0114928Y0080321D01*
X0114937Y0080380D01*
X0114950Y0080439D01*
X0114966Y0080498D01*
X0114986Y0080555D01*
X0115009Y0080610D01*
X0115036Y0080665D01*
X0115065Y0080717D01*
X0115098Y0080768D01*
X0115134Y0080817D01*
X0115172Y0080863D01*
X0115214Y0080907D01*
X0115258Y0080949D01*
X0115304Y0080987D01*
X0115353Y0081023D01*
X0115404Y0081056D01*
X0115456Y0081085D01*
X0115511Y0081112D01*
X0115566Y0081135D01*
X0115623Y0081155D01*
X0115682Y0081171D01*
X0115741Y0081184D01*
X0115800Y0081193D01*
X0115861Y0081198D01*
X0115921Y0081200D01*
X0117421Y0081200D01*
X0117921Y0080700D01*
X0136921Y0080700D01*
X0137421Y0081200D01*
X0138921Y0081200D01*
X0138981Y0081198D01*
X0139042Y0081193D01*
X0139101Y0081184D01*
X0139160Y0081171D01*
X0139219Y0081155D01*
X0139276Y0081135D01*
X0139331Y0081112D01*
X0139386Y0081085D01*
X0139438Y0081056D01*
X0139489Y0081023D01*
X0139538Y0080987D01*
X0139584Y0080949D01*
X0139628Y0080907D01*
X0139670Y0080863D01*
X0139708Y0080817D01*
X0139744Y0080768D01*
X0139777Y0080717D01*
X0139806Y0080665D01*
X0139833Y0080610D01*
X0139856Y0080555D01*
X0139876Y0080498D01*
X0139892Y0080439D01*
X0139905Y0080380D01*
X0139914Y0080321D01*
X0139919Y0080260D01*
X0139921Y0080200D01*
X0139921Y0073200D01*
X0139919Y0073140D01*
X0139914Y0073079D01*
X0139905Y0073020D01*
X0139892Y0072961D01*
X0139876Y0072902D01*
X0139856Y0072845D01*
X0139833Y0072790D01*
X0139806Y0072735D01*
X0139777Y0072683D01*
X0139744Y0072632D01*
X0139708Y0072583D01*
X0139670Y0072537D01*
X0139628Y0072493D01*
X0139584Y0072451D01*
X0139538Y0072413D01*
X0139489Y0072377D01*
X0139438Y0072344D01*
X0139386Y0072315D01*
X0139331Y0072288D01*
X0139276Y0072265D01*
X0139219Y0072245D01*
X0139160Y0072229D01*
X0139101Y0072216D01*
X0139042Y0072207D01*
X0138981Y0072202D01*
X0138921Y0072200D01*
X0126456Y0075567D02*
X0125889Y0075000D01*
X0124755Y0075000D01*
X0124188Y0075567D01*
X0126456Y0077836D01*
X0126456Y0075567D01*
X0124188Y0075567D02*
X0124188Y0077836D01*
X0124755Y0078403D01*
X0125889Y0078403D01*
X0126456Y0077836D01*
X0122773Y0077836D02*
X0120505Y0075567D01*
X0120505Y0075000D01*
X0118523Y0075000D02*
X0118523Y0078403D01*
X0116821Y0076701D01*
X0119090Y0076701D01*
X0120505Y0078403D02*
X0122773Y0078403D01*
X0122773Y0077836D01*
X0116921Y0084700D02*
X0115421Y0084700D01*
X0115361Y0084702D01*
X0115300Y0084707D01*
X0115241Y0084716D01*
X0115182Y0084729D01*
X0115123Y0084745D01*
X0115066Y0084765D01*
X0115011Y0084788D01*
X0114956Y0084815D01*
X0114904Y0084844D01*
X0114853Y0084877D01*
X0114804Y0084913D01*
X0114758Y0084951D01*
X0114714Y0084993D01*
X0114672Y0085037D01*
X0114634Y0085083D01*
X0114598Y0085132D01*
X0114565Y0085183D01*
X0114536Y0085235D01*
X0114509Y0085290D01*
X0114486Y0085345D01*
X0114466Y0085402D01*
X0114450Y0085461D01*
X0114437Y0085520D01*
X0114428Y0085579D01*
X0114423Y0085640D01*
X0114421Y0085700D01*
X0114421Y0092700D01*
X0114423Y0092760D01*
X0114428Y0092821D01*
X0114437Y0092880D01*
X0114450Y0092939D01*
X0114466Y0092998D01*
X0114486Y0093055D01*
X0114509Y0093110D01*
X0114536Y0093165D01*
X0114565Y0093217D01*
X0114598Y0093268D01*
X0114634Y0093317D01*
X0114672Y0093363D01*
X0114714Y0093407D01*
X0114758Y0093449D01*
X0114804Y0093487D01*
X0114853Y0093523D01*
X0114904Y0093556D01*
X0114956Y0093585D01*
X0115011Y0093612D01*
X0115066Y0093635D01*
X0115123Y0093655D01*
X0115182Y0093671D01*
X0115241Y0093684D01*
X0115300Y0093693D01*
X0115361Y0093698D01*
X0115421Y0093700D01*
X0116921Y0093700D01*
X0117421Y0093200D01*
X0136421Y0093200D01*
X0136921Y0093700D01*
X0138421Y0093700D01*
X0138481Y0093698D01*
X0138542Y0093693D01*
X0138601Y0093684D01*
X0138660Y0093671D01*
X0138719Y0093655D01*
X0138776Y0093635D01*
X0138831Y0093612D01*
X0138886Y0093585D01*
X0138938Y0093556D01*
X0138989Y0093523D01*
X0139038Y0093487D01*
X0139084Y0093449D01*
X0139128Y0093407D01*
X0139170Y0093363D01*
X0139208Y0093317D01*
X0139244Y0093268D01*
X0139277Y0093217D01*
X0139306Y0093165D01*
X0139333Y0093110D01*
X0139356Y0093055D01*
X0139376Y0092998D01*
X0139392Y0092939D01*
X0139405Y0092880D01*
X0139414Y0092821D01*
X0139419Y0092760D01*
X0139421Y0092700D01*
X0139421Y0085700D01*
X0139419Y0085640D01*
X0139414Y0085579D01*
X0139405Y0085520D01*
X0139392Y0085461D01*
X0139376Y0085402D01*
X0139356Y0085345D01*
X0139333Y0085290D01*
X0139306Y0085235D01*
X0139277Y0085183D01*
X0139244Y0085132D01*
X0139208Y0085083D01*
X0139170Y0085037D01*
X0139128Y0084993D01*
X0139084Y0084951D01*
X0139038Y0084913D01*
X0138989Y0084877D01*
X0138938Y0084844D01*
X0138886Y0084815D01*
X0138831Y0084788D01*
X0138776Y0084765D01*
X0138719Y0084745D01*
X0138660Y0084729D01*
X0138601Y0084716D01*
X0138542Y0084707D01*
X0138481Y0084702D01*
X0138421Y0084700D01*
X0136921Y0084700D01*
X0136421Y0085200D01*
X0117421Y0085200D01*
X0116921Y0084700D01*
X0117887Y0087500D02*
X0117887Y0090903D01*
X0116186Y0089201D01*
X0118455Y0089201D01*
X0119869Y0088067D02*
X0119869Y0087500D01*
X0119869Y0088067D02*
X0122138Y0090336D01*
X0122138Y0090903D01*
X0119869Y0090903D01*
X0123552Y0090903D02*
X0123552Y0087500D01*
X0123552Y0088634D02*
X0125254Y0087500D01*
X0123552Y0088634D02*
X0125254Y0089769D01*
X0122421Y0109200D02*
X0122424Y0109445D01*
X0122433Y0109691D01*
X0122448Y0109936D01*
X0122469Y0110180D01*
X0122496Y0110424D01*
X0122529Y0110667D01*
X0122568Y0110910D01*
X0122613Y0111151D01*
X0122664Y0111391D01*
X0122721Y0111630D01*
X0122783Y0111867D01*
X0122852Y0112103D01*
X0122926Y0112337D01*
X0123006Y0112569D01*
X0123091Y0112799D01*
X0123182Y0113027D01*
X0123279Y0113252D01*
X0123381Y0113476D01*
X0123489Y0113696D01*
X0123602Y0113914D01*
X0123720Y0114129D01*
X0123844Y0114341D01*
X0123972Y0114550D01*
X0124106Y0114756D01*
X0124245Y0114958D01*
X0124389Y0115157D01*
X0124538Y0115352D01*
X0124691Y0115544D01*
X0124849Y0115732D01*
X0125011Y0115916D01*
X0125179Y0116095D01*
X0125350Y0116271D01*
X0125526Y0116442D01*
X0125705Y0116610D01*
X0125889Y0116772D01*
X0126077Y0116930D01*
X0126269Y0117083D01*
X0126464Y0117232D01*
X0126663Y0117376D01*
X0126865Y0117515D01*
X0127071Y0117649D01*
X0127280Y0117777D01*
X0127492Y0117901D01*
X0127707Y0118019D01*
X0127925Y0118132D01*
X0128145Y0118240D01*
X0128369Y0118342D01*
X0128594Y0118439D01*
X0128822Y0118530D01*
X0129052Y0118615D01*
X0129284Y0118695D01*
X0129518Y0118769D01*
X0129754Y0118838D01*
X0129991Y0118900D01*
X0130230Y0118957D01*
X0130470Y0119008D01*
X0130711Y0119053D01*
X0130954Y0119092D01*
X0131197Y0119125D01*
X0131441Y0119152D01*
X0131685Y0119173D01*
X0131930Y0119188D01*
X0132176Y0119197D01*
X0132421Y0119200D01*
X0132666Y0119197D01*
X0132912Y0119188D01*
X0133157Y0119173D01*
X0133401Y0119152D01*
X0133645Y0119125D01*
X0133888Y0119092D01*
X0134131Y0119053D01*
X0134372Y0119008D01*
X0134612Y0118957D01*
X0134851Y0118900D01*
X0135088Y0118838D01*
X0135324Y0118769D01*
X0135558Y0118695D01*
X0135790Y0118615D01*
X0136020Y0118530D01*
X0136248Y0118439D01*
X0136473Y0118342D01*
X0136697Y0118240D01*
X0136917Y0118132D01*
X0137135Y0118019D01*
X0137350Y0117901D01*
X0137562Y0117777D01*
X0137771Y0117649D01*
X0137977Y0117515D01*
X0138179Y0117376D01*
X0138378Y0117232D01*
X0138573Y0117083D01*
X0138765Y0116930D01*
X0138953Y0116772D01*
X0139137Y0116610D01*
X0139316Y0116442D01*
X0139492Y0116271D01*
X0139663Y0116095D01*
X0139831Y0115916D01*
X0139993Y0115732D01*
X0140151Y0115544D01*
X0140304Y0115352D01*
X0140453Y0115157D01*
X0140597Y0114958D01*
X0140736Y0114756D01*
X0140870Y0114550D01*
X0140998Y0114341D01*
X0141122Y0114129D01*
X0141240Y0113914D01*
X0141353Y0113696D01*
X0141461Y0113476D01*
X0141563Y0113252D01*
X0141660Y0113027D01*
X0141751Y0112799D01*
X0141836Y0112569D01*
X0141916Y0112337D01*
X0141990Y0112103D01*
X0142059Y0111867D01*
X0142121Y0111630D01*
X0142178Y0111391D01*
X0142229Y0111151D01*
X0142274Y0110910D01*
X0142313Y0110667D01*
X0142346Y0110424D01*
X0142373Y0110180D01*
X0142394Y0109936D01*
X0142409Y0109691D01*
X0142418Y0109445D01*
X0142421Y0109200D01*
X0142418Y0108955D01*
X0142409Y0108709D01*
X0142394Y0108464D01*
X0142373Y0108220D01*
X0142346Y0107976D01*
X0142313Y0107733D01*
X0142274Y0107490D01*
X0142229Y0107249D01*
X0142178Y0107009D01*
X0142121Y0106770D01*
X0142059Y0106533D01*
X0141990Y0106297D01*
X0141916Y0106063D01*
X0141836Y0105831D01*
X0141751Y0105601D01*
X0141660Y0105373D01*
X0141563Y0105148D01*
X0141461Y0104924D01*
X0141353Y0104704D01*
X0141240Y0104486D01*
X0141122Y0104271D01*
X0140998Y0104059D01*
X0140870Y0103850D01*
X0140736Y0103644D01*
X0140597Y0103442D01*
X0140453Y0103243D01*
X0140304Y0103048D01*
X0140151Y0102856D01*
X0139993Y0102668D01*
X0139831Y0102484D01*
X0139663Y0102305D01*
X0139492Y0102129D01*
X0139316Y0101958D01*
X0139137Y0101790D01*
X0138953Y0101628D01*
X0138765Y0101470D01*
X0138573Y0101317D01*
X0138378Y0101168D01*
X0138179Y0101024D01*
X0137977Y0100885D01*
X0137771Y0100751D01*
X0137562Y0100623D01*
X0137350Y0100499D01*
X0137135Y0100381D01*
X0136917Y0100268D01*
X0136697Y0100160D01*
X0136473Y0100058D01*
X0136248Y0099961D01*
X0136020Y0099870D01*
X0135790Y0099785D01*
X0135558Y0099705D01*
X0135324Y0099631D01*
X0135088Y0099562D01*
X0134851Y0099500D01*
X0134612Y0099443D01*
X0134372Y0099392D01*
X0134131Y0099347D01*
X0133888Y0099308D01*
X0133645Y0099275D01*
X0133401Y0099248D01*
X0133157Y0099227D01*
X0132912Y0099212D01*
X0132666Y0099203D01*
X0132421Y0099200D01*
X0132176Y0099203D01*
X0131930Y0099212D01*
X0131685Y0099227D01*
X0131441Y0099248D01*
X0131197Y0099275D01*
X0130954Y0099308D01*
X0130711Y0099347D01*
X0130470Y0099392D01*
X0130230Y0099443D01*
X0129991Y0099500D01*
X0129754Y0099562D01*
X0129518Y0099631D01*
X0129284Y0099705D01*
X0129052Y0099785D01*
X0128822Y0099870D01*
X0128594Y0099961D01*
X0128369Y0100058D01*
X0128145Y0100160D01*
X0127925Y0100268D01*
X0127707Y0100381D01*
X0127492Y0100499D01*
X0127280Y0100623D01*
X0127071Y0100751D01*
X0126865Y0100885D01*
X0126663Y0101024D01*
X0126464Y0101168D01*
X0126269Y0101317D01*
X0126077Y0101470D01*
X0125889Y0101628D01*
X0125705Y0101790D01*
X0125526Y0101958D01*
X0125350Y0102129D01*
X0125179Y0102305D01*
X0125011Y0102484D01*
X0124849Y0102668D01*
X0124691Y0102856D01*
X0124538Y0103048D01*
X0124389Y0103243D01*
X0124245Y0103442D01*
X0124106Y0103644D01*
X0123972Y0103850D01*
X0123844Y0104059D01*
X0123720Y0104271D01*
X0123602Y0104486D01*
X0123489Y0104704D01*
X0123381Y0104924D01*
X0123279Y0105148D01*
X0123182Y0105373D01*
X0123091Y0105601D01*
X0123006Y0105831D01*
X0122926Y0106063D01*
X0122852Y0106297D01*
X0122783Y0106533D01*
X0122721Y0106770D01*
X0122664Y0107009D01*
X0122613Y0107249D01*
X0122568Y0107490D01*
X0122529Y0107733D01*
X0122496Y0107976D01*
X0122469Y0108220D01*
X0122448Y0108464D01*
X0122433Y0108709D01*
X0122424Y0108955D01*
X0122421Y0109200D01*
X0123821Y0123400D02*
X0123821Y0126803D01*
X0125523Y0126803D01*
X0126090Y0126236D01*
X0126090Y0125101D01*
X0125523Y0124534D01*
X0123821Y0124534D01*
X0127505Y0123400D02*
X0128639Y0123400D01*
X0128072Y0123400D02*
X0128072Y0125669D01*
X0127505Y0125669D01*
X0128072Y0126803D02*
X0128072Y0127370D01*
X0129960Y0125669D02*
X0131662Y0125669D01*
X0132229Y0125101D01*
X0132229Y0123400D01*
X0129960Y0123400D02*
X0129960Y0125669D01*
X0137326Y0125669D02*
X0138461Y0126803D01*
X0138461Y0123400D01*
X0139595Y0123400D02*
X0137326Y0123400D01*
X0141009Y0123967D02*
X0141577Y0123400D01*
X0142711Y0123400D01*
X0143278Y0123967D01*
X0143278Y0124534D01*
X0142711Y0125101D01*
X0142144Y0125101D01*
X0142711Y0125101D02*
X0143278Y0125669D01*
X0143278Y0126236D01*
X0142711Y0126803D01*
X0141577Y0126803D01*
X0141009Y0126236D01*
X0093019Y0096696D02*
X0093019Y0094995D01*
X0089616Y0094995D01*
X0089616Y0096696D01*
X0090183Y0097263D01*
X0092452Y0097263D01*
X0093019Y0096696D01*
X0093019Y0093580D02*
X0091885Y0092446D01*
X0091885Y0093013D02*
X0091885Y0091311D01*
X0093019Y0091311D02*
X0089616Y0091311D01*
X0089616Y0093013D01*
X0090183Y0093580D01*
X0091318Y0093580D01*
X0091885Y0093013D01*
X0091318Y0089897D02*
X0091318Y0087628D01*
X0090751Y0087628D02*
X0089616Y0088763D01*
X0090751Y0089897D01*
X0093019Y0089897D01*
X0093019Y0087628D02*
X0090751Y0087628D01*
X0090183Y0086214D02*
X0089616Y0085647D01*
X0089616Y0084512D01*
X0090183Y0083945D01*
X0092452Y0083945D01*
X0093019Y0084512D01*
X0093019Y0085647D01*
X0092452Y0086214D01*
X0090183Y0086214D01*
X0090183Y0082531D02*
X0089616Y0081963D01*
X0089616Y0080262D01*
X0093019Y0080262D01*
X0093019Y0081963D01*
X0092452Y0082531D01*
X0091885Y0082531D01*
X0091318Y0081963D01*
X0091318Y0080262D01*
X0091318Y0081963D02*
X0090751Y0082531D01*
X0090183Y0082531D01*
X0090183Y0078847D02*
X0089616Y0078847D01*
X0090183Y0078847D02*
X0091318Y0077713D01*
X0093019Y0077713D01*
X0091318Y0077713D02*
X0090183Y0076579D01*
X0089616Y0076579D01*
X0089616Y0075164D02*
X0089616Y0072896D01*
X0093019Y0072896D01*
X0093019Y0075164D01*
X0091318Y0074030D02*
X0091318Y0072896D01*
X0093019Y0071481D02*
X0091318Y0069780D01*
X0091885Y0069213D02*
X0089616Y0071481D01*
X0089616Y0069213D02*
X0093019Y0069213D01*
X0117321Y0061701D02*
X0119590Y0061701D01*
X0119023Y0060000D02*
X0119023Y0063403D01*
X0117321Y0061701D01*
X0121005Y0060567D02*
X0121005Y0060000D01*
X0121005Y0060567D02*
X0123273Y0062836D01*
X0123273Y0063403D01*
X0121005Y0063403D01*
X0124688Y0062836D02*
X0125255Y0063403D01*
X0126389Y0063403D01*
X0126956Y0062836D01*
X0124688Y0060567D01*
X0125255Y0060000D01*
X0126389Y0060000D01*
X0126956Y0060567D01*
X0126956Y0062836D01*
X0124688Y0062836D02*
X0124688Y0060567D01*
X0289718Y0069455D02*
X0292654Y0066520D01*
X0279921Y0196700D02*
X0274921Y0196700D01*
X0272421Y0199200D01*
X0269921Y0196700D01*
X0264921Y0196700D01*
X0262421Y0199200D01*
X0262421Y0204200D01*
X0264921Y0206700D01*
X0269921Y0206700D01*
X0272421Y0204200D01*
X0274921Y0206700D01*
X0279921Y0206700D01*
X0282421Y0204200D01*
X0282421Y0199200D01*
X0279921Y0196700D01*
X0272421Y0199200D02*
X0272421Y0204200D01*
X0262421Y0204200D02*
X0259921Y0206700D01*
X0254921Y0206700D01*
X0252421Y0204200D01*
X0249921Y0206700D01*
X0244921Y0206700D01*
X0242421Y0204200D01*
X0239921Y0206700D01*
X0234921Y0206700D01*
X0232421Y0204200D01*
X0232421Y0199200D01*
X0234921Y0196700D01*
X0239921Y0196700D01*
X0242421Y0199200D01*
X0242421Y0204200D01*
X0242421Y0199200D02*
X0244921Y0196700D01*
X0249921Y0196700D01*
X0252421Y0199200D01*
X0252421Y0204200D01*
X0252421Y0199200D02*
X0254921Y0196700D01*
X0259921Y0196700D01*
X0262421Y0199200D01*
X0232421Y0199200D02*
X0229921Y0196700D01*
X0224921Y0196700D01*
X0222421Y0199200D01*
X0219921Y0196700D01*
X0214921Y0196700D01*
X0212421Y0199200D01*
X0209921Y0196700D01*
X0204921Y0196700D01*
X0202421Y0199200D01*
X0202421Y0204200D01*
X0204921Y0206700D01*
X0209921Y0206700D01*
X0212421Y0204200D01*
X0214921Y0206700D01*
X0219921Y0206700D01*
X0222421Y0204200D01*
X0224921Y0206700D01*
X0229921Y0206700D01*
X0232421Y0204200D01*
X0222421Y0204200D02*
X0222421Y0199200D01*
X0212421Y0199200D02*
X0212421Y0204200D01*
X0196421Y0204200D02*
X0196421Y0199200D01*
X0193921Y0196700D01*
X0188921Y0196700D01*
X0186421Y0199200D01*
X0183921Y0196700D01*
X0178921Y0196700D01*
X0176421Y0199200D01*
X0176421Y0204200D01*
X0178921Y0206700D01*
X0183921Y0206700D01*
X0186421Y0204200D01*
X0188921Y0206700D01*
X0193921Y0206700D01*
X0196421Y0204200D01*
X0186421Y0204200D02*
X0186421Y0199200D01*
X0176421Y0199200D02*
X0173921Y0196700D01*
X0168921Y0196700D01*
X0166421Y0199200D01*
X0163921Y0196700D01*
X0158921Y0196700D01*
X0156421Y0199200D01*
X0153921Y0196700D01*
X0148921Y0196700D01*
X0146421Y0199200D01*
X0146421Y0204200D01*
X0148921Y0206700D01*
X0153921Y0206700D01*
X0156421Y0204200D01*
X0158921Y0206700D01*
X0163921Y0206700D01*
X0166421Y0204200D01*
X0168921Y0206700D01*
X0173921Y0206700D01*
X0176421Y0204200D01*
X0166421Y0204200D02*
X0166421Y0199200D01*
X0156421Y0199200D02*
X0156421Y0204200D01*
X0146421Y0204200D02*
X0143921Y0206700D01*
X0138921Y0206700D01*
X0136421Y0204200D01*
X0133921Y0206700D01*
X0128921Y0206700D01*
X0126421Y0204200D01*
X0123921Y0206700D01*
X0118921Y0206700D01*
X0116421Y0204200D01*
X0116421Y0199200D01*
X0118921Y0196700D01*
X0123921Y0196700D01*
X0126421Y0199200D01*
X0126421Y0204200D01*
X0126421Y0199200D02*
X0128921Y0196700D01*
X0133921Y0196700D01*
X0136421Y0199200D01*
X0136421Y0204200D01*
X0136421Y0199200D02*
X0138921Y0196700D01*
X0143921Y0196700D01*
X0146421Y0199200D01*
X0116421Y0199200D02*
X0113921Y0196700D01*
X0108921Y0196700D01*
X0106421Y0199200D01*
X0103921Y0196700D01*
X0098921Y0196700D01*
X0096421Y0199200D01*
X0096421Y0204200D01*
X0098921Y0206700D01*
X0103921Y0206700D01*
X0106421Y0204200D01*
X0108921Y0206700D01*
X0113921Y0206700D01*
X0116421Y0204200D01*
X0106421Y0204200D02*
X0106421Y0199200D01*
X0058756Y0207669D02*
X0058188Y0207669D01*
X0057054Y0206534D01*
X0057054Y0205400D02*
X0057054Y0207669D01*
X0055640Y0207101D02*
X0055640Y0206534D01*
X0053371Y0206534D01*
X0053371Y0205967D02*
X0053371Y0207101D01*
X0053938Y0207669D01*
X0055072Y0207669D01*
X0055640Y0207101D01*
X0055072Y0205400D02*
X0053938Y0205400D01*
X0053371Y0205967D01*
X0051956Y0205967D02*
X0051956Y0207669D01*
X0051956Y0205967D02*
X0051389Y0205400D01*
X0050822Y0205967D01*
X0050255Y0205400D01*
X0049688Y0205967D01*
X0049688Y0207669D01*
X0048273Y0207101D02*
X0047706Y0207669D01*
X0046572Y0207669D01*
X0046005Y0207101D01*
X0046005Y0205967D01*
X0046572Y0205400D01*
X0047706Y0205400D01*
X0048273Y0205967D01*
X0048273Y0207101D01*
X0044590Y0207101D02*
X0044023Y0206534D01*
X0042321Y0206534D01*
X0042321Y0205400D02*
X0042321Y0208803D01*
X0044023Y0208803D01*
X0044590Y0208236D01*
X0044590Y0207101D01*
X0042421Y0191700D02*
X0042424Y0191945D01*
X0042433Y0192191D01*
X0042448Y0192436D01*
X0042469Y0192680D01*
X0042496Y0192924D01*
X0042529Y0193167D01*
X0042568Y0193410D01*
X0042613Y0193651D01*
X0042664Y0193891D01*
X0042721Y0194130D01*
X0042783Y0194367D01*
X0042852Y0194603D01*
X0042926Y0194837D01*
X0043006Y0195069D01*
X0043091Y0195299D01*
X0043182Y0195527D01*
X0043279Y0195752D01*
X0043381Y0195976D01*
X0043489Y0196196D01*
X0043602Y0196414D01*
X0043720Y0196629D01*
X0043844Y0196841D01*
X0043972Y0197050D01*
X0044106Y0197256D01*
X0044245Y0197458D01*
X0044389Y0197657D01*
X0044538Y0197852D01*
X0044691Y0198044D01*
X0044849Y0198232D01*
X0045011Y0198416D01*
X0045179Y0198595D01*
X0045350Y0198771D01*
X0045526Y0198942D01*
X0045705Y0199110D01*
X0045889Y0199272D01*
X0046077Y0199430D01*
X0046269Y0199583D01*
X0046464Y0199732D01*
X0046663Y0199876D01*
X0046865Y0200015D01*
X0047071Y0200149D01*
X0047280Y0200277D01*
X0047492Y0200401D01*
X0047707Y0200519D01*
X0047925Y0200632D01*
X0048145Y0200740D01*
X0048369Y0200842D01*
X0048594Y0200939D01*
X0048822Y0201030D01*
X0049052Y0201115D01*
X0049284Y0201195D01*
X0049518Y0201269D01*
X0049754Y0201338D01*
X0049991Y0201400D01*
X0050230Y0201457D01*
X0050470Y0201508D01*
X0050711Y0201553D01*
X0050954Y0201592D01*
X0051197Y0201625D01*
X0051441Y0201652D01*
X0051685Y0201673D01*
X0051930Y0201688D01*
X0052176Y0201697D01*
X0052421Y0201700D01*
X0052666Y0201697D01*
X0052912Y0201688D01*
X0053157Y0201673D01*
X0053401Y0201652D01*
X0053645Y0201625D01*
X0053888Y0201592D01*
X0054131Y0201553D01*
X0054372Y0201508D01*
X0054612Y0201457D01*
X0054851Y0201400D01*
X0055088Y0201338D01*
X0055324Y0201269D01*
X0055558Y0201195D01*
X0055790Y0201115D01*
X0056020Y0201030D01*
X0056248Y0200939D01*
X0056473Y0200842D01*
X0056697Y0200740D01*
X0056917Y0200632D01*
X0057135Y0200519D01*
X0057350Y0200401D01*
X0057562Y0200277D01*
X0057771Y0200149D01*
X0057977Y0200015D01*
X0058179Y0199876D01*
X0058378Y0199732D01*
X0058573Y0199583D01*
X0058765Y0199430D01*
X0058953Y0199272D01*
X0059137Y0199110D01*
X0059316Y0198942D01*
X0059492Y0198771D01*
X0059663Y0198595D01*
X0059831Y0198416D01*
X0059993Y0198232D01*
X0060151Y0198044D01*
X0060304Y0197852D01*
X0060453Y0197657D01*
X0060597Y0197458D01*
X0060736Y0197256D01*
X0060870Y0197050D01*
X0060998Y0196841D01*
X0061122Y0196629D01*
X0061240Y0196414D01*
X0061353Y0196196D01*
X0061461Y0195976D01*
X0061563Y0195752D01*
X0061660Y0195527D01*
X0061751Y0195299D01*
X0061836Y0195069D01*
X0061916Y0194837D01*
X0061990Y0194603D01*
X0062059Y0194367D01*
X0062121Y0194130D01*
X0062178Y0193891D01*
X0062229Y0193651D01*
X0062274Y0193410D01*
X0062313Y0193167D01*
X0062346Y0192924D01*
X0062373Y0192680D01*
X0062394Y0192436D01*
X0062409Y0192191D01*
X0062418Y0191945D01*
X0062421Y0191700D01*
X0062418Y0191455D01*
X0062409Y0191209D01*
X0062394Y0190964D01*
X0062373Y0190720D01*
X0062346Y0190476D01*
X0062313Y0190233D01*
X0062274Y0189990D01*
X0062229Y0189749D01*
X0062178Y0189509D01*
X0062121Y0189270D01*
X0062059Y0189033D01*
X0061990Y0188797D01*
X0061916Y0188563D01*
X0061836Y0188331D01*
X0061751Y0188101D01*
X0061660Y0187873D01*
X0061563Y0187648D01*
X0061461Y0187424D01*
X0061353Y0187204D01*
X0061240Y0186986D01*
X0061122Y0186771D01*
X0060998Y0186559D01*
X0060870Y0186350D01*
X0060736Y0186144D01*
X0060597Y0185942D01*
X0060453Y0185743D01*
X0060304Y0185548D01*
X0060151Y0185356D01*
X0059993Y0185168D01*
X0059831Y0184984D01*
X0059663Y0184805D01*
X0059492Y0184629D01*
X0059316Y0184458D01*
X0059137Y0184290D01*
X0058953Y0184128D01*
X0058765Y0183970D01*
X0058573Y0183817D01*
X0058378Y0183668D01*
X0058179Y0183524D01*
X0057977Y0183385D01*
X0057771Y0183251D01*
X0057562Y0183123D01*
X0057350Y0182999D01*
X0057135Y0182881D01*
X0056917Y0182768D01*
X0056697Y0182660D01*
X0056473Y0182558D01*
X0056248Y0182461D01*
X0056020Y0182370D01*
X0055790Y0182285D01*
X0055558Y0182205D01*
X0055324Y0182131D01*
X0055088Y0182062D01*
X0054851Y0182000D01*
X0054612Y0181943D01*
X0054372Y0181892D01*
X0054131Y0181847D01*
X0053888Y0181808D01*
X0053645Y0181775D01*
X0053401Y0181748D01*
X0053157Y0181727D01*
X0052912Y0181712D01*
X0052666Y0181703D01*
X0052421Y0181700D01*
X0052176Y0181703D01*
X0051930Y0181712D01*
X0051685Y0181727D01*
X0051441Y0181748D01*
X0051197Y0181775D01*
X0050954Y0181808D01*
X0050711Y0181847D01*
X0050470Y0181892D01*
X0050230Y0181943D01*
X0049991Y0182000D01*
X0049754Y0182062D01*
X0049518Y0182131D01*
X0049284Y0182205D01*
X0049052Y0182285D01*
X0048822Y0182370D01*
X0048594Y0182461D01*
X0048369Y0182558D01*
X0048145Y0182660D01*
X0047925Y0182768D01*
X0047707Y0182881D01*
X0047492Y0182999D01*
X0047280Y0183123D01*
X0047071Y0183251D01*
X0046865Y0183385D01*
X0046663Y0183524D01*
X0046464Y0183668D01*
X0046269Y0183817D01*
X0046077Y0183970D01*
X0045889Y0184128D01*
X0045705Y0184290D01*
X0045526Y0184458D01*
X0045350Y0184629D01*
X0045179Y0184805D01*
X0045011Y0184984D01*
X0044849Y0185168D01*
X0044691Y0185356D01*
X0044538Y0185548D01*
X0044389Y0185743D01*
X0044245Y0185942D01*
X0044106Y0186144D01*
X0043972Y0186350D01*
X0043844Y0186559D01*
X0043720Y0186771D01*
X0043602Y0186986D01*
X0043489Y0187204D01*
X0043381Y0187424D01*
X0043279Y0187648D01*
X0043182Y0187873D01*
X0043091Y0188101D01*
X0043006Y0188331D01*
X0042926Y0188563D01*
X0042852Y0188797D01*
X0042783Y0189033D01*
X0042721Y0189270D01*
X0042664Y0189509D01*
X0042613Y0189749D01*
X0042568Y0189990D01*
X0042529Y0190233D01*
X0042496Y0190476D01*
X0042469Y0190720D01*
X0042448Y0190964D01*
X0042433Y0191209D01*
X0042424Y0191455D01*
X0042421Y0191700D01*
D11*
X0039954Y0166287D02*
X0035050Y0166287D01*
X0035050Y0163018D02*
X0039954Y0166287D01*
X0039954Y0163018D02*
X0035050Y0163018D01*
X0035050Y0161215D02*
X0035050Y0159580D01*
X0035050Y0160397D02*
X0039954Y0160397D01*
X0039954Y0159580D02*
X0039954Y0161215D01*
X0039954Y0152537D02*
X0039954Y0149267D01*
X0035050Y0149267D01*
X0035050Y0152537D01*
X0037502Y0150902D02*
X0037502Y0149267D01*
X0035867Y0147380D02*
X0035050Y0146563D01*
X0035050Y0144111D01*
X0039954Y0144111D01*
X0039954Y0146563D01*
X0039137Y0147380D01*
X0035867Y0147380D01*
X0036685Y0142224D02*
X0039954Y0142224D01*
X0037502Y0142224D02*
X0037502Y0138954D01*
X0036685Y0138954D02*
X0035050Y0140589D01*
X0036685Y0142224D01*
X0036685Y0138954D02*
X0039954Y0138954D01*
X0039954Y0137067D02*
X0035050Y0137067D01*
X0036685Y0135433D01*
X0035050Y0133798D01*
X0039954Y0133798D01*
X0045050Y0138798D02*
X0049137Y0138798D01*
X0049954Y0139615D01*
X0049954Y0141250D01*
X0049137Y0142067D01*
X0045050Y0142067D01*
X0045867Y0143954D02*
X0046685Y0143954D01*
X0047502Y0144772D01*
X0047502Y0146407D01*
X0048319Y0147224D01*
X0049137Y0147224D01*
X0049954Y0146407D01*
X0049954Y0144772D01*
X0049137Y0143954D01*
X0045867Y0143954D02*
X0045050Y0144772D01*
X0045050Y0146407D01*
X0045867Y0147224D01*
X0046685Y0149111D02*
X0045050Y0150746D01*
X0046685Y0152380D01*
X0049954Y0152380D01*
X0047502Y0152380D02*
X0047502Y0149111D01*
X0046685Y0149111D02*
X0049954Y0149111D01*
D12*
X0097966Y0177734D02*
X0098951Y0176750D01*
X0099935Y0176750D01*
X0100919Y0177734D01*
X0100919Y0179703D01*
X0101903Y0180687D01*
X0102887Y0180687D01*
X0103871Y0179703D01*
X0103871Y0177734D01*
X0102887Y0176750D01*
X0097966Y0177734D02*
X0097966Y0179703D01*
X0098951Y0180687D01*
X0098951Y0183195D02*
X0102887Y0183195D01*
X0103871Y0184180D01*
X0103871Y0186148D01*
X0102887Y0187132D01*
X0103871Y0189641D02*
X0103871Y0193578D01*
X0103871Y0189641D02*
X0097966Y0189641D01*
X0098951Y0187132D02*
X0097966Y0186148D01*
X0097966Y0184180D01*
X0098951Y0183195D01*
X0108466Y0183195D02*
X0108466Y0186148D01*
X0109451Y0187132D01*
X0113387Y0187132D01*
X0114371Y0186148D01*
X0114371Y0183195D01*
X0108466Y0183195D01*
X0109451Y0180687D02*
X0108466Y0179703D01*
X0108466Y0177734D01*
X0109451Y0176750D01*
X0110435Y0176750D01*
X0111419Y0177734D01*
X0111419Y0179703D01*
X0112403Y0180687D01*
X0113387Y0180687D01*
X0114371Y0179703D01*
X0114371Y0177734D01*
X0113387Y0176750D01*
X0118466Y0176695D02*
X0118466Y0179648D01*
X0119451Y0180632D01*
X0121419Y0180632D01*
X0122403Y0179648D01*
X0122403Y0176695D01*
X0124371Y0176695D02*
X0118466Y0176695D01*
X0120435Y0174187D02*
X0124371Y0174187D01*
X0121419Y0174187D02*
X0121419Y0170250D01*
X0120435Y0170250D02*
X0118466Y0172218D01*
X0120435Y0174187D01*
X0120435Y0170250D02*
X0124371Y0170250D01*
X0129451Y0176750D02*
X0133387Y0176750D01*
X0134371Y0177734D01*
X0134371Y0179703D01*
X0133387Y0180687D01*
X0131419Y0180687D01*
X0131419Y0178718D01*
X0129451Y0176750D02*
X0128466Y0177734D01*
X0128466Y0179703D01*
X0129451Y0180687D01*
X0128466Y0183195D02*
X0134371Y0187132D01*
X0128466Y0187132D01*
X0128466Y0189641D02*
X0128466Y0192594D01*
X0129451Y0193578D01*
X0133387Y0193578D01*
X0134371Y0192594D01*
X0134371Y0189641D01*
X0128466Y0189641D01*
X0124371Y0189586D02*
X0118466Y0189586D01*
X0118466Y0193523D01*
X0121419Y0191555D02*
X0121419Y0189586D01*
X0124371Y0187078D02*
X0124371Y0183141D01*
X0118466Y0183141D01*
X0118466Y0187078D01*
X0121419Y0185109D02*
X0121419Y0183141D01*
X0124371Y0180632D02*
X0122403Y0178664D01*
X0128466Y0183195D02*
X0134371Y0183195D01*
X0138466Y0185218D02*
X0140435Y0183250D01*
X0138466Y0185218D02*
X0144371Y0185218D01*
X0144371Y0183250D02*
X0144371Y0187187D01*
X0143387Y0189695D02*
X0144371Y0190680D01*
X0144371Y0192648D01*
X0143387Y0193632D01*
X0142403Y0193632D01*
X0141419Y0192648D01*
X0141419Y0191664D01*
X0141419Y0192648D02*
X0140435Y0193632D01*
X0139451Y0193632D01*
X0138466Y0192648D01*
X0138466Y0190680D01*
X0139451Y0189695D01*
X0148966Y0190680D02*
X0149951Y0189695D01*
X0148966Y0190680D02*
X0148966Y0192648D01*
X0149951Y0193632D01*
X0150935Y0193632D01*
X0154871Y0189695D01*
X0154871Y0193632D01*
X0158966Y0191609D02*
X0160935Y0189641D01*
X0158966Y0191609D02*
X0164871Y0191609D01*
X0164871Y0189641D02*
X0164871Y0193578D01*
X0168466Y0192594D02*
X0169451Y0193578D01*
X0173387Y0189641D01*
X0174371Y0190625D01*
X0174371Y0192594D01*
X0173387Y0193578D01*
X0169451Y0193578D01*
X0168466Y0192594D02*
X0168466Y0190625D01*
X0169451Y0189641D01*
X0173387Y0189641D01*
X0174371Y0187132D02*
X0174371Y0183195D01*
X0174371Y0185164D02*
X0168466Y0185164D01*
X0170435Y0183195D01*
X0168466Y0180687D02*
X0169451Y0179703D01*
X0167482Y0177734D01*
X0168466Y0176750D01*
X0168781Y0175155D02*
X0165828Y0175155D01*
X0165828Y0169250D01*
X0168781Y0169250D01*
X0169765Y0170234D01*
X0169765Y0174171D01*
X0168781Y0175155D01*
X0172274Y0175155D02*
X0174242Y0175155D01*
X0173258Y0175155D02*
X0173258Y0169250D01*
X0172274Y0169250D02*
X0174242Y0169250D01*
X0176571Y0170234D02*
X0177555Y0169250D01*
X0179523Y0169250D01*
X0180508Y0170234D01*
X0180508Y0172203D01*
X0178539Y0172203D01*
X0176571Y0174171D02*
X0176571Y0170234D01*
X0176571Y0174171D02*
X0177555Y0175155D01*
X0179523Y0175155D01*
X0180508Y0174171D01*
X0183016Y0175155D02*
X0184985Y0175155D01*
X0184001Y0175155D02*
X0184001Y0169250D01*
X0184985Y0169250D02*
X0183016Y0169250D01*
X0189282Y0169250D02*
X0189282Y0175155D01*
X0191250Y0175155D02*
X0187313Y0175155D01*
X0193759Y0173187D02*
X0195727Y0175155D01*
X0197696Y0173187D01*
X0197696Y0169250D01*
X0200204Y0169250D02*
X0204141Y0169250D01*
X0200204Y0169250D02*
X0200204Y0175155D01*
X0197696Y0172203D02*
X0193759Y0172203D01*
X0193759Y0173187D02*
X0193759Y0169250D01*
X0178466Y0183250D02*
X0177482Y0184234D01*
X0179451Y0186203D01*
X0178466Y0187187D01*
X0179451Y0189695D02*
X0180435Y0189695D01*
X0181419Y0190680D01*
X0181419Y0193632D01*
X0183387Y0193632D02*
X0184371Y0192648D01*
X0184371Y0190680D01*
X0183387Y0189695D01*
X0179451Y0189695D02*
X0178466Y0190680D01*
X0178466Y0192648D01*
X0179451Y0193632D01*
X0183387Y0193632D01*
X0188466Y0192703D02*
X0188466Y0190734D01*
X0189451Y0189750D01*
X0190435Y0189750D01*
X0191419Y0190734D01*
X0191419Y0192703D01*
X0192403Y0193687D01*
X0193387Y0193687D01*
X0194371Y0192703D01*
X0194371Y0190734D01*
X0193387Y0189750D01*
X0192403Y0189750D01*
X0191419Y0190734D01*
X0191419Y0192703D02*
X0190435Y0193687D01*
X0189451Y0193687D01*
X0188466Y0192703D01*
X0204466Y0193687D02*
X0204466Y0189750D01*
X0204466Y0193687D02*
X0205451Y0193687D01*
X0209387Y0189750D01*
X0210371Y0189750D01*
X0214466Y0187187D02*
X0215451Y0186203D01*
X0213482Y0184234D01*
X0214466Y0183250D01*
X0217419Y0189695D02*
X0217419Y0192648D01*
X0218403Y0193632D01*
X0219387Y0193632D01*
X0220371Y0192648D01*
X0220371Y0190680D01*
X0219387Y0189695D01*
X0217419Y0189695D01*
X0215451Y0191664D01*
X0214466Y0193632D01*
X0224466Y0193632D02*
X0224466Y0189695D01*
X0227419Y0189695D01*
X0226435Y0191664D01*
X0226435Y0192648D01*
X0227419Y0193632D01*
X0229387Y0193632D01*
X0230371Y0192648D01*
X0230371Y0190680D01*
X0229387Y0189695D01*
X0225451Y0186203D02*
X0224466Y0187187D01*
X0225451Y0186203D02*
X0223482Y0184234D01*
X0224466Y0183250D01*
X0223838Y0175155D02*
X0223838Y0169250D01*
X0225806Y0171218D01*
X0227775Y0169250D01*
X0227775Y0175155D01*
X0230283Y0175155D02*
X0232252Y0173187D01*
X0234220Y0175155D01*
X0234220Y0169250D01*
X0230283Y0169250D02*
X0230283Y0175155D01*
X0236729Y0175155D02*
X0237713Y0176139D01*
X0239681Y0174171D01*
X0240666Y0175155D01*
X0243174Y0175155D02*
X0245143Y0173187D01*
X0245143Y0171218D01*
X0243174Y0169250D01*
X0244466Y0183250D02*
X0243482Y0184234D01*
X0245451Y0186203D01*
X0244466Y0187187D01*
X0245451Y0189695D02*
X0244466Y0190680D01*
X0244466Y0192648D01*
X0245451Y0193632D01*
X0246435Y0193632D01*
X0247419Y0192648D01*
X0248403Y0193632D01*
X0249387Y0193632D01*
X0250371Y0192648D01*
X0250371Y0190680D01*
X0249387Y0189695D01*
X0247419Y0191664D02*
X0247419Y0192648D01*
X0240371Y0192703D02*
X0234466Y0192703D01*
X0237419Y0189750D01*
X0237419Y0193687D01*
X0254466Y0192703D02*
X0254466Y0190734D01*
X0255451Y0189750D01*
X0254466Y0192703D02*
X0255451Y0193687D01*
X0256435Y0193687D01*
X0260371Y0189750D01*
X0260371Y0193687D01*
X0264466Y0191718D02*
X0270371Y0191718D01*
X0270371Y0189750D02*
X0270371Y0193687D01*
X0274466Y0192703D02*
X0275451Y0193687D01*
X0279387Y0189750D01*
X0280371Y0190734D01*
X0280371Y0192703D01*
X0279387Y0193687D01*
X0275451Y0193687D01*
X0274466Y0192703D02*
X0274466Y0190734D01*
X0275451Y0189750D01*
X0279387Y0189750D01*
X0266435Y0189750D02*
X0264466Y0191718D01*
X0221329Y0174171D02*
X0221329Y0172203D01*
X0220345Y0171218D01*
X0217392Y0171218D01*
X0217392Y0169250D02*
X0217392Y0175155D01*
X0220345Y0175155D01*
X0221329Y0174171D01*
X0215064Y0175155D02*
X0213095Y0173187D01*
X0213095Y0171218D01*
X0215064Y0169250D01*
X0164871Y0183195D02*
X0164871Y0187132D01*
X0164871Y0185164D02*
X0158966Y0185164D01*
X0160935Y0183195D01*
X0158966Y0180687D02*
X0159951Y0179703D01*
X0157982Y0177734D01*
X0158966Y0176750D01*
X0154871Y0183250D02*
X0154871Y0187187D01*
X0154871Y0185218D02*
X0148966Y0185218D01*
X0150935Y0183250D01*
X0114371Y0189641D02*
X0110435Y0189641D01*
X0108466Y0191609D01*
X0110435Y0193578D01*
X0114371Y0193578D01*
X0111419Y0193578D02*
X0111419Y0189641D01*
X0154744Y0060655D02*
X0157696Y0060655D01*
X0158681Y0059671D01*
X0158681Y0057703D01*
X0157696Y0056718D01*
X0154744Y0056718D01*
X0154744Y0054750D02*
X0154744Y0060655D01*
X0161189Y0059671D02*
X0161189Y0055734D01*
X0162174Y0054750D01*
X0164142Y0054750D01*
X0165126Y0055734D01*
X0165126Y0059671D01*
X0164142Y0060655D01*
X0162174Y0060655D01*
X0161189Y0059671D01*
X0167635Y0060655D02*
X0167635Y0054750D01*
X0169603Y0056718D01*
X0171572Y0054750D01*
X0171572Y0060655D01*
X0174080Y0060655D02*
X0174080Y0054750D01*
X0178017Y0054750D01*
X0180526Y0054750D02*
X0180526Y0060655D01*
X0183478Y0060655D01*
X0184463Y0059671D01*
X0184463Y0057703D01*
X0183478Y0056718D01*
X0180526Y0056718D01*
X0182494Y0056718D02*
X0184463Y0054750D01*
X0178017Y0060655D02*
X0174080Y0060655D01*
X0174080Y0057703D02*
X0176049Y0057703D01*
X0160371Y0048000D02*
X0154466Y0048000D01*
X0154466Y0046032D02*
X0154466Y0049969D01*
X0150371Y0044383D02*
X0144466Y0044383D01*
X0144466Y0048320D01*
X0147419Y0046352D02*
X0147419Y0044383D01*
X0150371Y0041875D02*
X0150371Y0037938D01*
X0144466Y0037938D01*
X0144466Y0041875D01*
X0147419Y0039906D02*
X0147419Y0037938D01*
X0147419Y0035429D02*
X0145451Y0035429D01*
X0144466Y0034445D01*
X0144466Y0031492D01*
X0150371Y0031492D01*
X0148403Y0031492D02*
X0148403Y0034445D01*
X0147419Y0035429D01*
X0148403Y0033461D02*
X0150371Y0035429D01*
X0154466Y0036094D02*
X0154466Y0034125D01*
X0155451Y0033141D01*
X0156435Y0033141D01*
X0157419Y0034125D01*
X0157419Y0036094D01*
X0158403Y0037078D01*
X0159387Y0037078D01*
X0160371Y0036094D01*
X0160371Y0034125D01*
X0159387Y0033141D01*
X0160371Y0030632D02*
X0160371Y0026695D01*
X0154466Y0026695D01*
X0154466Y0030632D01*
X0157419Y0028664D02*
X0157419Y0026695D01*
X0157419Y0024187D02*
X0155451Y0024187D01*
X0154466Y0023203D01*
X0154466Y0020250D01*
X0160371Y0020250D01*
X0158403Y0020250D02*
X0158403Y0023203D01*
X0157419Y0024187D01*
X0158403Y0022218D02*
X0160371Y0024187D01*
X0164466Y0023203D02*
X0165451Y0024187D01*
X0166435Y0024187D01*
X0167419Y0023203D01*
X0168403Y0024187D01*
X0169387Y0024187D01*
X0170371Y0023203D01*
X0170371Y0021234D01*
X0169387Y0020250D01*
X0167419Y0022218D02*
X0167419Y0023203D01*
X0164466Y0023203D02*
X0164466Y0021234D01*
X0165451Y0020250D01*
X0169387Y0026695D02*
X0169387Y0027680D01*
X0170371Y0027680D01*
X0170371Y0026695D01*
X0169387Y0026695D01*
X0169387Y0029918D02*
X0170371Y0030902D01*
X0170371Y0032871D01*
X0169387Y0033855D01*
X0168403Y0033855D01*
X0167419Y0032871D01*
X0167419Y0031887D01*
X0167419Y0032871D02*
X0166435Y0033855D01*
X0165451Y0033855D01*
X0164466Y0032871D01*
X0164466Y0030902D01*
X0165451Y0029918D01*
X0164466Y0036364D02*
X0168403Y0036364D01*
X0170371Y0038332D01*
X0168403Y0040300D01*
X0164466Y0040300D01*
X0160371Y0039586D02*
X0160371Y0043523D01*
X0157419Y0041555D02*
X0157419Y0039586D01*
X0160371Y0039586D02*
X0154466Y0039586D01*
X0154466Y0043523D01*
X0155451Y0037078D02*
X0154466Y0036094D01*
X0149387Y0028984D02*
X0145451Y0028984D01*
X0144466Y0028000D01*
X0144466Y0026031D01*
X0145451Y0025047D01*
X0149387Y0025047D01*
X0150371Y0026031D01*
X0150371Y0028000D01*
X0149387Y0028984D01*
X0150371Y0022718D02*
X0150371Y0020750D01*
X0150371Y0021734D02*
X0144466Y0021734D01*
X0144466Y0020750D02*
X0144466Y0022718D01*
X0174466Y0024187D02*
X0174466Y0020250D01*
X0177419Y0020250D01*
X0176435Y0022218D01*
X0176435Y0023203D01*
X0177419Y0024187D01*
X0179387Y0024187D01*
X0180371Y0023203D01*
X0180371Y0021234D01*
X0179387Y0020250D01*
X0184466Y0020734D02*
X0185451Y0019750D01*
X0189387Y0019750D01*
X0190371Y0020734D01*
X0190371Y0022703D01*
X0189387Y0023687D01*
X0187419Y0023687D01*
X0187419Y0021718D01*
X0185451Y0023687D02*
X0184466Y0022703D01*
X0184466Y0020734D01*
X0184466Y0026195D02*
X0190371Y0030132D01*
X0184466Y0030132D01*
X0184466Y0026195D02*
X0190371Y0026195D01*
X0194466Y0026195D02*
X0200371Y0030132D01*
X0194466Y0030132D01*
X0194466Y0026195D02*
X0200371Y0026195D01*
X0199387Y0023687D02*
X0197419Y0023687D01*
X0197419Y0021718D01*
X0195451Y0019750D02*
X0199387Y0019750D01*
X0200371Y0020734D01*
X0200371Y0022703D01*
X0199387Y0023687D01*
X0195451Y0023687D02*
X0194466Y0022703D01*
X0194466Y0020734D01*
X0195451Y0019750D01*
X0204466Y0019750D02*
X0208403Y0019750D01*
X0210371Y0021718D01*
X0208403Y0023687D01*
X0204466Y0023687D01*
X0206435Y0026195D02*
X0206435Y0027180D01*
X0210371Y0027180D01*
X0210371Y0028164D02*
X0210371Y0026195D01*
X0210371Y0030492D02*
X0206435Y0030492D01*
X0206435Y0033445D01*
X0207419Y0034429D01*
X0210371Y0034429D01*
X0204466Y0027180D02*
X0203482Y0027180D01*
X0200371Y0032641D02*
X0194466Y0032641D01*
X0194466Y0035594D01*
X0195451Y0036578D01*
X0199387Y0036578D01*
X0200371Y0035594D01*
X0200371Y0032641D01*
X0190371Y0032641D02*
X0190371Y0035594D01*
X0189387Y0036578D01*
X0185451Y0036578D01*
X0184466Y0035594D01*
X0184466Y0032641D01*
X0190371Y0032641D01*
X0180371Y0028664D02*
X0178403Y0030632D01*
X0174466Y0030632D01*
X0174466Y0026695D02*
X0178403Y0026695D01*
X0180371Y0028664D01*
X0224466Y0029148D02*
X0224466Y0027180D01*
X0225451Y0026195D01*
X0229387Y0026195D01*
X0225451Y0030132D01*
X0229387Y0030132D01*
X0230371Y0029148D01*
X0230371Y0027180D01*
X0229387Y0026195D01*
X0230371Y0023687D02*
X0226435Y0023687D01*
X0224466Y0021718D01*
X0226435Y0019750D01*
X0230371Y0019750D01*
X0227419Y0019750D02*
X0227419Y0023687D01*
X0224466Y0029148D02*
X0225451Y0030132D01*
X0234466Y0028164D02*
X0240371Y0028164D01*
X0240371Y0030132D02*
X0240371Y0026195D01*
X0240371Y0023687D02*
X0236435Y0023687D01*
X0234466Y0021718D01*
X0236435Y0019750D01*
X0240371Y0019750D01*
X0237419Y0019750D02*
X0237419Y0023687D01*
X0236435Y0026195D02*
X0234466Y0028164D01*
X0244466Y0029148D02*
X0244466Y0027180D01*
X0245451Y0026195D01*
X0246435Y0023687D02*
X0250371Y0023687D01*
X0250371Y0026195D02*
X0246435Y0030132D01*
X0245451Y0030132D01*
X0244466Y0029148D01*
X0246435Y0023687D02*
X0244466Y0021718D01*
X0246435Y0019750D01*
X0250371Y0019750D01*
X0247419Y0019750D02*
X0247419Y0023687D01*
X0250371Y0026195D02*
X0250371Y0030132D01*
X0254466Y0029148D02*
X0254466Y0027180D01*
X0255451Y0026195D01*
X0256435Y0023687D02*
X0260371Y0023687D01*
X0259387Y0026195D02*
X0260371Y0027180D01*
X0260371Y0029148D01*
X0259387Y0030132D01*
X0258403Y0030132D01*
X0257419Y0029148D01*
X0257419Y0028164D01*
X0257419Y0029148D02*
X0256435Y0030132D01*
X0255451Y0030132D01*
X0254466Y0029148D01*
X0256435Y0023687D02*
X0254466Y0021718D01*
X0256435Y0019750D01*
X0260371Y0019750D01*
X0257419Y0019750D02*
X0257419Y0023687D01*
X0264466Y0021218D02*
X0266435Y0023187D01*
X0270371Y0023187D01*
X0267419Y0023187D02*
X0267419Y0019250D01*
X0266435Y0019250D02*
X0264466Y0021218D01*
X0266435Y0019250D02*
X0270371Y0019250D01*
X0274466Y0021718D02*
X0276435Y0023687D01*
X0280371Y0023687D01*
X0279387Y0026195D02*
X0280371Y0027180D01*
X0280371Y0029148D01*
X0279387Y0030132D01*
X0277419Y0030132D01*
X0276435Y0029148D01*
X0276435Y0028164D01*
X0277419Y0026195D01*
X0274466Y0026195D01*
X0274466Y0030132D01*
X0270371Y0028648D02*
X0264466Y0028648D01*
X0267419Y0025695D01*
X0267419Y0029632D01*
X0274466Y0021718D02*
X0276435Y0019750D01*
X0280371Y0019750D01*
X0277419Y0019750D02*
X0277419Y0023687D01*
X0278963Y0054750D02*
X0278963Y0060655D01*
X0275026Y0060655D02*
X0278963Y0054750D01*
X0275026Y0054750D02*
X0275026Y0060655D01*
X0272697Y0060655D02*
X0270729Y0060655D01*
X0271713Y0060655D02*
X0271713Y0054750D01*
X0270729Y0054750D02*
X0272697Y0054750D01*
X0261775Y0055734D02*
X0261775Y0057703D01*
X0259806Y0057703D01*
X0257838Y0059671D02*
X0257838Y0055734D01*
X0258822Y0054750D01*
X0260790Y0054750D01*
X0261775Y0055734D01*
X0261775Y0059671D02*
X0260790Y0060655D01*
X0258822Y0060655D01*
X0257838Y0059671D01*
X0255329Y0059671D02*
X0254345Y0060655D01*
X0252377Y0060655D01*
X0251392Y0059671D01*
X0251392Y0055734D01*
X0252377Y0054750D01*
X0254345Y0054750D01*
X0255329Y0055734D01*
X0255329Y0059671D01*
X0248884Y0054750D02*
X0244947Y0054750D01*
X0244947Y0060655D01*
X0242438Y0058687D02*
X0242438Y0054750D01*
X0242438Y0057703D02*
X0238501Y0057703D01*
X0238501Y0058687D02*
X0238501Y0054750D01*
X0235993Y0054750D02*
X0235993Y0060655D01*
X0238501Y0058687D02*
X0240470Y0060655D01*
X0242438Y0058687D01*
X0235993Y0054750D02*
X0232056Y0060655D01*
X0232056Y0054750D01*
X0229547Y0054750D02*
X0229547Y0058687D01*
X0227579Y0060655D01*
X0225610Y0058687D01*
X0225610Y0054750D01*
X0225610Y0057703D02*
X0229547Y0057703D01*
D13*
X0222421Y0051700D02*
X0281921Y0051700D01*
X0212421Y0051700D02*
X0142421Y0051700D01*
X0136921Y0166700D02*
X0282421Y0166700D01*
D14*
X0277421Y0159200D02*
X0269921Y0159200D01*
X0269921Y0139200D01*
X0252421Y0139200D01*
X0252421Y0159200D01*
X0269921Y0159200D01*
X0277421Y0159200D02*
X0277421Y0139200D01*
X0269921Y0139200D01*
X0261921Y0126200D02*
X0254421Y0126200D01*
X0254421Y0066200D01*
X0261921Y0066200D01*
X0261921Y0126200D01*
X0279421Y0126200D01*
X0279421Y0066200D01*
X0261921Y0066200D01*
X0234921Y0074700D02*
X0234921Y0108700D01*
X0223921Y0108700D01*
X0223921Y0074700D01*
X0230921Y0074700D01*
X0233921Y0074700D01*
X0234921Y0074700D01*
X0233921Y0074700D02*
X0233944Y0074775D01*
X0233963Y0074852D01*
X0233979Y0074929D01*
X0233990Y0075007D01*
X0233998Y0075085D01*
X0234002Y0075164D01*
X0234001Y0075242D01*
X0233997Y0075321D01*
X0233989Y0075399D01*
X0233977Y0075477D01*
X0233962Y0075554D01*
X0233942Y0075631D01*
X0233919Y0075706D01*
X0233892Y0075780D01*
X0233861Y0075852D01*
X0233827Y0075923D01*
X0233789Y0075992D01*
X0233748Y0076059D01*
X0233704Y0076124D01*
X0233656Y0076187D01*
X0233605Y0076247D01*
X0233552Y0076305D01*
X0233495Y0076360D01*
X0233436Y0076412D01*
X0233375Y0076461D01*
X0233311Y0076507D01*
X0233244Y0076550D01*
X0233176Y0076589D01*
X0233106Y0076625D01*
X0233034Y0076657D01*
X0232961Y0076686D01*
X0232886Y0076711D01*
X0232811Y0076732D01*
X0232734Y0076750D01*
X0232656Y0076763D01*
X0232578Y0076773D01*
X0232500Y0076779D01*
X0232421Y0076781D01*
X0232342Y0076779D01*
X0232264Y0076773D01*
X0232186Y0076763D01*
X0232108Y0076750D01*
X0232031Y0076732D01*
X0231956Y0076711D01*
X0231881Y0076686D01*
X0231808Y0076657D01*
X0231736Y0076625D01*
X0231666Y0076589D01*
X0231598Y0076550D01*
X0231531Y0076507D01*
X0231467Y0076461D01*
X0231406Y0076412D01*
X0231347Y0076360D01*
X0231290Y0076305D01*
X0231237Y0076247D01*
X0231186Y0076187D01*
X0231138Y0076124D01*
X0231094Y0076059D01*
X0231053Y0075992D01*
X0231015Y0075923D01*
X0230981Y0075852D01*
X0230950Y0075780D01*
X0230923Y0075706D01*
X0230900Y0075631D01*
X0230880Y0075554D01*
X0230865Y0075477D01*
X0230853Y0075399D01*
X0230845Y0075321D01*
X0230841Y0075242D01*
X0230840Y0075164D01*
X0230844Y0075085D01*
X0230852Y0075007D01*
X0230863Y0074929D01*
X0230879Y0074852D01*
X0230898Y0074775D01*
X0230921Y0074700D01*
X0202421Y0068700D02*
X0202421Y0065700D01*
X0202421Y0062700D01*
X0200421Y0062700D02*
X0200421Y0065700D01*
X0200421Y0068700D01*
X0228421Y0121700D02*
X0228421Y0124700D01*
X0228421Y0127700D01*
X0230421Y0127700D02*
X0230421Y0124700D01*
X0230421Y0121700D01*
X0222421Y0139200D02*
X0222421Y0159200D01*
X0239921Y0159200D01*
X0239921Y0139200D01*
X0222421Y0139200D01*
X0217421Y0139200D02*
X0209921Y0139200D01*
X0209921Y0159200D01*
X0217421Y0159200D01*
X0217421Y0139200D01*
X0209921Y0139200D02*
X0192421Y0139200D01*
X0192421Y0159200D01*
X0209921Y0159200D01*
X0187421Y0159200D02*
X0179921Y0159200D01*
X0179921Y0139200D01*
X0162421Y0139200D01*
X0162421Y0159200D01*
X0179921Y0159200D01*
X0187421Y0159200D02*
X0187421Y0139200D01*
X0179921Y0139200D01*
X0142421Y0116700D02*
X0142234Y0116943D01*
X0142042Y0117181D01*
X0141843Y0117414D01*
X0141639Y0117642D01*
X0141430Y0117865D01*
X0141215Y0118083D01*
X0140995Y0118296D01*
X0140770Y0118503D01*
X0140539Y0118705D01*
X0140304Y0118901D01*
X0140064Y0119091D01*
X0139820Y0119275D01*
X0139571Y0119453D01*
X0139317Y0119625D01*
X0139060Y0119791D01*
X0138799Y0119951D01*
X0138534Y0120104D01*
X0138265Y0120250D01*
X0137992Y0120390D01*
X0137717Y0120523D01*
X0137438Y0120649D01*
X0137156Y0120769D01*
X0136871Y0120881D01*
X0136584Y0120986D01*
X0136294Y0121085D01*
X0136002Y0121176D01*
X0135707Y0121260D01*
X0135411Y0121337D01*
X0135113Y0121407D01*
X0134813Y0121469D01*
X0134512Y0121524D01*
X0134210Y0121571D01*
X0133906Y0121611D01*
X0133602Y0121644D01*
X0133297Y0121669D01*
X0132991Y0121687D01*
X0132685Y0121697D01*
X0132379Y0121700D01*
X0132073Y0121695D01*
X0131767Y0121683D01*
X0131461Y0121663D01*
X0131157Y0121636D01*
X0130852Y0121601D01*
X0130549Y0121559D01*
X0130247Y0121510D01*
X0129946Y0121453D01*
X0129647Y0121388D01*
X0129349Y0121317D01*
X0129054Y0121238D01*
X0128760Y0121152D01*
X0128468Y0121059D01*
X0128179Y0120958D01*
X0127892Y0120851D01*
X0127608Y0120736D01*
X0127327Y0120615D01*
X0127049Y0120487D01*
X0126774Y0120352D01*
X0126503Y0120210D01*
X0126235Y0120062D01*
X0125971Y0119907D01*
X0125711Y0119746D01*
X0125455Y0119579D01*
X0125202Y0119405D01*
X0124955Y0119225D01*
X0124711Y0119039D01*
X0124473Y0118848D01*
X0124239Y0118650D01*
X0124010Y0118447D01*
X0123786Y0118238D01*
X0123567Y0118024D01*
X0123354Y0117804D01*
X0123146Y0117580D01*
X0122943Y0117350D01*
X0122747Y0117116D01*
X0122556Y0116876D01*
X0122371Y0116633D01*
X0122192Y0116384D01*
X0122019Y0116132D01*
X0121852Y0115875D01*
X0121692Y0115614D01*
X0121538Y0115349D01*
X0121391Y0115081D01*
X0121250Y0114809D01*
X0121116Y0114534D01*
X0120989Y0114255D01*
X0120868Y0113974D01*
X0120755Y0113689D01*
X0120649Y0113402D01*
X0120549Y0113113D01*
X0120457Y0112821D01*
X0120372Y0112527D01*
X0120294Y0112231D01*
X0120223Y0111933D01*
X0120160Y0111633D01*
X0120104Y0111332D01*
X0120056Y0111030D01*
X0120015Y0110727D01*
X0119981Y0110423D01*
X0119955Y0110118D01*
X0119936Y0109812D01*
X0119925Y0109506D01*
X0119921Y0109200D01*
X0119925Y0108894D01*
X0119936Y0108588D01*
X0119955Y0108282D01*
X0119981Y0107977D01*
X0120015Y0107673D01*
X0120056Y0107370D01*
X0120104Y0107068D01*
X0120160Y0106767D01*
X0120223Y0106467D01*
X0120294Y0106169D01*
X0120372Y0105873D01*
X0120457Y0105579D01*
X0120549Y0105287D01*
X0120649Y0104998D01*
X0120755Y0104711D01*
X0120868Y0104426D01*
X0120989Y0104145D01*
X0121116Y0103866D01*
X0121250Y0103591D01*
X0121391Y0103319D01*
X0121538Y0103051D01*
X0121692Y0102786D01*
X0121852Y0102525D01*
X0122019Y0102268D01*
X0122192Y0102016D01*
X0122371Y0101767D01*
X0122556Y0101524D01*
X0122747Y0101284D01*
X0122943Y0101050D01*
X0123146Y0100820D01*
X0123354Y0100596D01*
X0123567Y0100376D01*
X0123786Y0100162D01*
X0124010Y0099953D01*
X0124239Y0099750D01*
X0124473Y0099552D01*
X0124711Y0099361D01*
X0124955Y0099175D01*
X0125202Y0098995D01*
X0125455Y0098821D01*
X0125711Y0098654D01*
X0125971Y0098493D01*
X0126235Y0098338D01*
X0126503Y0098190D01*
X0126774Y0098048D01*
X0127049Y0097913D01*
X0127327Y0097785D01*
X0127608Y0097664D01*
X0127892Y0097549D01*
X0128179Y0097442D01*
X0128468Y0097341D01*
X0128760Y0097248D01*
X0129054Y0097162D01*
X0129349Y0097083D01*
X0129647Y0097012D01*
X0129946Y0096947D01*
X0130247Y0096890D01*
X0130549Y0096841D01*
X0130852Y0096799D01*
X0131157Y0096764D01*
X0131461Y0096737D01*
X0131767Y0096717D01*
X0132073Y0096705D01*
X0132379Y0096700D01*
X0132685Y0096703D01*
X0132991Y0096713D01*
X0133297Y0096731D01*
X0133602Y0096756D01*
X0133906Y0096789D01*
X0134210Y0096829D01*
X0134512Y0096876D01*
X0134813Y0096931D01*
X0135113Y0096993D01*
X0135411Y0097063D01*
X0135707Y0097140D01*
X0136002Y0097224D01*
X0136294Y0097315D01*
X0136584Y0097414D01*
X0136871Y0097519D01*
X0137156Y0097631D01*
X0137438Y0097751D01*
X0137717Y0097877D01*
X0137992Y0098010D01*
X0138265Y0098150D01*
X0138534Y0098296D01*
X0138799Y0098449D01*
X0139060Y0098609D01*
X0139317Y0098775D01*
X0139571Y0098947D01*
X0139820Y0099125D01*
X0140064Y0099309D01*
X0140304Y0099499D01*
X0140539Y0099695D01*
X0140770Y0099897D01*
X0140995Y0100104D01*
X0141215Y0100317D01*
X0141430Y0100535D01*
X0141639Y0100758D01*
X0141843Y0100986D01*
X0142042Y0101219D01*
X0142234Y0101457D01*
X0142421Y0101700D01*
X0239921Y0139200D02*
X0247421Y0139200D01*
X0247421Y0159200D01*
X0239921Y0159200D01*
X0062421Y0184200D02*
X0062234Y0183957D01*
X0062042Y0183719D01*
X0061843Y0183486D01*
X0061639Y0183258D01*
X0061430Y0183035D01*
X0061215Y0182817D01*
X0060995Y0182604D01*
X0060770Y0182397D01*
X0060539Y0182195D01*
X0060304Y0181999D01*
X0060064Y0181809D01*
X0059820Y0181625D01*
X0059571Y0181447D01*
X0059317Y0181275D01*
X0059060Y0181109D01*
X0058799Y0180949D01*
X0058534Y0180796D01*
X0058265Y0180650D01*
X0057992Y0180510D01*
X0057717Y0180377D01*
X0057438Y0180251D01*
X0057156Y0180131D01*
X0056871Y0180019D01*
X0056584Y0179914D01*
X0056294Y0179815D01*
X0056002Y0179724D01*
X0055707Y0179640D01*
X0055411Y0179563D01*
X0055113Y0179493D01*
X0054813Y0179431D01*
X0054512Y0179376D01*
X0054210Y0179329D01*
X0053906Y0179289D01*
X0053602Y0179256D01*
X0053297Y0179231D01*
X0052991Y0179213D01*
X0052685Y0179203D01*
X0052379Y0179200D01*
X0052073Y0179205D01*
X0051767Y0179217D01*
X0051461Y0179237D01*
X0051157Y0179264D01*
X0050852Y0179299D01*
X0050549Y0179341D01*
X0050247Y0179390D01*
X0049946Y0179447D01*
X0049647Y0179512D01*
X0049349Y0179583D01*
X0049054Y0179662D01*
X0048760Y0179748D01*
X0048468Y0179841D01*
X0048179Y0179942D01*
X0047892Y0180049D01*
X0047608Y0180164D01*
X0047327Y0180285D01*
X0047049Y0180413D01*
X0046774Y0180548D01*
X0046503Y0180690D01*
X0046235Y0180838D01*
X0045971Y0180993D01*
X0045711Y0181154D01*
X0045455Y0181321D01*
X0045202Y0181495D01*
X0044955Y0181675D01*
X0044711Y0181861D01*
X0044473Y0182052D01*
X0044239Y0182250D01*
X0044010Y0182453D01*
X0043786Y0182662D01*
X0043567Y0182876D01*
X0043354Y0183096D01*
X0043146Y0183320D01*
X0042943Y0183550D01*
X0042747Y0183784D01*
X0042556Y0184024D01*
X0042371Y0184267D01*
X0042192Y0184516D01*
X0042019Y0184768D01*
X0041852Y0185025D01*
X0041692Y0185286D01*
X0041538Y0185551D01*
X0041391Y0185819D01*
X0041250Y0186091D01*
X0041116Y0186366D01*
X0040989Y0186645D01*
X0040868Y0186926D01*
X0040755Y0187211D01*
X0040649Y0187498D01*
X0040549Y0187787D01*
X0040457Y0188079D01*
X0040372Y0188373D01*
X0040294Y0188669D01*
X0040223Y0188967D01*
X0040160Y0189267D01*
X0040104Y0189568D01*
X0040056Y0189870D01*
X0040015Y0190173D01*
X0039981Y0190477D01*
X0039955Y0190782D01*
X0039936Y0191088D01*
X0039925Y0191394D01*
X0039921Y0191700D01*
X0039925Y0192006D01*
X0039936Y0192312D01*
X0039955Y0192618D01*
X0039981Y0192923D01*
X0040015Y0193227D01*
X0040056Y0193530D01*
X0040104Y0193832D01*
X0040160Y0194133D01*
X0040223Y0194433D01*
X0040294Y0194731D01*
X0040372Y0195027D01*
X0040457Y0195321D01*
X0040549Y0195613D01*
X0040649Y0195902D01*
X0040755Y0196189D01*
X0040868Y0196474D01*
X0040989Y0196755D01*
X0041116Y0197034D01*
X0041250Y0197309D01*
X0041391Y0197581D01*
X0041538Y0197849D01*
X0041692Y0198114D01*
X0041852Y0198375D01*
X0042019Y0198632D01*
X0042192Y0198884D01*
X0042371Y0199133D01*
X0042556Y0199376D01*
X0042747Y0199616D01*
X0042943Y0199850D01*
X0043146Y0200080D01*
X0043354Y0200304D01*
X0043567Y0200524D01*
X0043786Y0200738D01*
X0044010Y0200947D01*
X0044239Y0201150D01*
X0044473Y0201348D01*
X0044711Y0201539D01*
X0044955Y0201725D01*
X0045202Y0201905D01*
X0045455Y0202079D01*
X0045711Y0202246D01*
X0045971Y0202407D01*
X0046235Y0202562D01*
X0046503Y0202710D01*
X0046774Y0202852D01*
X0047049Y0202987D01*
X0047327Y0203115D01*
X0047608Y0203236D01*
X0047892Y0203351D01*
X0048179Y0203458D01*
X0048468Y0203559D01*
X0048760Y0203652D01*
X0049054Y0203738D01*
X0049349Y0203817D01*
X0049647Y0203888D01*
X0049946Y0203953D01*
X0050247Y0204010D01*
X0050549Y0204059D01*
X0050852Y0204101D01*
X0051157Y0204136D01*
X0051461Y0204163D01*
X0051767Y0204183D01*
X0052073Y0204195D01*
X0052379Y0204200D01*
X0052685Y0204197D01*
X0052991Y0204187D01*
X0053297Y0204169D01*
X0053602Y0204144D01*
X0053906Y0204111D01*
X0054210Y0204071D01*
X0054512Y0204024D01*
X0054813Y0203969D01*
X0055113Y0203907D01*
X0055411Y0203837D01*
X0055707Y0203760D01*
X0056002Y0203676D01*
X0056294Y0203585D01*
X0056584Y0203486D01*
X0056871Y0203381D01*
X0057156Y0203269D01*
X0057438Y0203149D01*
X0057717Y0203023D01*
X0057992Y0202890D01*
X0058265Y0202750D01*
X0058534Y0202604D01*
X0058799Y0202451D01*
X0059060Y0202291D01*
X0059317Y0202125D01*
X0059571Y0201953D01*
X0059820Y0201775D01*
X0060064Y0201591D01*
X0060304Y0201401D01*
X0060539Y0201205D01*
X0060770Y0201003D01*
X0060995Y0200796D01*
X0061215Y0200583D01*
X0061430Y0200365D01*
X0061639Y0200142D01*
X0061843Y0199914D01*
X0062042Y0199681D01*
X0062234Y0199443D01*
X0062421Y0199200D01*
X0057421Y0029200D02*
X0057234Y0029443D01*
X0057042Y0029681D01*
X0056843Y0029914D01*
X0056639Y0030142D01*
X0056430Y0030365D01*
X0056215Y0030583D01*
X0055995Y0030796D01*
X0055770Y0031003D01*
X0055539Y0031205D01*
X0055304Y0031401D01*
X0055064Y0031591D01*
X0054820Y0031775D01*
X0054571Y0031953D01*
X0054317Y0032125D01*
X0054060Y0032291D01*
X0053799Y0032451D01*
X0053534Y0032604D01*
X0053265Y0032750D01*
X0052992Y0032890D01*
X0052717Y0033023D01*
X0052438Y0033149D01*
X0052156Y0033269D01*
X0051871Y0033381D01*
X0051584Y0033486D01*
X0051294Y0033585D01*
X0051002Y0033676D01*
X0050707Y0033760D01*
X0050411Y0033837D01*
X0050113Y0033907D01*
X0049813Y0033969D01*
X0049512Y0034024D01*
X0049210Y0034071D01*
X0048906Y0034111D01*
X0048602Y0034144D01*
X0048297Y0034169D01*
X0047991Y0034187D01*
X0047685Y0034197D01*
X0047379Y0034200D01*
X0047073Y0034195D01*
X0046767Y0034183D01*
X0046461Y0034163D01*
X0046157Y0034136D01*
X0045852Y0034101D01*
X0045549Y0034059D01*
X0045247Y0034010D01*
X0044946Y0033953D01*
X0044647Y0033888D01*
X0044349Y0033817D01*
X0044054Y0033738D01*
X0043760Y0033652D01*
X0043468Y0033559D01*
X0043179Y0033458D01*
X0042892Y0033351D01*
X0042608Y0033236D01*
X0042327Y0033115D01*
X0042049Y0032987D01*
X0041774Y0032852D01*
X0041503Y0032710D01*
X0041235Y0032562D01*
X0040971Y0032407D01*
X0040711Y0032246D01*
X0040455Y0032079D01*
X0040202Y0031905D01*
X0039955Y0031725D01*
X0039711Y0031539D01*
X0039473Y0031348D01*
X0039239Y0031150D01*
X0039010Y0030947D01*
X0038786Y0030738D01*
X0038567Y0030524D01*
X0038354Y0030304D01*
X0038146Y0030080D01*
X0037943Y0029850D01*
X0037747Y0029616D01*
X0037556Y0029376D01*
X0037371Y0029133D01*
X0037192Y0028884D01*
X0037019Y0028632D01*
X0036852Y0028375D01*
X0036692Y0028114D01*
X0036538Y0027849D01*
X0036391Y0027581D01*
X0036250Y0027309D01*
X0036116Y0027034D01*
X0035989Y0026755D01*
X0035868Y0026474D01*
X0035755Y0026189D01*
X0035649Y0025902D01*
X0035549Y0025613D01*
X0035457Y0025321D01*
X0035372Y0025027D01*
X0035294Y0024731D01*
X0035223Y0024433D01*
X0035160Y0024133D01*
X0035104Y0023832D01*
X0035056Y0023530D01*
X0035015Y0023227D01*
X0034981Y0022923D01*
X0034955Y0022618D01*
X0034936Y0022312D01*
X0034925Y0022006D01*
X0034921Y0021700D01*
X0034925Y0021394D01*
X0034936Y0021088D01*
X0034955Y0020782D01*
X0034981Y0020477D01*
X0035015Y0020173D01*
X0035056Y0019870D01*
X0035104Y0019568D01*
X0035160Y0019267D01*
X0035223Y0018967D01*
X0035294Y0018669D01*
X0035372Y0018373D01*
X0035457Y0018079D01*
X0035549Y0017787D01*
X0035649Y0017498D01*
X0035755Y0017211D01*
X0035868Y0016926D01*
X0035989Y0016645D01*
X0036116Y0016366D01*
X0036250Y0016091D01*
X0036391Y0015819D01*
X0036538Y0015551D01*
X0036692Y0015286D01*
X0036852Y0015025D01*
X0037019Y0014768D01*
X0037192Y0014516D01*
X0037371Y0014267D01*
X0037556Y0014024D01*
X0037747Y0013784D01*
X0037943Y0013550D01*
X0038146Y0013320D01*
X0038354Y0013096D01*
X0038567Y0012876D01*
X0038786Y0012662D01*
X0039010Y0012453D01*
X0039239Y0012250D01*
X0039473Y0012052D01*
X0039711Y0011861D01*
X0039955Y0011675D01*
X0040202Y0011495D01*
X0040455Y0011321D01*
X0040711Y0011154D01*
X0040971Y0010993D01*
X0041235Y0010838D01*
X0041503Y0010690D01*
X0041774Y0010548D01*
X0042049Y0010413D01*
X0042327Y0010285D01*
X0042608Y0010164D01*
X0042892Y0010049D01*
X0043179Y0009942D01*
X0043468Y0009841D01*
X0043760Y0009748D01*
X0044054Y0009662D01*
X0044349Y0009583D01*
X0044647Y0009512D01*
X0044946Y0009447D01*
X0045247Y0009390D01*
X0045549Y0009341D01*
X0045852Y0009299D01*
X0046157Y0009264D01*
X0046461Y0009237D01*
X0046767Y0009217D01*
X0047073Y0009205D01*
X0047379Y0009200D01*
X0047685Y0009203D01*
X0047991Y0009213D01*
X0048297Y0009231D01*
X0048602Y0009256D01*
X0048906Y0009289D01*
X0049210Y0009329D01*
X0049512Y0009376D01*
X0049813Y0009431D01*
X0050113Y0009493D01*
X0050411Y0009563D01*
X0050707Y0009640D01*
X0051002Y0009724D01*
X0051294Y0009815D01*
X0051584Y0009914D01*
X0051871Y0010019D01*
X0052156Y0010131D01*
X0052438Y0010251D01*
X0052717Y0010377D01*
X0052992Y0010510D01*
X0053265Y0010650D01*
X0053534Y0010796D01*
X0053799Y0010949D01*
X0054060Y0011109D01*
X0054317Y0011275D01*
X0054571Y0011447D01*
X0054820Y0011625D01*
X0055064Y0011809D01*
X0055304Y0011999D01*
X0055539Y0012195D01*
X0055770Y0012397D01*
X0055995Y0012604D01*
X0056215Y0012817D01*
X0056430Y0013035D01*
X0056639Y0013258D01*
X0056843Y0013486D01*
X0057042Y0013719D01*
X0057234Y0013957D01*
X0057421Y0014200D01*
D15*
X0274921Y0071700D02*
X0279421Y0076200D01*
X0279421Y0067200D01*
X0274921Y0071700D01*
X0274996Y0071626D02*
X0279421Y0071626D01*
X0279421Y0073024D02*
X0276246Y0073024D01*
X0277644Y0074423D02*
X0279421Y0074423D01*
X0279421Y0075821D02*
X0279043Y0075821D01*
X0279421Y0070227D02*
X0276394Y0070227D01*
X0277793Y0068829D02*
X0279421Y0068829D01*
X0279421Y0067430D02*
X0279191Y0067430D01*
D16*
X0230171Y0079247D02*
X0227669Y0079247D01*
X0227669Y0080498D01*
X0228086Y0080915D01*
X0228920Y0080915D01*
X0229337Y0080498D01*
X0229337Y0079247D01*
X0230171Y0082010D02*
X0230171Y0082844D01*
X0230171Y0082427D02*
X0227669Y0082427D01*
X0227669Y0082010D02*
X0227669Y0082844D01*
X0228086Y0083851D02*
X0229754Y0083851D01*
X0230171Y0084268D01*
X0230171Y0085102D01*
X0229754Y0085519D01*
X0230171Y0086613D02*
X0230171Y0088282D01*
X0230171Y0087448D02*
X0227669Y0087448D01*
X0228503Y0086613D01*
X0228086Y0085519D02*
X0227669Y0085102D01*
X0227669Y0084268D01*
X0228086Y0083851D01*
X0228920Y0089376D02*
X0228920Y0090627D01*
X0229337Y0091044D01*
X0229754Y0091044D01*
X0230171Y0090627D01*
X0230171Y0089793D01*
X0229754Y0089376D01*
X0228920Y0089376D01*
X0228086Y0090210D01*
X0227669Y0091044D01*
X0227669Y0092138D02*
X0227669Y0093806D01*
X0228503Y0094901D02*
X0227669Y0095735D01*
X0230171Y0095735D01*
X0230171Y0094901D02*
X0230171Y0096569D01*
X0230171Y0097663D02*
X0229754Y0097663D01*
X0228086Y0099331D01*
X0227669Y0099331D01*
X0227669Y0097663D01*
X0228086Y0100425D02*
X0227669Y0100842D01*
X0227669Y0101676D01*
X0228086Y0102093D01*
X0229754Y0100425D01*
X0230171Y0100842D01*
X0230171Y0101676D01*
X0229754Y0102093D01*
X0228086Y0102093D01*
X0227669Y0103188D02*
X0228920Y0103188D01*
X0228503Y0104022D01*
X0228503Y0104439D01*
X0228920Y0104856D01*
X0229754Y0104856D01*
X0230171Y0104439D01*
X0230171Y0103605D01*
X0229754Y0103188D01*
X0227669Y0103188D02*
X0227669Y0104856D01*
X0228086Y0100425D02*
X0229754Y0100425D01*
X0228920Y0092972D02*
X0228920Y0092138D01*
X0230171Y0092138D02*
X0227669Y0092138D01*
X0226875Y0160950D02*
X0228543Y0163452D01*
X0229637Y0162618D02*
X0229637Y0162201D01*
X0230054Y0162201D01*
X0230054Y0162618D01*
X0229637Y0162618D01*
X0229637Y0161367D02*
X0229637Y0160950D01*
X0230054Y0160950D01*
X0230054Y0161367D01*
X0229637Y0161367D01*
X0228543Y0160950D02*
X0226875Y0163452D01*
X0225780Y0163035D02*
X0225363Y0163452D01*
X0224112Y0163452D01*
X0224112Y0160950D01*
X0224112Y0161784D02*
X0225363Y0161784D01*
X0225780Y0162201D01*
X0225780Y0163035D01*
X0224946Y0161784D02*
X0225780Y0160950D01*
X0233780Y0160950D02*
X0233780Y0163452D01*
X0235032Y0163452D01*
X0235449Y0163035D01*
X0235449Y0162201D01*
X0235032Y0161784D01*
X0233780Y0161784D01*
X0236543Y0160950D02*
X0237377Y0160950D01*
X0236960Y0160950D02*
X0236960Y0162618D01*
X0236543Y0162618D01*
X0236960Y0163452D02*
X0236960Y0163869D01*
X0238384Y0162618D02*
X0239635Y0162618D01*
X0240052Y0162201D01*
X0240052Y0160950D01*
X0238384Y0160950D02*
X0238384Y0162618D01*
X0243909Y0163035D02*
X0244326Y0163452D01*
X0245160Y0163452D01*
X0245577Y0163035D01*
X0245577Y0162618D01*
X0243909Y0160950D01*
X0245577Y0160950D01*
X0254112Y0160950D02*
X0254112Y0163452D01*
X0255363Y0163452D01*
X0255780Y0163035D01*
X0255780Y0162201D01*
X0255363Y0161784D01*
X0254112Y0161784D01*
X0254946Y0161784D02*
X0255780Y0160950D01*
X0256875Y0160950D02*
X0258543Y0163452D01*
X0259637Y0162618D02*
X0259637Y0162201D01*
X0260054Y0162201D01*
X0260054Y0162618D01*
X0259637Y0162618D01*
X0259637Y0161367D02*
X0259637Y0160950D01*
X0260054Y0160950D01*
X0260054Y0161367D01*
X0259637Y0161367D01*
X0258543Y0160950D02*
X0256875Y0163452D01*
X0263780Y0163452D02*
X0263780Y0160950D01*
X0263780Y0161784D02*
X0265032Y0161784D01*
X0265449Y0162201D01*
X0265449Y0163035D01*
X0265032Y0163452D01*
X0263780Y0163452D01*
X0266543Y0162618D02*
X0266960Y0162618D01*
X0266960Y0160950D01*
X0266543Y0160950D02*
X0267377Y0160950D01*
X0268384Y0160950D02*
X0268384Y0162618D01*
X0269635Y0162618D01*
X0270052Y0162201D01*
X0270052Y0160950D01*
X0273909Y0161367D02*
X0275577Y0163035D01*
X0275577Y0161367D01*
X0275160Y0160950D01*
X0274326Y0160950D01*
X0273909Y0161367D01*
X0273909Y0163035D01*
X0274326Y0163452D01*
X0275160Y0163452D01*
X0275577Y0163035D01*
X0266960Y0163452D02*
X0266960Y0163869D01*
X0215577Y0163452D02*
X0215577Y0163035D01*
X0213909Y0161367D01*
X0213909Y0160950D01*
X0213909Y0163452D02*
X0215577Y0163452D01*
X0210052Y0162201D02*
X0210052Y0160950D01*
X0210052Y0162201D02*
X0209635Y0162618D01*
X0208384Y0162618D01*
X0208384Y0160950D01*
X0207377Y0160950D02*
X0206543Y0160950D01*
X0206960Y0160950D02*
X0206960Y0162618D01*
X0206543Y0162618D01*
X0206960Y0163452D02*
X0206960Y0163869D01*
X0205449Y0163035D02*
X0205449Y0162201D01*
X0205032Y0161784D01*
X0203780Y0161784D01*
X0203780Y0160950D02*
X0203780Y0163452D01*
X0205032Y0163452D01*
X0205449Y0163035D01*
X0200054Y0162618D02*
X0200054Y0162201D01*
X0199637Y0162201D01*
X0199637Y0162618D01*
X0200054Y0162618D01*
X0200054Y0161367D02*
X0200054Y0160950D01*
X0199637Y0160950D01*
X0199637Y0161367D01*
X0200054Y0161367D01*
X0198543Y0160950D02*
X0196875Y0163452D01*
X0195780Y0163035D02*
X0195363Y0163452D01*
X0194112Y0163452D01*
X0194112Y0160950D01*
X0194112Y0161784D02*
X0195363Y0161784D01*
X0195780Y0162201D01*
X0195780Y0163035D01*
X0194946Y0161784D02*
X0195780Y0160950D01*
X0196875Y0160950D02*
X0198543Y0163452D01*
X0187077Y0163035D02*
X0185409Y0161367D01*
X0185826Y0160950D01*
X0186660Y0160950D01*
X0187077Y0161367D01*
X0187077Y0163035D01*
X0186660Y0163452D01*
X0185826Y0163452D01*
X0185409Y0163035D01*
X0185409Y0161367D01*
X0184315Y0160950D02*
X0182647Y0160950D01*
X0183481Y0160950D02*
X0183481Y0163452D01*
X0182647Y0162618D01*
X0178790Y0162201D02*
X0178790Y0160950D01*
X0178790Y0162201D02*
X0178373Y0162618D01*
X0177122Y0162618D01*
X0177122Y0160950D01*
X0176114Y0160950D02*
X0175280Y0160950D01*
X0175697Y0160950D02*
X0175697Y0162618D01*
X0175280Y0162618D01*
X0175697Y0163452D02*
X0175697Y0163869D01*
X0174186Y0163035D02*
X0173769Y0163452D01*
X0172518Y0163452D01*
X0172518Y0160950D01*
X0172518Y0161784D02*
X0173769Y0161784D01*
X0174186Y0162201D01*
X0174186Y0163035D01*
X0168792Y0162618D02*
X0168792Y0162201D01*
X0168375Y0162201D01*
X0168375Y0162618D01*
X0168792Y0162618D01*
X0168792Y0161367D02*
X0168792Y0160950D01*
X0168375Y0160950D01*
X0168375Y0161367D01*
X0168792Y0161367D01*
X0167280Y0160950D02*
X0165612Y0163452D01*
X0164518Y0163035D02*
X0164518Y0162201D01*
X0164101Y0161784D01*
X0162850Y0161784D01*
X0163684Y0161784D02*
X0164518Y0160950D01*
X0165612Y0160950D02*
X0167280Y0163452D01*
X0164518Y0163035D02*
X0164101Y0163452D01*
X0162850Y0163452D01*
X0162850Y0160950D01*
X0087418Y0110759D02*
X0087614Y0055641D01*
X0032103Y0055641D02*
X0032103Y0110759D01*
D17*
X0065421Y0123900D03*
X0060221Y0152300D03*
X0060221Y0152400D03*
X0060221Y0152500D03*
X0063521Y0155100D03*
X0061721Y0156800D03*
X0064521Y0162300D03*
X0064421Y0169300D03*
X0060321Y0171200D03*
X0059521Y0168400D03*
X0072321Y0166700D03*
X0082921Y0161800D03*
X0080921Y0154600D03*
D18*
X0081271Y0154400D03*
X0081271Y0154300D03*
X0065271Y0159300D03*
X0061571Y0156700D03*
X0061571Y0156600D03*
X0061571Y0156500D03*
X0061671Y0156400D03*
X0061771Y0155900D03*
X0061971Y0155600D03*
X0061971Y0155500D03*
X0060271Y0152100D03*
X0064471Y0169200D03*
X0060371Y0171000D03*
X0065471Y0124000D03*
D19*
X0066921Y0124000D03*
X0072621Y0125400D03*
X0085421Y0146700D03*
X0072321Y0166600D03*
X0070521Y0166100D03*
X0060321Y0171100D03*
D20*
X0064521Y0156300D03*
X0062521Y0154600D03*
X0083921Y0164200D03*
X0066221Y0124100D03*
D21*
X0066271Y0124200D03*
X0059871Y0170100D03*
D22*
X0066271Y0124300D03*
D23*
X0066421Y0124400D03*
X0082121Y0162700D03*
X0082321Y0162800D03*
X0072021Y0165500D03*
X0059921Y0169700D03*
D24*
X0064371Y0169900D03*
X0064471Y0169400D03*
X0065871Y0168100D03*
X0066171Y0167700D03*
X0066271Y0167400D03*
X0066271Y0167300D03*
X0066371Y0167100D03*
X0062971Y0164300D03*
X0062971Y0164200D03*
X0073571Y0166100D03*
X0073571Y0166200D03*
X0080971Y0154500D03*
X0081671Y0154800D03*
X0063371Y0155200D03*
X0063171Y0155300D03*
X0060871Y0154100D03*
X0060771Y0154200D03*
X0060171Y0152700D03*
X0060171Y0152600D03*
X0063271Y0124500D03*
X0070371Y0124700D03*
D25*
X0066171Y0124500D03*
X0072271Y0165100D03*
X0063671Y0167100D03*
X0063571Y0167200D03*
X0063571Y0167300D03*
X0063171Y0167800D03*
X0063171Y0167900D03*
X0063071Y0168000D03*
X0063071Y0168100D03*
D26*
X0064121Y0169700D03*
X0064121Y0169800D03*
X0064421Y0170000D03*
X0061321Y0170300D03*
X0067421Y0167100D03*
X0069121Y0165400D03*
X0069721Y0165500D03*
X0070621Y0165800D03*
X0061921Y0157700D03*
X0063021Y0156600D03*
X0060621Y0154500D03*
X0060621Y0154400D03*
X0060121Y0153100D03*
X0060121Y0153000D03*
X0081421Y0152300D03*
X0081421Y0152200D03*
X0081421Y0152100D03*
X0081421Y0152000D03*
X0081721Y0152800D03*
X0081721Y0155100D03*
X0082921Y0161700D03*
X0084021Y0144500D03*
X0069321Y0124500D03*
X0056321Y0127900D03*
D27*
X0066071Y0124600D03*
X0064871Y0166500D03*
X0061771Y0168600D03*
D28*
X0066071Y0124700D03*
D29*
X0066021Y0124800D03*
X0065421Y0165500D03*
D30*
X0063471Y0158400D03*
X0061671Y0157500D03*
X0061671Y0157400D03*
X0061671Y0157300D03*
X0061771Y0157200D03*
X0061771Y0157100D03*
X0061771Y0157000D03*
X0061771Y0156900D03*
X0060271Y0152200D03*
X0082171Y0161500D03*
X0057071Y0128000D03*
X0070471Y0124800D03*
D31*
X0065971Y0124900D03*
D32*
X0070471Y0124900D03*
X0060371Y0151900D03*
X0062071Y0155200D03*
X0061871Y0155800D03*
X0064571Y0156000D03*
X0069371Y0166500D03*
D33*
X0066621Y0125000D03*
D34*
X0066621Y0125100D03*
D35*
X0066621Y0125200D03*
D36*
X0066571Y0125300D03*
D37*
X0072771Y0125300D03*
X0058371Y0126300D03*
X0085571Y0146800D03*
X0080971Y0154700D03*
X0073471Y0166400D03*
X0069371Y0165500D03*
X0068571Y0165400D03*
X0065771Y0168300D03*
X0064571Y0169600D03*
X0064571Y0169700D03*
X0064471Y0169800D03*
X0060271Y0171300D03*
X0062871Y0158300D03*
X0061871Y0158000D03*
X0061871Y0157900D03*
X0061871Y0157800D03*
X0061871Y0157600D03*
X0060171Y0152900D03*
X0060171Y0152800D03*
X0061371Y0152200D03*
X0066171Y0155000D03*
D38*
X0066621Y0125400D03*
D39*
X0066921Y0125500D03*
X0070121Y0163900D03*
D40*
X0070271Y0163600D03*
X0070371Y0163500D03*
X0066771Y0125600D03*
D41*
X0066621Y0125700D03*
X0070521Y0163200D03*
X0068621Y0164600D03*
D42*
X0068471Y0164800D03*
X0070671Y0163000D03*
X0066571Y0125800D03*
D43*
X0066471Y0125900D03*
X0073771Y0155400D03*
X0073771Y0155500D03*
X0073771Y0155600D03*
X0073671Y0155700D03*
X0073671Y0155800D03*
X0073571Y0159700D03*
X0070771Y0162800D03*
D44*
X0070971Y0162600D03*
X0073671Y0159400D03*
X0073471Y0155100D03*
X0066371Y0126000D03*
D45*
X0066221Y0126100D03*
X0073421Y0155000D03*
X0073721Y0158900D03*
X0073521Y0160400D03*
D46*
X0073521Y0166300D03*
X0069321Y0166600D03*
X0066321Y0167200D03*
X0066221Y0167500D03*
X0066221Y0167600D03*
X0066121Y0167800D03*
X0066021Y0167900D03*
X0065921Y0168000D03*
X0065821Y0168200D03*
X0064621Y0169500D03*
X0063621Y0169000D03*
X0064521Y0162200D03*
X0062521Y0156900D03*
X0063121Y0156500D03*
X0060721Y0154300D03*
X0081521Y0154500D03*
X0081621Y0154600D03*
X0081621Y0154700D03*
X0081721Y0154900D03*
X0081721Y0155000D03*
X0058821Y0126300D03*
X0058821Y0126200D03*
X0056421Y0128000D03*
D47*
X0066121Y0126200D03*
X0073721Y0158800D03*
X0073521Y0160500D03*
D48*
X0072271Y0166400D03*
X0060271Y0170500D03*
X0060671Y0151400D03*
X0057271Y0126300D03*
D49*
X0066171Y0126300D03*
X0073471Y0160600D03*
D50*
X0074271Y0161600D03*
X0074171Y0161700D03*
X0071871Y0156500D03*
X0065371Y0126900D03*
X0065371Y0126800D03*
X0065271Y0126700D03*
X0064971Y0126400D03*
D51*
X0065121Y0126500D03*
X0065221Y0126600D03*
D52*
X0065421Y0127000D03*
X0071821Y0156600D03*
X0074021Y0161800D03*
D53*
X0065721Y0127400D03*
X0065621Y0127200D03*
X0065621Y0127100D03*
D54*
X0065671Y0127300D03*
X0071771Y0156400D03*
D55*
X0071571Y0156700D03*
X0071471Y0156900D03*
X0065771Y0127500D03*
D56*
X0065921Y0127600D03*
X0071521Y0156800D03*
D57*
X0071371Y0157900D03*
X0071371Y0158000D03*
X0065971Y0127700D03*
D58*
X0066071Y0127800D03*
X0074371Y0161900D03*
D59*
X0074371Y0162000D03*
X0066271Y0127900D03*
D60*
X0066671Y0128000D03*
D61*
X0066071Y0128100D03*
X0066071Y0128200D03*
X0066071Y0128300D03*
X0066171Y0128600D03*
X0066171Y0128700D03*
X0066671Y0130200D03*
X0066671Y0130300D03*
X0071471Y0152200D03*
X0071471Y0152300D03*
X0071471Y0152400D03*
X0070971Y0154300D03*
D62*
X0070921Y0154400D03*
X0071521Y0152500D03*
X0066321Y0129400D03*
X0066221Y0129100D03*
X0066221Y0129000D03*
X0066221Y0128900D03*
X0066221Y0128800D03*
X0066121Y0128500D03*
X0066121Y0128400D03*
D63*
X0066271Y0129200D03*
X0066271Y0129300D03*
X0066371Y0129500D03*
X0066371Y0129600D03*
X0066371Y0129700D03*
X0066471Y0130100D03*
X0070871Y0154500D03*
D64*
X0066421Y0130000D03*
X0066421Y0129900D03*
X0066421Y0129800D03*
D65*
X0066721Y0130400D03*
X0066721Y0130500D03*
X0066821Y0130600D03*
X0066821Y0130700D03*
X0071521Y0151300D03*
D66*
X0071571Y0151400D03*
X0071271Y0152100D03*
X0071571Y0152600D03*
X0071571Y0152700D03*
X0066971Y0131000D03*
X0066871Y0130900D03*
X0066871Y0130800D03*
D67*
X0067021Y0131100D03*
X0067021Y0131200D03*
X0071521Y0151500D03*
X0071521Y0151600D03*
X0071521Y0151700D03*
X0071321Y0152000D03*
D68*
X0071471Y0151900D03*
X0071471Y0151800D03*
X0071571Y0152800D03*
X0068371Y0137700D03*
X0068271Y0137000D03*
X0068171Y0136400D03*
X0067171Y0131500D03*
X0067171Y0131400D03*
X0067071Y0131300D03*
D69*
X0067221Y0131600D03*
X0067221Y0131700D03*
X0068221Y0136500D03*
X0068221Y0136600D03*
X0068221Y0136700D03*
X0068221Y0136800D03*
X0068221Y0136900D03*
X0068321Y0137100D03*
X0068321Y0137200D03*
X0068321Y0137300D03*
X0068321Y0137400D03*
X0068321Y0137500D03*
X0068321Y0137600D03*
X0068421Y0137800D03*
X0068421Y0137900D03*
X0068421Y0138000D03*
D70*
X0068171Y0136300D03*
X0067371Y0132000D03*
X0067371Y0131900D03*
X0067271Y0131800D03*
X0071371Y0154100D03*
D71*
X0071321Y0154200D03*
X0071721Y0152900D03*
X0068521Y0138100D03*
X0067521Y0132300D03*
X0067421Y0132200D03*
X0067421Y0132100D03*
D72*
X0067571Y0132400D03*
X0067571Y0132500D03*
X0067671Y0132700D03*
X0071671Y0153000D03*
D73*
X0071621Y0153100D03*
X0068721Y0138400D03*
X0068621Y0138300D03*
X0068621Y0138200D03*
X0067721Y0132900D03*
X0067721Y0132800D03*
X0067621Y0132600D03*
D74*
X0067771Y0133000D03*
X0067871Y0133200D03*
X0068271Y0135200D03*
X0068271Y0135300D03*
X0068271Y0135400D03*
X0068371Y0135700D03*
X0068371Y0135800D03*
X0068371Y0135900D03*
X0068371Y0136000D03*
X0068371Y0136100D03*
X0068371Y0136200D03*
X0071671Y0153200D03*
X0071671Y0153300D03*
X0071571Y0153500D03*
X0071471Y0153600D03*
D75*
X0071421Y0153700D03*
X0071621Y0153400D03*
X0068821Y0138500D03*
X0068321Y0135600D03*
X0068321Y0135500D03*
X0068221Y0135100D03*
X0068221Y0135000D03*
X0068221Y0134900D03*
X0068221Y0134800D03*
X0068221Y0134700D03*
X0068121Y0134600D03*
X0068121Y0134500D03*
X0068121Y0134400D03*
X0068121Y0134300D03*
X0068121Y0134200D03*
X0068021Y0133900D03*
X0068021Y0133800D03*
X0067921Y0133400D03*
X0067921Y0133300D03*
X0067821Y0133100D03*
D76*
X0067971Y0133500D03*
X0067971Y0133600D03*
X0067971Y0133700D03*
X0068071Y0134000D03*
X0068071Y0134100D03*
X0068871Y0138600D03*
D77*
X0068921Y0138700D03*
X0071321Y0153800D03*
D78*
X0068971Y0138800D03*
D79*
X0069021Y0138900D03*
X0069121Y0139100D03*
X0071421Y0153900D03*
X0071321Y0154000D03*
D80*
X0069171Y0139200D03*
X0069071Y0139000D03*
D81*
X0069221Y0139300D03*
D82*
X0069371Y0139400D03*
X0070471Y0150700D03*
X0070471Y0150800D03*
X0070571Y0151100D03*
D83*
X0070371Y0150400D03*
X0069471Y0139500D03*
D84*
X0069771Y0139600D03*
X0069971Y0141400D03*
X0070071Y0142800D03*
X0070571Y0149400D03*
D85*
X0070621Y0149300D03*
X0070621Y0149200D03*
X0070121Y0142900D03*
X0069821Y0139700D03*
D86*
X0069921Y0139800D03*
X0070021Y0139900D03*
X0070021Y0140000D03*
X0070321Y0143200D03*
X0070621Y0149100D03*
D87*
X0070371Y0143300D03*
X0070171Y0141200D03*
X0070071Y0140200D03*
X0070071Y0140100D03*
D88*
X0070121Y0140300D03*
X0070221Y0141100D03*
D89*
X0070171Y0140400D03*
X0070471Y0143400D03*
D90*
X0070321Y0141000D03*
X0070321Y0140900D03*
X0070321Y0140800D03*
X0070221Y0140600D03*
X0070221Y0140500D03*
D91*
X0070271Y0140700D03*
D92*
X0070071Y0141300D03*
X0070171Y0143000D03*
X0070271Y0143100D03*
D93*
X0070021Y0142700D03*
X0070021Y0142600D03*
X0070021Y0142500D03*
X0069921Y0141600D03*
X0069921Y0141500D03*
D94*
X0069921Y0141700D03*
X0069921Y0141800D03*
X0069921Y0141900D03*
X0070521Y0149600D03*
X0070521Y0149700D03*
D95*
X0070571Y0149500D03*
X0069971Y0142400D03*
X0069971Y0142300D03*
X0069971Y0142200D03*
X0069971Y0142100D03*
X0069971Y0142000D03*
D96*
X0070621Y0143500D03*
X0070721Y0148600D03*
X0070721Y0148700D03*
X0070421Y0149000D03*
D97*
X0070471Y0148800D03*
X0070871Y0148200D03*
X0070871Y0148100D03*
X0070871Y0148000D03*
X0070771Y0143600D03*
D98*
X0070871Y0143700D03*
X0070971Y0147700D03*
X0070971Y0147800D03*
D99*
X0071071Y0147500D03*
X0071071Y0147400D03*
X0070971Y0143800D03*
D100*
X0071021Y0143900D03*
X0071121Y0147200D03*
X0071121Y0147300D03*
D101*
X0071171Y0147100D03*
X0071071Y0144000D03*
D102*
X0071171Y0144100D03*
X0071271Y0146800D03*
X0071271Y0146900D03*
D103*
X0071221Y0144200D03*
D104*
X0071271Y0144300D03*
D105*
X0071321Y0144400D03*
D106*
X0071371Y0144500D03*
D107*
X0071721Y0144600D03*
D108*
X0071771Y0144700D03*
D109*
X0071921Y0144800D03*
D110*
X0072021Y0144900D03*
X0072121Y0145200D03*
D111*
X0072071Y0145100D03*
X0072071Y0145000D03*
X0072171Y0145300D03*
X0072171Y0145400D03*
X0072171Y0145500D03*
D112*
X0072221Y0145600D03*
X0072221Y0145700D03*
D113*
X0072271Y0145800D03*
X0072271Y0145900D03*
X0072271Y0146000D03*
X0072271Y0146100D03*
D114*
X0072321Y0146200D03*
X0072321Y0146300D03*
X0072321Y0146400D03*
D115*
X0072371Y0146500D03*
D116*
X0071771Y0146600D03*
D117*
X0060621Y0151600D03*
X0060621Y0151700D03*
X0060521Y0151800D03*
X0065121Y0159200D03*
X0067321Y0167000D03*
X0064521Y0169000D03*
X0060421Y0170800D03*
X0072321Y0166500D03*
X0085221Y0146600D03*
D118*
X0071571Y0146700D03*
D119*
X0071221Y0147000D03*
D120*
X0071021Y0147600D03*
D121*
X0070921Y0147900D03*
D122*
X0070821Y0148300D03*
X0070821Y0148400D03*
X0070421Y0148900D03*
D123*
X0070771Y0148500D03*
D124*
X0070521Y0149800D03*
X0070521Y0149900D03*
X0070521Y0150000D03*
X0070421Y0150100D03*
X0070421Y0150200D03*
X0070421Y0150300D03*
D125*
X0070421Y0150500D03*
X0070421Y0150600D03*
D126*
X0070521Y0150900D03*
X0070521Y0151000D03*
X0070621Y0151200D03*
D127*
X0060671Y0151300D03*
X0072171Y0166300D03*
X0060271Y0170400D03*
D128*
X0083971Y0164500D03*
X0060671Y0151500D03*
D129*
X0060321Y0152000D03*
X0062021Y0155300D03*
X0062021Y0155400D03*
X0061921Y0155700D03*
X0061721Y0156000D03*
X0061721Y0156100D03*
X0061721Y0156200D03*
X0061721Y0156300D03*
X0063921Y0155000D03*
X0063521Y0158300D03*
X0064521Y0169100D03*
X0060421Y0170900D03*
D130*
X0072371Y0158700D03*
X0072071Y0154700D03*
X0072171Y0154600D03*
D131*
X0062421Y0154700D03*
X0069721Y0166200D03*
X0084021Y0164300D03*
D132*
X0062421Y0154800D03*
D133*
X0072021Y0154800D03*
D134*
X0064421Y0156100D03*
X0063421Y0158100D03*
X0065121Y0159100D03*
X0062421Y0154900D03*
D135*
X0062321Y0155000D03*
X0064321Y0154900D03*
X0063421Y0158200D03*
X0069121Y0166100D03*
X0060321Y0170600D03*
X0060321Y0170700D03*
D136*
X0073021Y0154900D03*
D137*
X0062221Y0155100D03*
X0067421Y0166900D03*
X0069421Y0166400D03*
D138*
X0073521Y0160200D03*
X0073521Y0160100D03*
X0073721Y0159600D03*
X0073721Y0159500D03*
X0073621Y0155200D03*
D139*
X0073721Y0155300D03*
X0073521Y0159800D03*
X0073521Y0159900D03*
X0073521Y0160000D03*
D140*
X0070721Y0162900D03*
X0068421Y0164900D03*
X0068321Y0165000D03*
X0073421Y0156000D03*
X0073521Y0155900D03*
D141*
X0073371Y0156100D03*
X0070871Y0162700D03*
D142*
X0064371Y0156200D03*
D143*
X0071171Y0162500D03*
X0073471Y0156200D03*
D144*
X0073171Y0156300D03*
X0073571Y0160700D03*
D145*
X0071221Y0157400D03*
X0071221Y0157300D03*
X0071221Y0157200D03*
X0071221Y0157100D03*
X0071221Y0157000D03*
D146*
X0071221Y0157500D03*
X0071221Y0157600D03*
X0071321Y0157700D03*
X0071321Y0157800D03*
D147*
X0072421Y0158100D03*
X0072421Y0158200D03*
D148*
X0072471Y0158300D03*
D149*
X0072471Y0158400D03*
D150*
X0072371Y0158500D03*
D151*
X0072321Y0158600D03*
D152*
X0065271Y0158800D03*
X0072471Y0166000D03*
D153*
X0065171Y0158900D03*
D154*
X0065071Y0159000D03*
X0069671Y0166300D03*
X0084071Y0164400D03*
D155*
X0073771Y0159200D03*
X0073771Y0159100D03*
X0073771Y0159000D03*
D156*
X0073721Y0159300D03*
X0073521Y0160300D03*
D157*
X0073571Y0160800D03*
D158*
X0073571Y0160900D03*
X0073571Y0161000D03*
D159*
X0073571Y0161100D03*
X0073571Y0161200D03*
D160*
X0073521Y0161300D03*
D161*
X0073571Y0161400D03*
D162*
X0073671Y0161500D03*
D163*
X0074421Y0162100D03*
D164*
X0074371Y0162200D03*
D165*
X0074421Y0162300D03*
D166*
X0071421Y0162400D03*
D167*
X0062971Y0168200D03*
X0081571Y0162400D03*
D168*
X0081771Y0162500D03*
X0072171Y0165200D03*
X0063471Y0167500D03*
X0063371Y0167600D03*
X0063271Y0167700D03*
D169*
X0060071Y0169200D03*
X0081871Y0162600D03*
X0082471Y0162900D03*
D170*
X0082571Y0163000D03*
X0071971Y0165600D03*
D171*
X0070571Y0163100D03*
X0068571Y0164700D03*
D172*
X0059871Y0169900D03*
X0082671Y0163100D03*
D173*
X0082721Y0163200D03*
X0082821Y0163300D03*
D174*
X0070471Y0163300D03*
X0068771Y0164500D03*
D175*
X0068921Y0164400D03*
X0070421Y0163400D03*
D176*
X0082971Y0163400D03*
X0083071Y0163500D03*
D177*
X0083221Y0163600D03*
X0072021Y0165700D03*
X0059821Y0169800D03*
D178*
X0070221Y0163700D03*
D179*
X0083621Y0163700D03*
D180*
X0070171Y0163800D03*
X0069971Y0164000D03*
D181*
X0083721Y0163800D03*
D182*
X0083721Y0163900D03*
D183*
X0083821Y0164000D03*
D184*
X0069721Y0164100D03*
D185*
X0072521Y0165900D03*
X0083921Y0164100D03*
X0060121Y0170200D03*
D186*
X0069521Y0164200D03*
D187*
X0069471Y0164300D03*
D188*
X0065771Y0165100D03*
X0065571Y0165600D03*
D189*
X0065621Y0165700D03*
X0065621Y0165800D03*
X0065621Y0165900D03*
X0065721Y0165200D03*
D190*
X0065071Y0165300D03*
X0064871Y0166100D03*
X0064871Y0166200D03*
X0064771Y0166800D03*
X0061971Y0168500D03*
D191*
X0071821Y0165300D03*
D192*
X0065021Y0165400D03*
D193*
X0063521Y0167400D03*
X0071821Y0165400D03*
D194*
X0072371Y0165800D03*
X0059671Y0170000D03*
D195*
X0065671Y0166000D03*
D196*
X0060121Y0170300D03*
X0072121Y0166100D03*
D197*
X0072071Y0166200D03*
D198*
X0064921Y0166300D03*
X0064921Y0166400D03*
D199*
X0065021Y0166600D03*
X0061621Y0168700D03*
D200*
X0061571Y0168800D03*
X0064971Y0166700D03*
D201*
X0063971Y0166900D03*
X0062671Y0168400D03*
D202*
X0062821Y0168300D03*
X0063921Y0167000D03*
D203*
X0061521Y0168900D03*
D204*
X0060621Y0169000D03*
D205*
X0060271Y0169100D03*
D206*
X0060021Y0169300D03*
X0060021Y0169400D03*
X0059921Y0169500D03*
X0059921Y0169600D03*
D207*
X0183421Y0118700D03*
D208*
X0142421Y0116700D02*
X0142421Y0101700D01*
X0057421Y0029200D02*
X0057421Y0014200D01*
X0062421Y0184200D02*
X0062421Y0199200D01*
D209*
X0072830Y0094261D02*
X0072830Y0092326D01*
X0074281Y0092326D01*
X0073797Y0093294D01*
X0073797Y0093778D01*
X0074281Y0094261D01*
X0075248Y0094261D01*
X0075732Y0093778D01*
X0075732Y0092810D01*
X0075248Y0092326D01*
X0082672Y0092149D02*
X0082672Y0093116D01*
X0083156Y0093600D01*
X0083640Y0093600D01*
X0084123Y0093116D01*
X0084123Y0092149D01*
X0083640Y0091665D01*
X0083156Y0091665D01*
X0082672Y0092149D01*
X0084123Y0092149D02*
X0084607Y0091665D01*
X0085091Y0091665D01*
X0085575Y0092149D01*
X0085575Y0093116D01*
X0085091Y0093600D01*
X0084607Y0093600D01*
X0084123Y0093116D01*
X0075575Y0085647D02*
X0075575Y0083712D01*
X0073640Y0085647D01*
X0073156Y0085647D01*
X0072672Y0085163D01*
X0072672Y0084196D01*
X0073156Y0083712D01*
X0075575Y0076285D02*
X0075575Y0074350D01*
X0075575Y0075317D02*
X0072672Y0075317D01*
X0073640Y0074350D01*
X0073640Y0067253D02*
X0074123Y0066770D01*
X0074607Y0067253D01*
X0075091Y0067253D01*
X0075575Y0066770D01*
X0075575Y0065802D01*
X0075091Y0065319D01*
X0074123Y0066286D02*
X0074123Y0066770D01*
X0073640Y0067253D02*
X0073156Y0067253D01*
X0072672Y0066770D01*
X0072672Y0065802D01*
X0073156Y0065319D01*
X0082515Y0066954D02*
X0082998Y0065987D01*
X0083966Y0065019D01*
X0083966Y0066471D01*
X0084450Y0066954D01*
X0084933Y0066954D01*
X0085417Y0066471D01*
X0085417Y0065503D01*
X0084933Y0065019D01*
X0083966Y0065019D01*
D210*
X0113221Y0061700D03*
X0113221Y0076700D03*
X0112721Y0089200D03*
X0141121Y0089200D03*
X0141621Y0076700D03*
X0141621Y0061700D03*
X0163221Y0081700D03*
X0162721Y0096700D03*
X0191121Y0096700D03*
X0191621Y0081700D03*
X0125121Y0033200D03*
X0096721Y0033200D03*
M02*
