%
M48
M72
T01C0.02400
T02C0.03200
T03C0.03543
T04C0.03740
T05C0.03937
T06C0.04000
T07C0.09843
T08C0.12205
T09C0.12598
%
T01
X178621Y93500
X207421Y97100
X251321Y106100
T02
X42421Y21700
X52421Y21700
X90921Y33200
X107421Y61700
X107421Y76700
X106921Y89200
X127421Y109200
X137421Y109200
X156921Y96700
X146921Y89200
X157421Y81700
X147421Y76700
X147421Y61700
X130921Y33200
X196421Y65700
X206421Y65700
X197421Y81700
X196921Y96700
X195421Y118700
X175421Y118700
X224421Y124700
X234421Y124700
X57421Y191700
X47421Y191700
T03
X70685Y96586
X80528Y96586
X70685Y88318
X70685Y78082
X70685Y69814
X80331Y69814
T04
X137421Y11700
X147421Y11700
X157421Y11700
X167421Y11700
X177421Y11700
X187421Y11700
X197421Y11700
X207421Y11700
X207421Y201700
X217421Y201700
X227421Y201700
X237421Y201700
X247421Y201700
X257421Y201700
X267421Y201700
X277421Y201700
X191421Y201700
X181421Y201700
X171421Y201700
X161421Y201700
X151421Y201700
X141421Y201700
X131421Y201700
X121421Y201700
X111421Y201700
X101421Y201700
T05
X174921Y154200
X174921Y144200
X204921Y144200
X204921Y154200
X234921Y154200
X234921Y144200
X264921Y144200
X264921Y154200
X266921Y121200
X266921Y111200
X266921Y101200
X266921Y91200
X266921Y81200
X266921Y71200
T06
X267421Y11700
X257421Y11700
X247421Y11700
X237421Y11700
X227421Y11700
X277421Y11700
T07
X58874Y56625
X58874Y109972
T08
X57421Y83200
T09
X82421Y11700
X287421Y31700
X287421Y141700
X87421Y201700
M30
