G75*
%MOIN*%
%OFA0B0*%
%FSLAX25Y25*%
%IPPOS*%
%LPD*%
%AMOC8*
5,1,8,0,0,1.08239X$1,22.5*
%
%ADD10C,0.13398*%
%ADD11C,0.06800*%
%ADD12OC8,0.06000*%
%ADD13C,0.08300*%
%ADD14OC8,0.08300*%
%ADD15C,0.06737*%
%ADD16C,0.06540*%
%ADD17C,0.16548*%
%ADD18OC8,0.06400*%
%ADD19C,0.18516*%
%ADD20C,0.04800*%
D10*
X0082421Y0011700D03*
X0287421Y0031700D03*
X0287421Y0141700D03*
X0087421Y0201700D03*
D11*
X0227421Y0014700D02*
X0227421Y0008700D01*
X0237421Y0008700D02*
X0237421Y0014700D01*
X0247421Y0014700D02*
X0247421Y0008700D01*
X0257421Y0008700D02*
X0257421Y0014700D01*
X0267421Y0014700D02*
X0267421Y0008700D01*
X0277421Y0008700D02*
X0277421Y0014700D01*
D12*
X0042421Y0021700D03*
X0052421Y0021700D03*
X0090921Y0033200D03*
X0107421Y0061700D03*
X0107421Y0076700D03*
X0106921Y0089200D03*
X0127421Y0109200D03*
X0137421Y0109200D03*
X0156921Y0096700D03*
X0146921Y0089200D03*
X0157421Y0081700D03*
X0147421Y0076700D03*
X0147421Y0061700D03*
X0130921Y0033200D03*
X0196421Y0065700D03*
X0206421Y0065700D03*
X0197421Y0081700D03*
X0196921Y0096700D03*
X0224421Y0124700D03*
X0234421Y0124700D03*
X0057421Y0191700D03*
X0047421Y0191700D03*
D13*
X0195421Y0118700D03*
D14*
X0175421Y0118700D03*
D15*
X0177890Y0144200D02*
X0171953Y0144200D01*
X0171953Y0154200D02*
X0177890Y0154200D01*
X0201953Y0154200D02*
X0207890Y0154200D01*
X0207890Y0144200D02*
X0201953Y0144200D01*
X0231953Y0144200D02*
X0237890Y0144200D01*
X0237890Y0154200D02*
X0231953Y0154200D01*
X0261953Y0154200D02*
X0267890Y0154200D01*
X0267890Y0144200D02*
X0261953Y0144200D01*
X0263953Y0121200D02*
X0269890Y0121200D01*
X0269890Y0111200D02*
X0263953Y0111200D01*
X0263953Y0101200D02*
X0269890Y0101200D01*
X0269890Y0091200D02*
X0263953Y0091200D01*
X0263953Y0081200D02*
X0269890Y0081200D01*
X0269890Y0071200D02*
X0263953Y0071200D01*
D16*
X0207421Y0014570D02*
X0207421Y0008830D01*
X0197421Y0008830D02*
X0197421Y0014570D01*
X0187421Y0014570D02*
X0187421Y0008830D01*
X0177421Y0008830D02*
X0177421Y0014570D01*
X0167421Y0014570D02*
X0167421Y0008830D01*
X0157421Y0008830D02*
X0157421Y0014570D01*
X0147421Y0014570D02*
X0147421Y0008830D01*
X0137421Y0008830D02*
X0137421Y0014570D01*
X0141421Y0198830D02*
X0141421Y0204570D01*
X0151421Y0204570D02*
X0151421Y0198830D01*
X0161421Y0198830D02*
X0161421Y0204570D01*
X0171421Y0204570D02*
X0171421Y0198830D01*
X0181421Y0198830D02*
X0181421Y0204570D01*
X0191421Y0204570D02*
X0191421Y0198830D01*
X0207421Y0198830D02*
X0207421Y0204570D01*
X0217421Y0204570D02*
X0217421Y0198830D01*
X0227421Y0198830D02*
X0227421Y0204570D01*
X0237421Y0204570D02*
X0237421Y0198830D01*
X0247421Y0198830D02*
X0247421Y0204570D01*
X0257421Y0204570D02*
X0257421Y0198830D01*
X0267421Y0198830D02*
X0267421Y0204570D01*
X0277421Y0204570D02*
X0277421Y0198830D01*
X0131421Y0198830D02*
X0131421Y0204570D01*
X0121421Y0204570D02*
X0121421Y0198830D01*
X0111421Y0198830D02*
X0111421Y0204570D01*
X0101421Y0204570D02*
X0101421Y0198830D01*
D17*
X0058874Y0109972D03*
X0058874Y0056625D03*
D18*
X0070685Y0069814D03*
X0080331Y0069814D03*
X0070685Y0078082D03*
X0070685Y0088318D03*
X0070685Y0096586D03*
X0080528Y0096586D03*
D19*
X0057421Y0083200D03*
D20*
X0178621Y0093500D03*
X0207421Y0097100D03*
X0251321Y0106100D03*
M02*
