G75*
%MOIN*%
%OFA0B0*%
%FSLAX25Y25*%
%IPPOS*%
%LPD*%
%AMOC8*
5,1,8,0,0,1.08239X$1,22.5*
%
%ADD10C,0.01000*%
%ADD11C,0.00000*%
%ADD12C,0.06000*%
%ADD13OC8,0.05200*%
%ADD14C,0.07500*%
%ADD15OC8,0.07500*%
%ADD16C,0.05937*%
%ADD17C,0.05740*%
%ADD18C,0.15748*%
%ADD19OC8,0.05600*%
%ADD20C,0.17716*%
%ADD21C,0.01600*%
%ADD22C,0.04000*%
%ADD23C,0.01400*%
D10*
X0027421Y0005637D02*
X0027421Y0207763D01*
X0027422Y0207763D02*
X0027424Y0207887D01*
X0027430Y0208010D01*
X0027439Y0208134D01*
X0027453Y0208256D01*
X0027470Y0208379D01*
X0027492Y0208501D01*
X0027517Y0208622D01*
X0027546Y0208742D01*
X0027578Y0208861D01*
X0027615Y0208980D01*
X0027655Y0209097D01*
X0027698Y0209212D01*
X0027746Y0209327D01*
X0027797Y0209439D01*
X0027851Y0209550D01*
X0027909Y0209660D01*
X0027970Y0209767D01*
X0028035Y0209873D01*
X0028103Y0209976D01*
X0028174Y0210077D01*
X0028248Y0210176D01*
X0028325Y0210273D01*
X0028406Y0210367D01*
X0028489Y0210458D01*
X0028575Y0210547D01*
X0028664Y0210633D01*
X0028755Y0210716D01*
X0028849Y0210797D01*
X0028946Y0210874D01*
X0029045Y0210948D01*
X0029146Y0211019D01*
X0029249Y0211087D01*
X0029355Y0211152D01*
X0029462Y0211213D01*
X0029572Y0211271D01*
X0029683Y0211325D01*
X0029795Y0211376D01*
X0029910Y0211424D01*
X0030025Y0211467D01*
X0030142Y0211507D01*
X0030261Y0211544D01*
X0030380Y0211576D01*
X0030500Y0211605D01*
X0030621Y0211630D01*
X0030743Y0211652D01*
X0030866Y0211669D01*
X0030988Y0211683D01*
X0031112Y0211692D01*
X0031235Y0211698D01*
X0031359Y0211700D01*
X0281421Y0211700D01*
X0287421Y0205700D01*
X0287421Y0160700D01*
X0297421Y0150700D01*
X0297421Y0021700D01*
X0287421Y0011700D01*
X0287421Y0005637D01*
X0287419Y0005513D01*
X0287413Y0005390D01*
X0287404Y0005266D01*
X0287390Y0005144D01*
X0287373Y0005021D01*
X0287351Y0004899D01*
X0287326Y0004778D01*
X0287297Y0004658D01*
X0287265Y0004539D01*
X0287228Y0004420D01*
X0287188Y0004303D01*
X0287145Y0004188D01*
X0287097Y0004073D01*
X0287046Y0003961D01*
X0286992Y0003850D01*
X0286934Y0003740D01*
X0286873Y0003633D01*
X0286808Y0003527D01*
X0286740Y0003424D01*
X0286669Y0003323D01*
X0286595Y0003224D01*
X0286518Y0003127D01*
X0286437Y0003033D01*
X0286354Y0002942D01*
X0286268Y0002853D01*
X0286179Y0002767D01*
X0286088Y0002684D01*
X0285994Y0002603D01*
X0285897Y0002526D01*
X0285798Y0002452D01*
X0285697Y0002381D01*
X0285594Y0002313D01*
X0285488Y0002248D01*
X0285381Y0002187D01*
X0285271Y0002129D01*
X0285160Y0002075D01*
X0285048Y0002024D01*
X0284933Y0001976D01*
X0284818Y0001933D01*
X0284701Y0001893D01*
X0284582Y0001856D01*
X0284463Y0001824D01*
X0284343Y0001795D01*
X0284222Y0001770D01*
X0284100Y0001748D01*
X0283977Y0001731D01*
X0283855Y0001717D01*
X0283731Y0001708D01*
X0283608Y0001702D01*
X0283484Y0001700D01*
X0031359Y0001700D01*
X0031235Y0001702D01*
X0031112Y0001708D01*
X0030988Y0001717D01*
X0030866Y0001731D01*
X0030743Y0001748D01*
X0030621Y0001770D01*
X0030500Y0001795D01*
X0030380Y0001824D01*
X0030261Y0001856D01*
X0030142Y0001893D01*
X0030025Y0001933D01*
X0029910Y0001976D01*
X0029795Y0002024D01*
X0029683Y0002075D01*
X0029572Y0002129D01*
X0029462Y0002187D01*
X0029355Y0002248D01*
X0029249Y0002313D01*
X0029146Y0002381D01*
X0029045Y0002452D01*
X0028946Y0002526D01*
X0028849Y0002603D01*
X0028755Y0002684D01*
X0028664Y0002767D01*
X0028575Y0002853D01*
X0028489Y0002942D01*
X0028406Y0003033D01*
X0028325Y0003127D01*
X0028248Y0003224D01*
X0028174Y0003323D01*
X0028103Y0003424D01*
X0028035Y0003527D01*
X0027970Y0003633D01*
X0027909Y0003740D01*
X0027851Y0003850D01*
X0027797Y0003961D01*
X0027746Y0004073D01*
X0027698Y0004188D01*
X0027655Y0004303D01*
X0027615Y0004420D01*
X0027578Y0004539D01*
X0027546Y0004658D01*
X0027517Y0004778D01*
X0027492Y0004899D01*
X0027470Y0005021D01*
X0027453Y0005144D01*
X0027439Y0005266D01*
X0027430Y0005390D01*
X0027424Y0005513D01*
X0027422Y0005637D01*
D11*
X0076122Y0011700D02*
X0076124Y0011858D01*
X0076130Y0012016D01*
X0076140Y0012174D01*
X0076154Y0012332D01*
X0076172Y0012489D01*
X0076193Y0012646D01*
X0076219Y0012802D01*
X0076249Y0012958D01*
X0076282Y0013113D01*
X0076320Y0013266D01*
X0076361Y0013419D01*
X0076406Y0013571D01*
X0076455Y0013722D01*
X0076508Y0013871D01*
X0076564Y0014019D01*
X0076624Y0014165D01*
X0076688Y0014310D01*
X0076756Y0014453D01*
X0076827Y0014595D01*
X0076901Y0014735D01*
X0076979Y0014872D01*
X0077061Y0015008D01*
X0077145Y0015142D01*
X0077234Y0015273D01*
X0077325Y0015402D01*
X0077420Y0015529D01*
X0077517Y0015654D01*
X0077618Y0015776D01*
X0077722Y0015895D01*
X0077829Y0016012D01*
X0077939Y0016126D01*
X0078052Y0016237D01*
X0078167Y0016346D01*
X0078285Y0016451D01*
X0078406Y0016553D01*
X0078529Y0016653D01*
X0078655Y0016749D01*
X0078783Y0016842D01*
X0078913Y0016932D01*
X0079046Y0017018D01*
X0079181Y0017102D01*
X0079317Y0017181D01*
X0079456Y0017258D01*
X0079597Y0017330D01*
X0079739Y0017400D01*
X0079883Y0017465D01*
X0080029Y0017527D01*
X0080176Y0017585D01*
X0080325Y0017640D01*
X0080475Y0017691D01*
X0080626Y0017738D01*
X0080778Y0017781D01*
X0080931Y0017820D01*
X0081086Y0017856D01*
X0081241Y0017887D01*
X0081397Y0017915D01*
X0081553Y0017939D01*
X0081710Y0017959D01*
X0081868Y0017975D01*
X0082025Y0017987D01*
X0082184Y0017995D01*
X0082342Y0017999D01*
X0082500Y0017999D01*
X0082658Y0017995D01*
X0082817Y0017987D01*
X0082974Y0017975D01*
X0083132Y0017959D01*
X0083289Y0017939D01*
X0083445Y0017915D01*
X0083601Y0017887D01*
X0083756Y0017856D01*
X0083911Y0017820D01*
X0084064Y0017781D01*
X0084216Y0017738D01*
X0084367Y0017691D01*
X0084517Y0017640D01*
X0084666Y0017585D01*
X0084813Y0017527D01*
X0084959Y0017465D01*
X0085103Y0017400D01*
X0085245Y0017330D01*
X0085386Y0017258D01*
X0085525Y0017181D01*
X0085661Y0017102D01*
X0085796Y0017018D01*
X0085929Y0016932D01*
X0086059Y0016842D01*
X0086187Y0016749D01*
X0086313Y0016653D01*
X0086436Y0016553D01*
X0086557Y0016451D01*
X0086675Y0016346D01*
X0086790Y0016237D01*
X0086903Y0016126D01*
X0087013Y0016012D01*
X0087120Y0015895D01*
X0087224Y0015776D01*
X0087325Y0015654D01*
X0087422Y0015529D01*
X0087517Y0015402D01*
X0087608Y0015273D01*
X0087697Y0015142D01*
X0087781Y0015008D01*
X0087863Y0014872D01*
X0087941Y0014735D01*
X0088015Y0014595D01*
X0088086Y0014453D01*
X0088154Y0014310D01*
X0088218Y0014165D01*
X0088278Y0014019D01*
X0088334Y0013871D01*
X0088387Y0013722D01*
X0088436Y0013571D01*
X0088481Y0013419D01*
X0088522Y0013266D01*
X0088560Y0013113D01*
X0088593Y0012958D01*
X0088623Y0012802D01*
X0088649Y0012646D01*
X0088670Y0012489D01*
X0088688Y0012332D01*
X0088702Y0012174D01*
X0088712Y0012016D01*
X0088718Y0011858D01*
X0088720Y0011700D01*
X0088718Y0011542D01*
X0088712Y0011384D01*
X0088702Y0011226D01*
X0088688Y0011068D01*
X0088670Y0010911D01*
X0088649Y0010754D01*
X0088623Y0010598D01*
X0088593Y0010442D01*
X0088560Y0010287D01*
X0088522Y0010134D01*
X0088481Y0009981D01*
X0088436Y0009829D01*
X0088387Y0009678D01*
X0088334Y0009529D01*
X0088278Y0009381D01*
X0088218Y0009235D01*
X0088154Y0009090D01*
X0088086Y0008947D01*
X0088015Y0008805D01*
X0087941Y0008665D01*
X0087863Y0008528D01*
X0087781Y0008392D01*
X0087697Y0008258D01*
X0087608Y0008127D01*
X0087517Y0007998D01*
X0087422Y0007871D01*
X0087325Y0007746D01*
X0087224Y0007624D01*
X0087120Y0007505D01*
X0087013Y0007388D01*
X0086903Y0007274D01*
X0086790Y0007163D01*
X0086675Y0007054D01*
X0086557Y0006949D01*
X0086436Y0006847D01*
X0086313Y0006747D01*
X0086187Y0006651D01*
X0086059Y0006558D01*
X0085929Y0006468D01*
X0085796Y0006382D01*
X0085661Y0006298D01*
X0085525Y0006219D01*
X0085386Y0006142D01*
X0085245Y0006070D01*
X0085103Y0006000D01*
X0084959Y0005935D01*
X0084813Y0005873D01*
X0084666Y0005815D01*
X0084517Y0005760D01*
X0084367Y0005709D01*
X0084216Y0005662D01*
X0084064Y0005619D01*
X0083911Y0005580D01*
X0083756Y0005544D01*
X0083601Y0005513D01*
X0083445Y0005485D01*
X0083289Y0005461D01*
X0083132Y0005441D01*
X0082974Y0005425D01*
X0082817Y0005413D01*
X0082658Y0005405D01*
X0082500Y0005401D01*
X0082342Y0005401D01*
X0082184Y0005405D01*
X0082025Y0005413D01*
X0081868Y0005425D01*
X0081710Y0005441D01*
X0081553Y0005461D01*
X0081397Y0005485D01*
X0081241Y0005513D01*
X0081086Y0005544D01*
X0080931Y0005580D01*
X0080778Y0005619D01*
X0080626Y0005662D01*
X0080475Y0005709D01*
X0080325Y0005760D01*
X0080176Y0005815D01*
X0080029Y0005873D01*
X0079883Y0005935D01*
X0079739Y0006000D01*
X0079597Y0006070D01*
X0079456Y0006142D01*
X0079317Y0006219D01*
X0079181Y0006298D01*
X0079046Y0006382D01*
X0078913Y0006468D01*
X0078783Y0006558D01*
X0078655Y0006651D01*
X0078529Y0006747D01*
X0078406Y0006847D01*
X0078285Y0006949D01*
X0078167Y0007054D01*
X0078052Y0007163D01*
X0077939Y0007274D01*
X0077829Y0007388D01*
X0077722Y0007505D01*
X0077618Y0007624D01*
X0077517Y0007746D01*
X0077420Y0007871D01*
X0077325Y0007998D01*
X0077234Y0008127D01*
X0077145Y0008258D01*
X0077061Y0008392D01*
X0076979Y0008528D01*
X0076901Y0008665D01*
X0076827Y0008805D01*
X0076756Y0008947D01*
X0076688Y0009090D01*
X0076624Y0009235D01*
X0076564Y0009381D01*
X0076508Y0009529D01*
X0076455Y0009678D01*
X0076406Y0009829D01*
X0076361Y0009981D01*
X0076320Y0010134D01*
X0076282Y0010287D01*
X0076249Y0010442D01*
X0076219Y0010598D01*
X0076193Y0010754D01*
X0076172Y0010911D01*
X0076154Y0011068D01*
X0076140Y0011226D01*
X0076130Y0011384D01*
X0076124Y0011542D01*
X0076122Y0011700D01*
X0281122Y0031700D02*
X0281124Y0031858D01*
X0281130Y0032016D01*
X0281140Y0032174D01*
X0281154Y0032332D01*
X0281172Y0032489D01*
X0281193Y0032646D01*
X0281219Y0032802D01*
X0281249Y0032958D01*
X0281282Y0033113D01*
X0281320Y0033266D01*
X0281361Y0033419D01*
X0281406Y0033571D01*
X0281455Y0033722D01*
X0281508Y0033871D01*
X0281564Y0034019D01*
X0281624Y0034165D01*
X0281688Y0034310D01*
X0281756Y0034453D01*
X0281827Y0034595D01*
X0281901Y0034735D01*
X0281979Y0034872D01*
X0282061Y0035008D01*
X0282145Y0035142D01*
X0282234Y0035273D01*
X0282325Y0035402D01*
X0282420Y0035529D01*
X0282517Y0035654D01*
X0282618Y0035776D01*
X0282722Y0035895D01*
X0282829Y0036012D01*
X0282939Y0036126D01*
X0283052Y0036237D01*
X0283167Y0036346D01*
X0283285Y0036451D01*
X0283406Y0036553D01*
X0283529Y0036653D01*
X0283655Y0036749D01*
X0283783Y0036842D01*
X0283913Y0036932D01*
X0284046Y0037018D01*
X0284181Y0037102D01*
X0284317Y0037181D01*
X0284456Y0037258D01*
X0284597Y0037330D01*
X0284739Y0037400D01*
X0284883Y0037465D01*
X0285029Y0037527D01*
X0285176Y0037585D01*
X0285325Y0037640D01*
X0285475Y0037691D01*
X0285626Y0037738D01*
X0285778Y0037781D01*
X0285931Y0037820D01*
X0286086Y0037856D01*
X0286241Y0037887D01*
X0286397Y0037915D01*
X0286553Y0037939D01*
X0286710Y0037959D01*
X0286868Y0037975D01*
X0287025Y0037987D01*
X0287184Y0037995D01*
X0287342Y0037999D01*
X0287500Y0037999D01*
X0287658Y0037995D01*
X0287817Y0037987D01*
X0287974Y0037975D01*
X0288132Y0037959D01*
X0288289Y0037939D01*
X0288445Y0037915D01*
X0288601Y0037887D01*
X0288756Y0037856D01*
X0288911Y0037820D01*
X0289064Y0037781D01*
X0289216Y0037738D01*
X0289367Y0037691D01*
X0289517Y0037640D01*
X0289666Y0037585D01*
X0289813Y0037527D01*
X0289959Y0037465D01*
X0290103Y0037400D01*
X0290245Y0037330D01*
X0290386Y0037258D01*
X0290525Y0037181D01*
X0290661Y0037102D01*
X0290796Y0037018D01*
X0290929Y0036932D01*
X0291059Y0036842D01*
X0291187Y0036749D01*
X0291313Y0036653D01*
X0291436Y0036553D01*
X0291557Y0036451D01*
X0291675Y0036346D01*
X0291790Y0036237D01*
X0291903Y0036126D01*
X0292013Y0036012D01*
X0292120Y0035895D01*
X0292224Y0035776D01*
X0292325Y0035654D01*
X0292422Y0035529D01*
X0292517Y0035402D01*
X0292608Y0035273D01*
X0292697Y0035142D01*
X0292781Y0035008D01*
X0292863Y0034872D01*
X0292941Y0034735D01*
X0293015Y0034595D01*
X0293086Y0034453D01*
X0293154Y0034310D01*
X0293218Y0034165D01*
X0293278Y0034019D01*
X0293334Y0033871D01*
X0293387Y0033722D01*
X0293436Y0033571D01*
X0293481Y0033419D01*
X0293522Y0033266D01*
X0293560Y0033113D01*
X0293593Y0032958D01*
X0293623Y0032802D01*
X0293649Y0032646D01*
X0293670Y0032489D01*
X0293688Y0032332D01*
X0293702Y0032174D01*
X0293712Y0032016D01*
X0293718Y0031858D01*
X0293720Y0031700D01*
X0293718Y0031542D01*
X0293712Y0031384D01*
X0293702Y0031226D01*
X0293688Y0031068D01*
X0293670Y0030911D01*
X0293649Y0030754D01*
X0293623Y0030598D01*
X0293593Y0030442D01*
X0293560Y0030287D01*
X0293522Y0030134D01*
X0293481Y0029981D01*
X0293436Y0029829D01*
X0293387Y0029678D01*
X0293334Y0029529D01*
X0293278Y0029381D01*
X0293218Y0029235D01*
X0293154Y0029090D01*
X0293086Y0028947D01*
X0293015Y0028805D01*
X0292941Y0028665D01*
X0292863Y0028528D01*
X0292781Y0028392D01*
X0292697Y0028258D01*
X0292608Y0028127D01*
X0292517Y0027998D01*
X0292422Y0027871D01*
X0292325Y0027746D01*
X0292224Y0027624D01*
X0292120Y0027505D01*
X0292013Y0027388D01*
X0291903Y0027274D01*
X0291790Y0027163D01*
X0291675Y0027054D01*
X0291557Y0026949D01*
X0291436Y0026847D01*
X0291313Y0026747D01*
X0291187Y0026651D01*
X0291059Y0026558D01*
X0290929Y0026468D01*
X0290796Y0026382D01*
X0290661Y0026298D01*
X0290525Y0026219D01*
X0290386Y0026142D01*
X0290245Y0026070D01*
X0290103Y0026000D01*
X0289959Y0025935D01*
X0289813Y0025873D01*
X0289666Y0025815D01*
X0289517Y0025760D01*
X0289367Y0025709D01*
X0289216Y0025662D01*
X0289064Y0025619D01*
X0288911Y0025580D01*
X0288756Y0025544D01*
X0288601Y0025513D01*
X0288445Y0025485D01*
X0288289Y0025461D01*
X0288132Y0025441D01*
X0287974Y0025425D01*
X0287817Y0025413D01*
X0287658Y0025405D01*
X0287500Y0025401D01*
X0287342Y0025401D01*
X0287184Y0025405D01*
X0287025Y0025413D01*
X0286868Y0025425D01*
X0286710Y0025441D01*
X0286553Y0025461D01*
X0286397Y0025485D01*
X0286241Y0025513D01*
X0286086Y0025544D01*
X0285931Y0025580D01*
X0285778Y0025619D01*
X0285626Y0025662D01*
X0285475Y0025709D01*
X0285325Y0025760D01*
X0285176Y0025815D01*
X0285029Y0025873D01*
X0284883Y0025935D01*
X0284739Y0026000D01*
X0284597Y0026070D01*
X0284456Y0026142D01*
X0284317Y0026219D01*
X0284181Y0026298D01*
X0284046Y0026382D01*
X0283913Y0026468D01*
X0283783Y0026558D01*
X0283655Y0026651D01*
X0283529Y0026747D01*
X0283406Y0026847D01*
X0283285Y0026949D01*
X0283167Y0027054D01*
X0283052Y0027163D01*
X0282939Y0027274D01*
X0282829Y0027388D01*
X0282722Y0027505D01*
X0282618Y0027624D01*
X0282517Y0027746D01*
X0282420Y0027871D01*
X0282325Y0027998D01*
X0282234Y0028127D01*
X0282145Y0028258D01*
X0282061Y0028392D01*
X0281979Y0028528D01*
X0281901Y0028665D01*
X0281827Y0028805D01*
X0281756Y0028947D01*
X0281688Y0029090D01*
X0281624Y0029235D01*
X0281564Y0029381D01*
X0281508Y0029529D01*
X0281455Y0029678D01*
X0281406Y0029829D01*
X0281361Y0029981D01*
X0281320Y0030134D01*
X0281282Y0030287D01*
X0281249Y0030442D01*
X0281219Y0030598D01*
X0281193Y0030754D01*
X0281172Y0030911D01*
X0281154Y0031068D01*
X0281140Y0031226D01*
X0281130Y0031384D01*
X0281124Y0031542D01*
X0281122Y0031700D01*
X0281122Y0141700D02*
X0281124Y0141858D01*
X0281130Y0142016D01*
X0281140Y0142174D01*
X0281154Y0142332D01*
X0281172Y0142489D01*
X0281193Y0142646D01*
X0281219Y0142802D01*
X0281249Y0142958D01*
X0281282Y0143113D01*
X0281320Y0143266D01*
X0281361Y0143419D01*
X0281406Y0143571D01*
X0281455Y0143722D01*
X0281508Y0143871D01*
X0281564Y0144019D01*
X0281624Y0144165D01*
X0281688Y0144310D01*
X0281756Y0144453D01*
X0281827Y0144595D01*
X0281901Y0144735D01*
X0281979Y0144872D01*
X0282061Y0145008D01*
X0282145Y0145142D01*
X0282234Y0145273D01*
X0282325Y0145402D01*
X0282420Y0145529D01*
X0282517Y0145654D01*
X0282618Y0145776D01*
X0282722Y0145895D01*
X0282829Y0146012D01*
X0282939Y0146126D01*
X0283052Y0146237D01*
X0283167Y0146346D01*
X0283285Y0146451D01*
X0283406Y0146553D01*
X0283529Y0146653D01*
X0283655Y0146749D01*
X0283783Y0146842D01*
X0283913Y0146932D01*
X0284046Y0147018D01*
X0284181Y0147102D01*
X0284317Y0147181D01*
X0284456Y0147258D01*
X0284597Y0147330D01*
X0284739Y0147400D01*
X0284883Y0147465D01*
X0285029Y0147527D01*
X0285176Y0147585D01*
X0285325Y0147640D01*
X0285475Y0147691D01*
X0285626Y0147738D01*
X0285778Y0147781D01*
X0285931Y0147820D01*
X0286086Y0147856D01*
X0286241Y0147887D01*
X0286397Y0147915D01*
X0286553Y0147939D01*
X0286710Y0147959D01*
X0286868Y0147975D01*
X0287025Y0147987D01*
X0287184Y0147995D01*
X0287342Y0147999D01*
X0287500Y0147999D01*
X0287658Y0147995D01*
X0287817Y0147987D01*
X0287974Y0147975D01*
X0288132Y0147959D01*
X0288289Y0147939D01*
X0288445Y0147915D01*
X0288601Y0147887D01*
X0288756Y0147856D01*
X0288911Y0147820D01*
X0289064Y0147781D01*
X0289216Y0147738D01*
X0289367Y0147691D01*
X0289517Y0147640D01*
X0289666Y0147585D01*
X0289813Y0147527D01*
X0289959Y0147465D01*
X0290103Y0147400D01*
X0290245Y0147330D01*
X0290386Y0147258D01*
X0290525Y0147181D01*
X0290661Y0147102D01*
X0290796Y0147018D01*
X0290929Y0146932D01*
X0291059Y0146842D01*
X0291187Y0146749D01*
X0291313Y0146653D01*
X0291436Y0146553D01*
X0291557Y0146451D01*
X0291675Y0146346D01*
X0291790Y0146237D01*
X0291903Y0146126D01*
X0292013Y0146012D01*
X0292120Y0145895D01*
X0292224Y0145776D01*
X0292325Y0145654D01*
X0292422Y0145529D01*
X0292517Y0145402D01*
X0292608Y0145273D01*
X0292697Y0145142D01*
X0292781Y0145008D01*
X0292863Y0144872D01*
X0292941Y0144735D01*
X0293015Y0144595D01*
X0293086Y0144453D01*
X0293154Y0144310D01*
X0293218Y0144165D01*
X0293278Y0144019D01*
X0293334Y0143871D01*
X0293387Y0143722D01*
X0293436Y0143571D01*
X0293481Y0143419D01*
X0293522Y0143266D01*
X0293560Y0143113D01*
X0293593Y0142958D01*
X0293623Y0142802D01*
X0293649Y0142646D01*
X0293670Y0142489D01*
X0293688Y0142332D01*
X0293702Y0142174D01*
X0293712Y0142016D01*
X0293718Y0141858D01*
X0293720Y0141700D01*
X0293718Y0141542D01*
X0293712Y0141384D01*
X0293702Y0141226D01*
X0293688Y0141068D01*
X0293670Y0140911D01*
X0293649Y0140754D01*
X0293623Y0140598D01*
X0293593Y0140442D01*
X0293560Y0140287D01*
X0293522Y0140134D01*
X0293481Y0139981D01*
X0293436Y0139829D01*
X0293387Y0139678D01*
X0293334Y0139529D01*
X0293278Y0139381D01*
X0293218Y0139235D01*
X0293154Y0139090D01*
X0293086Y0138947D01*
X0293015Y0138805D01*
X0292941Y0138665D01*
X0292863Y0138528D01*
X0292781Y0138392D01*
X0292697Y0138258D01*
X0292608Y0138127D01*
X0292517Y0137998D01*
X0292422Y0137871D01*
X0292325Y0137746D01*
X0292224Y0137624D01*
X0292120Y0137505D01*
X0292013Y0137388D01*
X0291903Y0137274D01*
X0291790Y0137163D01*
X0291675Y0137054D01*
X0291557Y0136949D01*
X0291436Y0136847D01*
X0291313Y0136747D01*
X0291187Y0136651D01*
X0291059Y0136558D01*
X0290929Y0136468D01*
X0290796Y0136382D01*
X0290661Y0136298D01*
X0290525Y0136219D01*
X0290386Y0136142D01*
X0290245Y0136070D01*
X0290103Y0136000D01*
X0289959Y0135935D01*
X0289813Y0135873D01*
X0289666Y0135815D01*
X0289517Y0135760D01*
X0289367Y0135709D01*
X0289216Y0135662D01*
X0289064Y0135619D01*
X0288911Y0135580D01*
X0288756Y0135544D01*
X0288601Y0135513D01*
X0288445Y0135485D01*
X0288289Y0135461D01*
X0288132Y0135441D01*
X0287974Y0135425D01*
X0287817Y0135413D01*
X0287658Y0135405D01*
X0287500Y0135401D01*
X0287342Y0135401D01*
X0287184Y0135405D01*
X0287025Y0135413D01*
X0286868Y0135425D01*
X0286710Y0135441D01*
X0286553Y0135461D01*
X0286397Y0135485D01*
X0286241Y0135513D01*
X0286086Y0135544D01*
X0285931Y0135580D01*
X0285778Y0135619D01*
X0285626Y0135662D01*
X0285475Y0135709D01*
X0285325Y0135760D01*
X0285176Y0135815D01*
X0285029Y0135873D01*
X0284883Y0135935D01*
X0284739Y0136000D01*
X0284597Y0136070D01*
X0284456Y0136142D01*
X0284317Y0136219D01*
X0284181Y0136298D01*
X0284046Y0136382D01*
X0283913Y0136468D01*
X0283783Y0136558D01*
X0283655Y0136651D01*
X0283529Y0136747D01*
X0283406Y0136847D01*
X0283285Y0136949D01*
X0283167Y0137054D01*
X0283052Y0137163D01*
X0282939Y0137274D01*
X0282829Y0137388D01*
X0282722Y0137505D01*
X0282618Y0137624D01*
X0282517Y0137746D01*
X0282420Y0137871D01*
X0282325Y0137998D01*
X0282234Y0138127D01*
X0282145Y0138258D01*
X0282061Y0138392D01*
X0281979Y0138528D01*
X0281901Y0138665D01*
X0281827Y0138805D01*
X0281756Y0138947D01*
X0281688Y0139090D01*
X0281624Y0139235D01*
X0281564Y0139381D01*
X0281508Y0139529D01*
X0281455Y0139678D01*
X0281406Y0139829D01*
X0281361Y0139981D01*
X0281320Y0140134D01*
X0281282Y0140287D01*
X0281249Y0140442D01*
X0281219Y0140598D01*
X0281193Y0140754D01*
X0281172Y0140911D01*
X0281154Y0141068D01*
X0281140Y0141226D01*
X0281130Y0141384D01*
X0281124Y0141542D01*
X0281122Y0141700D01*
X0081122Y0201700D02*
X0081124Y0201858D01*
X0081130Y0202016D01*
X0081140Y0202174D01*
X0081154Y0202332D01*
X0081172Y0202489D01*
X0081193Y0202646D01*
X0081219Y0202802D01*
X0081249Y0202958D01*
X0081282Y0203113D01*
X0081320Y0203266D01*
X0081361Y0203419D01*
X0081406Y0203571D01*
X0081455Y0203722D01*
X0081508Y0203871D01*
X0081564Y0204019D01*
X0081624Y0204165D01*
X0081688Y0204310D01*
X0081756Y0204453D01*
X0081827Y0204595D01*
X0081901Y0204735D01*
X0081979Y0204872D01*
X0082061Y0205008D01*
X0082145Y0205142D01*
X0082234Y0205273D01*
X0082325Y0205402D01*
X0082420Y0205529D01*
X0082517Y0205654D01*
X0082618Y0205776D01*
X0082722Y0205895D01*
X0082829Y0206012D01*
X0082939Y0206126D01*
X0083052Y0206237D01*
X0083167Y0206346D01*
X0083285Y0206451D01*
X0083406Y0206553D01*
X0083529Y0206653D01*
X0083655Y0206749D01*
X0083783Y0206842D01*
X0083913Y0206932D01*
X0084046Y0207018D01*
X0084181Y0207102D01*
X0084317Y0207181D01*
X0084456Y0207258D01*
X0084597Y0207330D01*
X0084739Y0207400D01*
X0084883Y0207465D01*
X0085029Y0207527D01*
X0085176Y0207585D01*
X0085325Y0207640D01*
X0085475Y0207691D01*
X0085626Y0207738D01*
X0085778Y0207781D01*
X0085931Y0207820D01*
X0086086Y0207856D01*
X0086241Y0207887D01*
X0086397Y0207915D01*
X0086553Y0207939D01*
X0086710Y0207959D01*
X0086868Y0207975D01*
X0087025Y0207987D01*
X0087184Y0207995D01*
X0087342Y0207999D01*
X0087500Y0207999D01*
X0087658Y0207995D01*
X0087817Y0207987D01*
X0087974Y0207975D01*
X0088132Y0207959D01*
X0088289Y0207939D01*
X0088445Y0207915D01*
X0088601Y0207887D01*
X0088756Y0207856D01*
X0088911Y0207820D01*
X0089064Y0207781D01*
X0089216Y0207738D01*
X0089367Y0207691D01*
X0089517Y0207640D01*
X0089666Y0207585D01*
X0089813Y0207527D01*
X0089959Y0207465D01*
X0090103Y0207400D01*
X0090245Y0207330D01*
X0090386Y0207258D01*
X0090525Y0207181D01*
X0090661Y0207102D01*
X0090796Y0207018D01*
X0090929Y0206932D01*
X0091059Y0206842D01*
X0091187Y0206749D01*
X0091313Y0206653D01*
X0091436Y0206553D01*
X0091557Y0206451D01*
X0091675Y0206346D01*
X0091790Y0206237D01*
X0091903Y0206126D01*
X0092013Y0206012D01*
X0092120Y0205895D01*
X0092224Y0205776D01*
X0092325Y0205654D01*
X0092422Y0205529D01*
X0092517Y0205402D01*
X0092608Y0205273D01*
X0092697Y0205142D01*
X0092781Y0205008D01*
X0092863Y0204872D01*
X0092941Y0204735D01*
X0093015Y0204595D01*
X0093086Y0204453D01*
X0093154Y0204310D01*
X0093218Y0204165D01*
X0093278Y0204019D01*
X0093334Y0203871D01*
X0093387Y0203722D01*
X0093436Y0203571D01*
X0093481Y0203419D01*
X0093522Y0203266D01*
X0093560Y0203113D01*
X0093593Y0202958D01*
X0093623Y0202802D01*
X0093649Y0202646D01*
X0093670Y0202489D01*
X0093688Y0202332D01*
X0093702Y0202174D01*
X0093712Y0202016D01*
X0093718Y0201858D01*
X0093720Y0201700D01*
X0093718Y0201542D01*
X0093712Y0201384D01*
X0093702Y0201226D01*
X0093688Y0201068D01*
X0093670Y0200911D01*
X0093649Y0200754D01*
X0093623Y0200598D01*
X0093593Y0200442D01*
X0093560Y0200287D01*
X0093522Y0200134D01*
X0093481Y0199981D01*
X0093436Y0199829D01*
X0093387Y0199678D01*
X0093334Y0199529D01*
X0093278Y0199381D01*
X0093218Y0199235D01*
X0093154Y0199090D01*
X0093086Y0198947D01*
X0093015Y0198805D01*
X0092941Y0198665D01*
X0092863Y0198528D01*
X0092781Y0198392D01*
X0092697Y0198258D01*
X0092608Y0198127D01*
X0092517Y0197998D01*
X0092422Y0197871D01*
X0092325Y0197746D01*
X0092224Y0197624D01*
X0092120Y0197505D01*
X0092013Y0197388D01*
X0091903Y0197274D01*
X0091790Y0197163D01*
X0091675Y0197054D01*
X0091557Y0196949D01*
X0091436Y0196847D01*
X0091313Y0196747D01*
X0091187Y0196651D01*
X0091059Y0196558D01*
X0090929Y0196468D01*
X0090796Y0196382D01*
X0090661Y0196298D01*
X0090525Y0196219D01*
X0090386Y0196142D01*
X0090245Y0196070D01*
X0090103Y0196000D01*
X0089959Y0195935D01*
X0089813Y0195873D01*
X0089666Y0195815D01*
X0089517Y0195760D01*
X0089367Y0195709D01*
X0089216Y0195662D01*
X0089064Y0195619D01*
X0088911Y0195580D01*
X0088756Y0195544D01*
X0088601Y0195513D01*
X0088445Y0195485D01*
X0088289Y0195461D01*
X0088132Y0195441D01*
X0087974Y0195425D01*
X0087817Y0195413D01*
X0087658Y0195405D01*
X0087500Y0195401D01*
X0087342Y0195401D01*
X0087184Y0195405D01*
X0087025Y0195413D01*
X0086868Y0195425D01*
X0086710Y0195441D01*
X0086553Y0195461D01*
X0086397Y0195485D01*
X0086241Y0195513D01*
X0086086Y0195544D01*
X0085931Y0195580D01*
X0085778Y0195619D01*
X0085626Y0195662D01*
X0085475Y0195709D01*
X0085325Y0195760D01*
X0085176Y0195815D01*
X0085029Y0195873D01*
X0084883Y0195935D01*
X0084739Y0196000D01*
X0084597Y0196070D01*
X0084456Y0196142D01*
X0084317Y0196219D01*
X0084181Y0196298D01*
X0084046Y0196382D01*
X0083913Y0196468D01*
X0083783Y0196558D01*
X0083655Y0196651D01*
X0083529Y0196747D01*
X0083406Y0196847D01*
X0083285Y0196949D01*
X0083167Y0197054D01*
X0083052Y0197163D01*
X0082939Y0197274D01*
X0082829Y0197388D01*
X0082722Y0197505D01*
X0082618Y0197624D01*
X0082517Y0197746D01*
X0082420Y0197871D01*
X0082325Y0197998D01*
X0082234Y0198127D01*
X0082145Y0198258D01*
X0082061Y0198392D01*
X0081979Y0198528D01*
X0081901Y0198665D01*
X0081827Y0198805D01*
X0081756Y0198947D01*
X0081688Y0199090D01*
X0081624Y0199235D01*
X0081564Y0199381D01*
X0081508Y0199529D01*
X0081455Y0199678D01*
X0081406Y0199829D01*
X0081361Y0199981D01*
X0081320Y0200134D01*
X0081282Y0200287D01*
X0081249Y0200442D01*
X0081219Y0200598D01*
X0081193Y0200754D01*
X0081172Y0200911D01*
X0081154Y0201068D01*
X0081140Y0201226D01*
X0081130Y0201384D01*
X0081124Y0201542D01*
X0081122Y0201700D01*
D12*
X0227421Y0014700D02*
X0227421Y0008700D01*
X0237421Y0008700D02*
X0237421Y0014700D01*
X0247421Y0014700D02*
X0247421Y0008700D01*
X0257421Y0008700D02*
X0257421Y0014700D01*
X0267421Y0014700D02*
X0267421Y0008700D01*
X0277421Y0008700D02*
X0277421Y0014700D01*
D13*
X0206421Y0065700D03*
X0196421Y0065700D03*
X0197421Y0081700D03*
X0196921Y0096700D03*
X0224421Y0124700D03*
X0234421Y0124700D03*
X0156921Y0096700D03*
X0146921Y0089200D03*
X0157421Y0081700D03*
X0147421Y0076700D03*
X0147421Y0061700D03*
X0130921Y0033200D03*
X0107421Y0061700D03*
X0107421Y0076700D03*
X0106921Y0089200D03*
X0127421Y0109200D03*
X0137421Y0109200D03*
X0090921Y0033200D03*
X0052421Y0021700D03*
X0042421Y0021700D03*
X0047421Y0191700D03*
X0057421Y0191700D03*
D14*
X0195421Y0118700D03*
D15*
X0175421Y0118700D03*
D16*
X0177890Y0144200D02*
X0171953Y0144200D01*
X0171953Y0154200D02*
X0177890Y0154200D01*
X0201953Y0154200D02*
X0207890Y0154200D01*
X0207890Y0144200D02*
X0201953Y0144200D01*
X0231953Y0144200D02*
X0237890Y0144200D01*
X0237890Y0154200D02*
X0231953Y0154200D01*
X0261953Y0154200D02*
X0267890Y0154200D01*
X0267890Y0144200D02*
X0261953Y0144200D01*
X0263953Y0121200D02*
X0269890Y0121200D01*
X0269890Y0111200D02*
X0263953Y0111200D01*
X0263953Y0101200D02*
X0269890Y0101200D01*
X0269890Y0091200D02*
X0263953Y0091200D01*
X0263953Y0081200D02*
X0269890Y0081200D01*
X0269890Y0071200D02*
X0263953Y0071200D01*
D17*
X0207421Y0014570D02*
X0207421Y0008830D01*
X0197421Y0008830D02*
X0197421Y0014570D01*
X0187421Y0014570D02*
X0187421Y0008830D01*
X0177421Y0008830D02*
X0177421Y0014570D01*
X0167421Y0014570D02*
X0167421Y0008830D01*
X0157421Y0008830D02*
X0157421Y0014570D01*
X0147421Y0014570D02*
X0147421Y0008830D01*
X0137421Y0008830D02*
X0137421Y0014570D01*
X0141421Y0198830D02*
X0141421Y0204570D01*
X0151421Y0204570D02*
X0151421Y0198830D01*
X0161421Y0198830D02*
X0161421Y0204570D01*
X0171421Y0204570D02*
X0171421Y0198830D01*
X0181421Y0198830D02*
X0181421Y0204570D01*
X0191421Y0204570D02*
X0191421Y0198830D01*
X0207421Y0198830D02*
X0207421Y0204570D01*
X0217421Y0204570D02*
X0217421Y0198830D01*
X0227421Y0198830D02*
X0227421Y0204570D01*
X0237421Y0204570D02*
X0237421Y0198830D01*
X0247421Y0198830D02*
X0247421Y0204570D01*
X0257421Y0204570D02*
X0257421Y0198830D01*
X0267421Y0198830D02*
X0267421Y0204570D01*
X0277421Y0204570D02*
X0277421Y0198830D01*
X0131421Y0198830D02*
X0131421Y0204570D01*
X0121421Y0204570D02*
X0121421Y0198830D01*
X0111421Y0198830D02*
X0111421Y0204570D01*
X0101421Y0204570D02*
X0101421Y0198830D01*
D18*
X0058874Y0109972D03*
X0058874Y0056625D03*
D19*
X0070685Y0069814D03*
X0080331Y0069814D03*
X0070685Y0078082D03*
X0070685Y0088318D03*
X0070685Y0096586D03*
X0080528Y0096586D03*
D20*
X0057421Y0083200D03*
D21*
X0058021Y0082700D01*
X0070621Y0070100D01*
X0070685Y0069814D01*
X0058874Y0056625D02*
X0058021Y0055700D01*
X0052621Y0050300D01*
X0052621Y0023300D01*
X0052421Y0021700D01*
X0090421Y0034100D02*
X0090921Y0033200D01*
X0090421Y0034100D02*
X0090421Y0048500D01*
X0178621Y0048500D01*
X0194821Y0064700D01*
X0196421Y0065700D01*
X0196621Y0066500D01*
X0211021Y0080900D01*
X0212821Y0080900D01*
X0212821Y0098900D01*
X0196621Y0115100D01*
X0196621Y0118700D01*
X0195421Y0118700D01*
X0185821Y0118700D02*
X0198421Y0131300D01*
X0229021Y0131300D01*
X0234421Y0125900D01*
X0234421Y0124700D01*
X0234421Y0113300D01*
X0256021Y0091700D01*
X0266821Y0091700D01*
X0266921Y0091200D01*
X0268621Y0091700D01*
X0275821Y0084500D01*
X0275821Y0068300D01*
X0272221Y0064700D01*
X0207421Y0064700D01*
X0206421Y0065700D01*
X0205621Y0064700D01*
X0198421Y0057500D01*
X0198421Y0012500D01*
X0197421Y0011700D01*
X0178621Y0012500D02*
X0177421Y0011700D01*
X0178621Y0012500D02*
X0178621Y0048500D01*
X0176821Y0075500D02*
X0157021Y0095300D01*
X0156921Y0096700D01*
X0157021Y0088100D02*
X0142621Y0102500D01*
X0133621Y0102500D01*
X0128221Y0107900D01*
X0127421Y0109200D01*
X0142621Y0122300D02*
X0142621Y0201500D01*
X0141421Y0201700D01*
X0182221Y0134900D02*
X0167821Y0120500D01*
X0167821Y0104300D01*
X0178621Y0093500D01*
X0182221Y0082700D02*
X0142621Y0122300D01*
X0175421Y0118700D02*
X0185821Y0118700D01*
X0182221Y0134900D02*
X0232621Y0134900D01*
X0248821Y0118700D01*
X0251321Y0106100D01*
X0266921Y0081200D02*
X0266821Y0080900D01*
X0212821Y0080900D01*
X0207421Y0082700D02*
X0200221Y0075500D01*
X0176821Y0075500D01*
X0182221Y0082700D02*
X0196621Y0082700D01*
X0197421Y0081700D01*
X0207421Y0082700D02*
X0207421Y0097100D01*
X0157021Y0088100D02*
X0157021Y0082700D01*
X0157421Y0081700D01*
X0107421Y0061700D02*
X0106621Y0062900D01*
X0101221Y0068300D01*
X0101221Y0084500D01*
X0049021Y0136700D01*
X0049021Y0190700D01*
X0047421Y0191700D01*
X0070685Y0096586D02*
X0072421Y0095300D01*
X0090421Y0077300D01*
X0090421Y0048500D01*
D22*
X0178621Y0093500D03*
X0207421Y0097100D03*
X0251321Y0106100D03*
D23*
X0254683Y0109385D02*
X0258569Y0109385D01*
X0258284Y0110072D02*
X0259147Y0107989D01*
X0260742Y0106394D01*
X0261212Y0106200D01*
X0260742Y0106006D01*
X0259147Y0104411D01*
X0258284Y0102328D01*
X0258284Y0100072D01*
X0259147Y0097989D01*
X0260742Y0096394D01*
X0262825Y0095531D01*
X0271018Y0095531D01*
X0273101Y0096394D01*
X0274696Y0097989D01*
X0275558Y0100072D01*
X0275558Y0102328D01*
X0274696Y0104411D01*
X0273101Y0106006D01*
X0272631Y0106200D01*
X0273101Y0106394D01*
X0274696Y0107989D01*
X0275558Y0110072D01*
X0275558Y0112328D01*
X0274696Y0114411D01*
X0273101Y0116006D01*
X0272631Y0116200D01*
X0273101Y0116394D01*
X0274696Y0117989D01*
X0275558Y0120072D01*
X0275558Y0122328D01*
X0274696Y0124411D01*
X0273101Y0126006D01*
X0271018Y0126868D01*
X0262825Y0126868D01*
X0260742Y0126006D01*
X0259147Y0124411D01*
X0258284Y0122328D01*
X0258284Y0120072D01*
X0259147Y0117989D01*
X0260742Y0116394D01*
X0261212Y0116200D01*
X0260742Y0116006D01*
X0259147Y0114411D01*
X0258284Y0112328D01*
X0258284Y0110072D01*
X0258284Y0110784D02*
X0253960Y0110784D01*
X0254128Y0109941D02*
X0252321Y0119044D01*
X0252321Y0119396D01*
X0252187Y0119720D01*
X0252119Y0120064D01*
X0251923Y0120357D01*
X0251789Y0120683D01*
X0251541Y0120931D01*
X0251346Y0121222D01*
X0251053Y0121418D01*
X0235589Y0136883D01*
X0234604Y0137867D01*
X0233318Y0138400D01*
X0181525Y0138400D01*
X0180239Y0137867D01*
X0165839Y0123467D01*
X0164854Y0122483D01*
X0164321Y0121196D01*
X0164321Y0105550D01*
X0146121Y0123750D01*
X0146121Y0195653D01*
X0146144Y0195675D01*
X0146421Y0196346D01*
X0146699Y0195675D01*
X0148266Y0194108D01*
X0150314Y0193260D01*
X0152529Y0193260D01*
X0154577Y0194108D01*
X0156144Y0195675D01*
X0156421Y0196346D01*
X0156699Y0195675D01*
X0158266Y0194108D01*
X0160314Y0193260D01*
X0162529Y0193260D01*
X0164577Y0194108D01*
X0166144Y0195675D01*
X0166421Y0196346D01*
X0166699Y0195675D01*
X0168266Y0194108D01*
X0170314Y0193260D01*
X0172529Y0193260D01*
X0174577Y0194108D01*
X0176144Y0195675D01*
X0176421Y0196346D01*
X0176699Y0195675D01*
X0178266Y0194108D01*
X0180314Y0193260D01*
X0182529Y0193260D01*
X0184577Y0194108D01*
X0186144Y0195675D01*
X0186421Y0196346D01*
X0186699Y0195675D01*
X0188266Y0194108D01*
X0190314Y0193260D01*
X0192529Y0193260D01*
X0194577Y0194108D01*
X0196144Y0195675D01*
X0196992Y0197722D01*
X0196992Y0205678D01*
X0196144Y0207725D01*
X0194577Y0209292D01*
X0192868Y0210000D01*
X0205975Y0210000D01*
X0204266Y0209292D01*
X0202699Y0207725D01*
X0201851Y0205678D01*
X0201851Y0197722D01*
X0202699Y0195675D01*
X0204266Y0194108D01*
X0206314Y0193260D01*
X0208529Y0193260D01*
X0210577Y0194108D01*
X0212144Y0195675D01*
X0212421Y0196346D01*
X0212699Y0195675D01*
X0214266Y0194108D01*
X0216314Y0193260D01*
X0218529Y0193260D01*
X0220577Y0194108D01*
X0222144Y0195675D01*
X0222421Y0196346D01*
X0222699Y0195675D01*
X0224266Y0194108D01*
X0226314Y0193260D01*
X0228529Y0193260D01*
X0230577Y0194108D01*
X0232144Y0195675D01*
X0232421Y0196346D01*
X0232699Y0195675D01*
X0234266Y0194108D01*
X0236314Y0193260D01*
X0238529Y0193260D01*
X0240577Y0194108D01*
X0242144Y0195675D01*
X0242421Y0196346D01*
X0242699Y0195675D01*
X0244266Y0194108D01*
X0246314Y0193260D01*
X0248529Y0193260D01*
X0250577Y0194108D01*
X0252144Y0195675D01*
X0252421Y0196346D01*
X0252699Y0195675D01*
X0254266Y0194108D01*
X0256314Y0193260D01*
X0258529Y0193260D01*
X0260577Y0194108D01*
X0262144Y0195675D01*
X0262421Y0196346D01*
X0262699Y0195675D01*
X0264266Y0194108D01*
X0266314Y0193260D01*
X0268529Y0193260D01*
X0270577Y0194108D01*
X0272144Y0195675D01*
X0272421Y0196346D01*
X0272699Y0195675D01*
X0274266Y0194108D01*
X0276314Y0193260D01*
X0278529Y0193260D01*
X0280577Y0194108D01*
X0282144Y0195675D01*
X0282992Y0197722D01*
X0282992Y0205678D01*
X0282144Y0207725D01*
X0280577Y0209292D01*
X0278868Y0210000D01*
X0280717Y0210000D01*
X0285721Y0204996D01*
X0285721Y0159996D01*
X0286717Y0159000D01*
X0286717Y0159000D01*
X0295721Y0149996D01*
X0295721Y0144204D01*
X0295471Y0145384D01*
X0293317Y0148348D01*
X0290144Y0150180D01*
X0286501Y0150563D01*
X0286500Y0150563D01*
X0283016Y0149430D01*
X0280293Y0146979D01*
X0278803Y0143632D01*
X0278803Y0139968D01*
X0280293Y0136621D01*
X0283016Y0134169D01*
X0286500Y0133037D01*
X0286501Y0133037D01*
X0290144Y0133420D01*
X0290144Y0133420D01*
X0293317Y0135252D01*
X0293317Y0135252D01*
X0293317Y0135252D01*
X0295471Y0138216D01*
X0295471Y0138216D01*
X0295721Y0139396D01*
X0295721Y0035227D01*
X0293890Y0037968D01*
X0293890Y0037968D01*
X0290968Y0039920D01*
X0287521Y0040606D01*
X0284075Y0039920D01*
X0281153Y0037968D01*
X0279201Y0035046D01*
X0278516Y0031600D01*
X0279201Y0028154D01*
X0281153Y0025232D01*
X0281153Y0025232D01*
X0281153Y0025232D01*
X0284075Y0023280D01*
X0287521Y0022594D01*
X0287521Y0022594D01*
X0290968Y0023280D01*
X0293890Y0025232D01*
X0295721Y0027973D01*
X0295721Y0022404D01*
X0286717Y0013400D01*
X0285721Y0012404D01*
X0285721Y0005637D01*
X0285679Y0005201D01*
X0285344Y0004394D01*
X0284727Y0003777D01*
X0283921Y0003443D01*
X0283484Y0003400D01*
X0279521Y0003400D01*
X0280650Y0003868D01*
X0282254Y0005471D01*
X0283121Y0007566D01*
X0283121Y0015834D01*
X0282254Y0017929D01*
X0280650Y0019532D01*
X0278555Y0020400D01*
X0276288Y0020400D01*
X0274193Y0019532D01*
X0272589Y0017929D01*
X0272421Y0017524D01*
X0272254Y0017929D01*
X0270650Y0019532D01*
X0268555Y0020400D01*
X0266288Y0020400D01*
X0264193Y0019532D01*
X0262589Y0017929D01*
X0262421Y0017524D01*
X0262254Y0017929D01*
X0260650Y0019532D01*
X0258555Y0020400D01*
X0256288Y0020400D01*
X0254193Y0019532D01*
X0252589Y0017929D01*
X0252421Y0017524D01*
X0252254Y0017929D01*
X0250650Y0019532D01*
X0248555Y0020400D01*
X0246288Y0020400D01*
X0244193Y0019532D01*
X0242589Y0017929D01*
X0242421Y0017524D01*
X0242254Y0017929D01*
X0240650Y0019532D01*
X0238555Y0020400D01*
X0236288Y0020400D01*
X0234193Y0019532D01*
X0232589Y0017929D01*
X0232421Y0017524D01*
X0232254Y0017929D01*
X0230650Y0019532D01*
X0228555Y0020400D01*
X0226288Y0020400D01*
X0224193Y0019532D01*
X0222589Y0017929D01*
X0221721Y0015834D01*
X0221721Y0007566D01*
X0222589Y0005471D01*
X0224193Y0003868D01*
X0225322Y0003400D01*
X0208868Y0003400D01*
X0210577Y0004108D01*
X0212144Y0005675D01*
X0212992Y0007722D01*
X0212992Y0015678D01*
X0212144Y0017725D01*
X0210577Y0019292D01*
X0208529Y0020140D01*
X0206314Y0020140D01*
X0204266Y0019292D01*
X0202699Y0017725D01*
X0201851Y0015678D01*
X0201851Y0007722D01*
X0202699Y0005675D01*
X0204266Y0004108D01*
X0205975Y0003400D01*
X0178868Y0003400D01*
X0180577Y0004108D01*
X0182144Y0005675D01*
X0182992Y0007722D01*
X0182992Y0015678D01*
X0182144Y0017725D01*
X0182121Y0017747D01*
X0182121Y0047050D01*
X0195471Y0060400D01*
X0198617Y0060400D01*
X0201721Y0063505D01*
X0201721Y0066650D01*
X0212471Y0077400D01*
X0259737Y0077400D01*
X0260742Y0076394D01*
X0261212Y0076200D01*
X0260742Y0076006D01*
X0259147Y0074411D01*
X0258284Y0072328D01*
X0258284Y0070072D01*
X0259147Y0067989D01*
X0260742Y0066394D01*
X0262825Y0065531D01*
X0271018Y0065531D01*
X0273101Y0066394D01*
X0274696Y0067989D01*
X0275558Y0070072D01*
X0275558Y0072328D01*
X0274696Y0074411D01*
X0273101Y0076006D01*
X0272631Y0076200D01*
X0273101Y0076394D01*
X0274696Y0077989D01*
X0275558Y0080072D01*
X0275558Y0082328D01*
X0274696Y0084411D01*
X0273101Y0086006D01*
X0271018Y0086868D01*
X0262825Y0086868D01*
X0260742Y0086006D01*
X0259147Y0084411D01*
X0259143Y0084400D01*
X0216321Y0084400D01*
X0216321Y0099596D01*
X0215789Y0100883D01*
X0214804Y0101867D01*
X0201105Y0115566D01*
X0201871Y0117417D01*
X0201871Y0119983D01*
X0200890Y0122354D01*
X0199075Y0124168D01*
X0196704Y0125150D01*
X0194138Y0125150D01*
X0191768Y0124168D01*
X0189953Y0122354D01*
X0188971Y0119983D01*
X0188971Y0117417D01*
X0189953Y0115046D01*
X0191768Y0113232D01*
X0194138Y0112250D01*
X0194522Y0112250D01*
X0205415Y0101356D01*
X0204759Y0101084D01*
X0203437Y0099762D01*
X0202721Y0098035D01*
X0202721Y0096165D01*
X0203437Y0094438D01*
X0203921Y0093953D01*
X0203921Y0084150D01*
X0202721Y0082950D01*
X0202721Y0083895D01*
X0199617Y0087000D01*
X0195226Y0087000D01*
X0194426Y0086200D01*
X0183671Y0086200D01*
X0180628Y0089244D01*
X0181284Y0089516D01*
X0182606Y0090838D01*
X0183321Y0092565D01*
X0183321Y0094435D01*
X0182606Y0096162D01*
X0181284Y0097484D01*
X0179556Y0098200D01*
X0178871Y0098200D01*
X0171321Y0105750D01*
X0171321Y0119050D01*
X0183671Y0131400D01*
X0231172Y0131400D01*
X0245595Y0116977D01*
X0247261Y0108580D01*
X0246621Y0107035D01*
X0246621Y0105165D01*
X0247337Y0103438D01*
X0248659Y0102116D01*
X0250387Y0101400D01*
X0252256Y0101400D01*
X0253984Y0102116D01*
X0255306Y0103438D01*
X0256021Y0105165D01*
X0256021Y0107035D01*
X0255306Y0108762D01*
X0254128Y0109941D01*
X0253683Y0112182D02*
X0258284Y0112182D01*
X0258804Y0113581D02*
X0253405Y0113581D01*
X0253128Y0114979D02*
X0259716Y0114979D01*
X0260782Y0116378D02*
X0252850Y0116378D01*
X0252573Y0117776D02*
X0259360Y0117776D01*
X0258656Y0119175D02*
X0252321Y0119175D01*
X0251834Y0120573D02*
X0258284Y0120573D01*
X0258284Y0121972D02*
X0250499Y0121972D01*
X0249101Y0123370D02*
X0258716Y0123370D01*
X0259506Y0124769D02*
X0247702Y0124769D01*
X0246304Y0126168D02*
X0261133Y0126168D01*
X0272710Y0126168D02*
X0295721Y0126168D01*
X0295721Y0127566D02*
X0244905Y0127566D01*
X0243507Y0128965D02*
X0295721Y0128965D01*
X0295721Y0130363D02*
X0242108Y0130363D01*
X0240710Y0131762D02*
X0295721Y0131762D01*
X0295721Y0133160D02*
X0287668Y0133160D01*
X0286123Y0133160D02*
X0239311Y0133160D01*
X0237913Y0134559D02*
X0282584Y0134559D01*
X0283016Y0134169D02*
X0283016Y0134169D01*
X0281031Y0135957D02*
X0236514Y0135957D01*
X0235589Y0136883D02*
X0235589Y0136883D01*
X0235116Y0137356D02*
X0279966Y0137356D01*
X0280293Y0136621D02*
X0280293Y0136621D01*
X0279344Y0138754D02*
X0269555Y0138754D01*
X0269018Y0138531D02*
X0271101Y0139394D01*
X0272696Y0140989D01*
X0273558Y0143072D01*
X0273558Y0145328D01*
X0272696Y0147411D01*
X0271101Y0149006D01*
X0270631Y0149200D01*
X0271101Y0149394D01*
X0272696Y0150989D01*
X0273558Y0153072D01*
X0273558Y0155328D01*
X0272696Y0157411D01*
X0271101Y0159006D01*
X0269018Y0159868D01*
X0260825Y0159868D01*
X0258742Y0159006D01*
X0257147Y0157411D01*
X0256284Y0155328D01*
X0256284Y0153072D01*
X0257147Y0150989D01*
X0258742Y0149394D01*
X0259212Y0149200D01*
X0258742Y0149006D01*
X0257147Y0147411D01*
X0256284Y0145328D01*
X0256284Y0143072D01*
X0257147Y0140989D01*
X0258742Y0139394D01*
X0260825Y0138531D01*
X0269018Y0138531D01*
X0271859Y0140153D02*
X0278803Y0140153D01*
X0278803Y0141551D02*
X0272928Y0141551D01*
X0273508Y0142950D02*
X0278803Y0142950D01*
X0279122Y0144348D02*
X0273558Y0144348D01*
X0273385Y0145747D02*
X0279745Y0145747D01*
X0280293Y0146979D02*
X0280293Y0146979D01*
X0280478Y0147145D02*
X0272806Y0147145D01*
X0271563Y0148544D02*
X0282031Y0148544D01*
X0283016Y0149430D02*
X0283016Y0149430D01*
X0284591Y0149942D02*
X0271649Y0149942D01*
X0272841Y0151341D02*
X0294377Y0151341D01*
X0295721Y0149942D02*
X0290556Y0149942D01*
X0290144Y0150180D02*
X0290144Y0150180D01*
X0292978Y0148544D02*
X0295721Y0148544D01*
X0295721Y0147145D02*
X0294191Y0147145D01*
X0293317Y0148348D02*
X0293317Y0148348D01*
X0293317Y0148348D01*
X0295207Y0145747D02*
X0295721Y0145747D01*
X0295471Y0145384D02*
X0295471Y0145384D01*
X0295691Y0144348D02*
X0295721Y0144348D01*
X0295721Y0138754D02*
X0295585Y0138754D01*
X0295721Y0137356D02*
X0294845Y0137356D01*
X0295721Y0135957D02*
X0293829Y0135957D01*
X0292116Y0134559D02*
X0295721Y0134559D01*
X0295721Y0124769D02*
X0274337Y0124769D01*
X0275126Y0123370D02*
X0295721Y0123370D01*
X0295721Y0121972D02*
X0275558Y0121972D01*
X0275558Y0120573D02*
X0295721Y0120573D01*
X0295721Y0119175D02*
X0275187Y0119175D01*
X0274483Y0117776D02*
X0295721Y0117776D01*
X0295721Y0116378D02*
X0273061Y0116378D01*
X0274127Y0114979D02*
X0295721Y0114979D01*
X0295721Y0113581D02*
X0275039Y0113581D01*
X0275558Y0112182D02*
X0295721Y0112182D01*
X0295721Y0110784D02*
X0275558Y0110784D01*
X0275274Y0109385D02*
X0295721Y0109385D01*
X0295721Y0107987D02*
X0274693Y0107987D01*
X0273295Y0106588D02*
X0295721Y0106588D01*
X0295721Y0105190D02*
X0273917Y0105190D01*
X0274952Y0103791D02*
X0295721Y0103791D01*
X0295721Y0102393D02*
X0275531Y0102393D01*
X0275558Y0100994D02*
X0295721Y0100994D01*
X0295721Y0099596D02*
X0275361Y0099596D01*
X0274782Y0098197D02*
X0295721Y0098197D01*
X0295721Y0096799D02*
X0273505Y0096799D01*
X0260338Y0096799D02*
X0216321Y0096799D01*
X0216321Y0098197D02*
X0259061Y0098197D01*
X0258482Y0099596D02*
X0216321Y0099596D01*
X0215677Y0100994D02*
X0258284Y0100994D01*
X0258312Y0102393D02*
X0254261Y0102393D01*
X0255452Y0103791D02*
X0258891Y0103791D01*
X0259926Y0105190D02*
X0256021Y0105190D01*
X0256021Y0106588D02*
X0260548Y0106588D01*
X0259150Y0107987D02*
X0255627Y0107987D01*
X0247016Y0107987D02*
X0208684Y0107987D01*
X0207286Y0109385D02*
X0247101Y0109385D01*
X0246824Y0110784D02*
X0205887Y0110784D01*
X0204489Y0112182D02*
X0246546Y0112182D01*
X0246269Y0113581D02*
X0203090Y0113581D01*
X0201692Y0114979D02*
X0245991Y0114979D01*
X0245714Y0116378D02*
X0201441Y0116378D01*
X0201871Y0117776D02*
X0244795Y0117776D01*
X0243397Y0119175D02*
X0201871Y0119175D01*
X0201627Y0120573D02*
X0221053Y0120573D01*
X0222226Y0119400D02*
X0219121Y0122505D01*
X0219121Y0126895D01*
X0222226Y0130000D01*
X0226617Y0130000D01*
X0229721Y0126895D01*
X0229721Y0122505D01*
X0226617Y0119400D01*
X0222226Y0119400D01*
X0219654Y0121972D02*
X0201048Y0121972D01*
X0199873Y0123370D02*
X0219121Y0123370D01*
X0219121Y0124769D02*
X0197624Y0124769D01*
X0193219Y0124769D02*
X0177040Y0124769D01*
X0175642Y0123370D02*
X0190970Y0123370D01*
X0189795Y0121972D02*
X0174243Y0121972D01*
X0172845Y0120573D02*
X0189216Y0120573D01*
X0188971Y0119175D02*
X0171446Y0119175D01*
X0171321Y0117776D02*
X0188971Y0117776D01*
X0189402Y0116378D02*
X0171321Y0116378D01*
X0171321Y0114979D02*
X0190020Y0114979D01*
X0191419Y0113581D02*
X0171321Y0113581D01*
X0171321Y0112182D02*
X0194589Y0112182D01*
X0195988Y0110784D02*
X0171321Y0110784D01*
X0171321Y0109385D02*
X0197386Y0109385D01*
X0198785Y0107987D02*
X0171321Y0107987D01*
X0171321Y0106588D02*
X0200183Y0106588D01*
X0201582Y0105190D02*
X0171881Y0105190D01*
X0173280Y0103791D02*
X0202980Y0103791D01*
X0204379Y0102393D02*
X0174678Y0102393D01*
X0176077Y0100994D02*
X0193720Y0100994D01*
X0194726Y0102000D02*
X0191621Y0098895D01*
X0191621Y0094505D01*
X0194726Y0091400D01*
X0199117Y0091400D01*
X0202221Y0094505D01*
X0202221Y0098895D01*
X0199117Y0102000D01*
X0194726Y0102000D01*
X0192322Y0099596D02*
X0177475Y0099596D01*
X0179563Y0098197D02*
X0191621Y0098197D01*
X0191621Y0096799D02*
X0181970Y0096799D01*
X0182922Y0095400D02*
X0191621Y0095400D01*
X0192124Y0094002D02*
X0183321Y0094002D01*
X0183321Y0092603D02*
X0193523Y0092603D01*
X0200320Y0092603D02*
X0203921Y0092603D01*
X0203921Y0091205D02*
X0182758Y0091205D01*
X0181575Y0089806D02*
X0203921Y0089806D01*
X0203921Y0088408D02*
X0181464Y0088408D01*
X0182862Y0087009D02*
X0203921Y0087009D01*
X0203921Y0085611D02*
X0201006Y0085611D01*
X0202405Y0084212D02*
X0203921Y0084212D01*
X0212291Y0077220D02*
X0259917Y0077220D01*
X0260558Y0075821D02*
X0210892Y0075821D01*
X0209494Y0074423D02*
X0259159Y0074423D01*
X0258573Y0073024D02*
X0208095Y0073024D01*
X0206697Y0071626D02*
X0258284Y0071626D01*
X0258284Y0070227D02*
X0205298Y0070227D01*
X0203900Y0068829D02*
X0258800Y0068829D01*
X0259706Y0067430D02*
X0202501Y0067430D01*
X0201721Y0066032D02*
X0261618Y0066032D01*
X0272225Y0066032D02*
X0295721Y0066032D01*
X0295721Y0067430D02*
X0274136Y0067430D01*
X0275043Y0068829D02*
X0295721Y0068829D01*
X0295721Y0070227D02*
X0275558Y0070227D01*
X0275558Y0071626D02*
X0295721Y0071626D01*
X0295721Y0073024D02*
X0275270Y0073024D01*
X0274684Y0074423D02*
X0295721Y0074423D01*
X0295721Y0075821D02*
X0273285Y0075821D01*
X0273926Y0077220D02*
X0295721Y0077220D01*
X0295721Y0078618D02*
X0274956Y0078618D01*
X0275535Y0080017D02*
X0295721Y0080017D01*
X0295721Y0081415D02*
X0275558Y0081415D01*
X0275357Y0082814D02*
X0295721Y0082814D01*
X0295721Y0084212D02*
X0274778Y0084212D01*
X0273496Y0085611D02*
X0295721Y0085611D01*
X0295721Y0087009D02*
X0216321Y0087009D01*
X0216321Y0085611D02*
X0260347Y0085611D01*
X0248382Y0102393D02*
X0214278Y0102393D01*
X0212880Y0103791D02*
X0247191Y0103791D01*
X0246621Y0105190D02*
X0211481Y0105190D01*
X0210083Y0106588D02*
X0246621Y0106588D01*
X0241998Y0120573D02*
X0227790Y0120573D01*
X0229189Y0121972D02*
X0240600Y0121972D01*
X0239201Y0123370D02*
X0229721Y0123370D01*
X0229721Y0124769D02*
X0237803Y0124769D01*
X0236404Y0126168D02*
X0229721Y0126168D01*
X0229051Y0127566D02*
X0235006Y0127566D01*
X0233607Y0128965D02*
X0227652Y0128965D01*
X0232209Y0130363D02*
X0182634Y0130363D01*
X0181236Y0128965D02*
X0221191Y0128965D01*
X0219792Y0127566D02*
X0179837Y0127566D01*
X0178439Y0126168D02*
X0219121Y0126168D01*
X0211101Y0139394D02*
X0209018Y0138531D01*
X0200825Y0138531D01*
X0198742Y0139394D01*
X0197147Y0140989D01*
X0196284Y0143072D01*
X0196284Y0145328D01*
X0197147Y0147411D01*
X0198742Y0149006D01*
X0199212Y0149200D01*
X0198742Y0149394D01*
X0197147Y0150989D01*
X0196284Y0153072D01*
X0196284Y0155328D01*
X0197147Y0157411D01*
X0198742Y0159006D01*
X0200825Y0159868D01*
X0209018Y0159868D01*
X0211101Y0159006D01*
X0212696Y0157411D01*
X0213558Y0155328D01*
X0213558Y0153072D01*
X0212696Y0150989D01*
X0211101Y0149394D01*
X0210631Y0149200D01*
X0211101Y0149006D01*
X0212696Y0147411D01*
X0213558Y0145328D01*
X0213558Y0143072D01*
X0212696Y0140989D01*
X0211101Y0139394D01*
X0211859Y0140153D02*
X0227984Y0140153D01*
X0228742Y0139394D02*
X0230825Y0138531D01*
X0239018Y0138531D01*
X0241101Y0139394D01*
X0242696Y0140989D01*
X0243558Y0143072D01*
X0243558Y0145328D01*
X0242696Y0147411D01*
X0241101Y0149006D01*
X0240631Y0149200D01*
X0241101Y0149394D01*
X0242696Y0150989D01*
X0243558Y0153072D01*
X0243558Y0155328D01*
X0242696Y0157411D01*
X0241101Y0159006D01*
X0239018Y0159868D01*
X0230825Y0159868D01*
X0228742Y0159006D01*
X0227147Y0157411D01*
X0226284Y0155328D01*
X0226284Y0153072D01*
X0227147Y0150989D01*
X0228742Y0149394D01*
X0229212Y0149200D01*
X0228742Y0149006D01*
X0227147Y0147411D01*
X0226284Y0145328D01*
X0226284Y0143072D01*
X0227147Y0140989D01*
X0228742Y0139394D01*
X0230288Y0138754D02*
X0209555Y0138754D01*
X0212928Y0141551D02*
X0226915Y0141551D01*
X0226335Y0142950D02*
X0213508Y0142950D01*
X0213558Y0144348D02*
X0226284Y0144348D01*
X0226458Y0145747D02*
X0213385Y0145747D01*
X0212806Y0147145D02*
X0227037Y0147145D01*
X0228280Y0148544D02*
X0211563Y0148544D01*
X0211649Y0149942D02*
X0228194Y0149942D01*
X0227002Y0151341D02*
X0212841Y0151341D01*
X0213420Y0152739D02*
X0226423Y0152739D01*
X0226284Y0154138D02*
X0213558Y0154138D01*
X0213472Y0155536D02*
X0226371Y0155536D01*
X0226950Y0156935D02*
X0212893Y0156935D01*
X0211773Y0158333D02*
X0228070Y0158333D01*
X0230495Y0159732D02*
X0209348Y0159732D01*
X0200495Y0159732D02*
X0179348Y0159732D01*
X0179018Y0159868D02*
X0181101Y0159006D01*
X0182696Y0157411D01*
X0183558Y0155328D01*
X0183558Y0153072D01*
X0182696Y0150989D01*
X0181101Y0149394D01*
X0180631Y0149200D01*
X0181101Y0149006D01*
X0182696Y0147411D01*
X0183558Y0145328D01*
X0183558Y0143072D01*
X0182696Y0140989D01*
X0181101Y0139394D01*
X0179018Y0138531D01*
X0170825Y0138531D01*
X0168742Y0139394D01*
X0167147Y0140989D01*
X0166284Y0143072D01*
X0166284Y0145328D01*
X0167147Y0147411D01*
X0168742Y0149006D01*
X0169212Y0149200D01*
X0168742Y0149394D01*
X0167147Y0150989D01*
X0166284Y0153072D01*
X0166284Y0155328D01*
X0167147Y0157411D01*
X0168742Y0159006D01*
X0170825Y0159868D01*
X0179018Y0159868D01*
X0181773Y0158333D02*
X0198070Y0158333D01*
X0196950Y0156935D02*
X0182893Y0156935D01*
X0183472Y0155536D02*
X0196371Y0155536D01*
X0196284Y0154138D02*
X0183558Y0154138D01*
X0183420Y0152739D02*
X0196423Y0152739D01*
X0197002Y0151341D02*
X0182841Y0151341D01*
X0181649Y0149942D02*
X0198194Y0149942D01*
X0198280Y0148544D02*
X0181563Y0148544D01*
X0182806Y0147145D02*
X0197037Y0147145D01*
X0196458Y0145747D02*
X0183385Y0145747D01*
X0183558Y0144348D02*
X0196284Y0144348D01*
X0196335Y0142950D02*
X0183508Y0142950D01*
X0182928Y0141551D02*
X0196915Y0141551D01*
X0197984Y0140153D02*
X0181859Y0140153D01*
X0179555Y0138754D02*
X0200288Y0138754D01*
X0179727Y0137356D02*
X0146121Y0137356D01*
X0146121Y0138754D02*
X0170288Y0138754D01*
X0167984Y0140153D02*
X0146121Y0140153D01*
X0146121Y0141551D02*
X0166915Y0141551D01*
X0166335Y0142950D02*
X0146121Y0142950D01*
X0146121Y0144348D02*
X0166284Y0144348D01*
X0166458Y0145747D02*
X0146121Y0145747D01*
X0146121Y0147145D02*
X0167037Y0147145D01*
X0168280Y0148544D02*
X0146121Y0148544D01*
X0146121Y0149942D02*
X0168194Y0149942D01*
X0167002Y0151341D02*
X0146121Y0151341D01*
X0146121Y0152739D02*
X0166423Y0152739D01*
X0166284Y0154138D02*
X0146121Y0154138D01*
X0146121Y0155536D02*
X0166371Y0155536D01*
X0166950Y0156935D02*
X0146121Y0156935D01*
X0146121Y0158333D02*
X0168070Y0158333D01*
X0170495Y0159732D02*
X0146121Y0159732D01*
X0146121Y0161130D02*
X0285721Y0161130D01*
X0285721Y0162529D02*
X0146121Y0162529D01*
X0146121Y0163927D02*
X0285721Y0163927D01*
X0285721Y0165326D02*
X0146121Y0165326D01*
X0146121Y0166724D02*
X0285721Y0166724D01*
X0285721Y0168123D02*
X0146121Y0168123D01*
X0146121Y0169521D02*
X0285721Y0169521D01*
X0285721Y0170920D02*
X0146121Y0170920D01*
X0146121Y0172318D02*
X0285721Y0172318D01*
X0285721Y0173717D02*
X0146121Y0173717D01*
X0146121Y0175115D02*
X0285721Y0175115D01*
X0285721Y0176514D02*
X0146121Y0176514D01*
X0146121Y0177912D02*
X0285721Y0177912D01*
X0285721Y0179311D02*
X0146121Y0179311D01*
X0146121Y0180709D02*
X0285721Y0180709D01*
X0285721Y0182108D02*
X0146121Y0182108D01*
X0146121Y0183506D02*
X0285721Y0183506D01*
X0285721Y0184905D02*
X0146121Y0184905D01*
X0146121Y0186303D02*
X0285721Y0186303D01*
X0285721Y0187702D02*
X0146121Y0187702D01*
X0146121Y0189101D02*
X0285721Y0189101D01*
X0285721Y0190499D02*
X0146121Y0190499D01*
X0146121Y0191898D02*
X0285721Y0191898D01*
X0285721Y0193296D02*
X0278617Y0193296D01*
X0276226Y0193296D02*
X0268617Y0193296D01*
X0266226Y0193296D02*
X0258617Y0193296D01*
X0256226Y0193296D02*
X0248617Y0193296D01*
X0246226Y0193296D02*
X0238617Y0193296D01*
X0236226Y0193296D02*
X0228617Y0193296D01*
X0226226Y0193296D02*
X0218617Y0193296D01*
X0216226Y0193296D02*
X0208617Y0193296D01*
X0206226Y0193296D02*
X0192617Y0193296D01*
X0190226Y0193296D02*
X0182617Y0193296D01*
X0180226Y0193296D02*
X0172617Y0193296D01*
X0170226Y0193296D02*
X0162617Y0193296D01*
X0160226Y0193296D02*
X0152617Y0193296D01*
X0150226Y0193296D02*
X0146121Y0193296D01*
X0146121Y0194695D02*
X0147680Y0194695D01*
X0146526Y0196093D02*
X0146317Y0196093D01*
X0139121Y0193754D02*
X0139121Y0121604D01*
X0139654Y0120317D01*
X0140639Y0119333D01*
X0157972Y0102000D01*
X0154726Y0102000D01*
X0151621Y0098895D01*
X0151621Y0098450D01*
X0145589Y0104483D01*
X0144604Y0105467D01*
X0143318Y0106000D01*
X0135071Y0106000D01*
X0132721Y0108350D01*
X0132721Y0111395D01*
X0129617Y0114500D01*
X0125226Y0114500D01*
X0122121Y0111395D01*
X0122121Y0107005D01*
X0125226Y0103900D01*
X0127272Y0103900D01*
X0131639Y0099533D01*
X0132925Y0099000D01*
X0141172Y0099000D01*
X0145672Y0094500D01*
X0144726Y0094500D01*
X0141621Y0091395D01*
X0141621Y0087005D01*
X0144726Y0083900D01*
X0149117Y0083900D01*
X0152221Y0087005D01*
X0152221Y0087950D01*
X0153521Y0086650D01*
X0153521Y0085295D01*
X0152121Y0083895D01*
X0152121Y0079505D01*
X0155226Y0076400D01*
X0159617Y0076400D01*
X0162721Y0079505D01*
X0162721Y0083895D01*
X0160521Y0086095D01*
X0160521Y0086850D01*
X0174839Y0072533D01*
X0176125Y0072000D01*
X0197172Y0072000D01*
X0196172Y0071000D01*
X0194226Y0071000D01*
X0191121Y0067895D01*
X0191121Y0065950D01*
X0177172Y0052000D01*
X0093921Y0052000D01*
X0093921Y0077996D01*
X0093389Y0079283D01*
X0081585Y0091086D01*
X0082806Y0091086D01*
X0086028Y0094308D01*
X0086028Y0094744D01*
X0097721Y0083050D01*
X0097721Y0067604D01*
X0098254Y0066317D01*
X0102121Y0062450D01*
X0102121Y0059505D01*
X0105226Y0056400D01*
X0109617Y0056400D01*
X0112721Y0059505D01*
X0112721Y0063895D01*
X0109617Y0067000D01*
X0107471Y0067000D01*
X0104721Y0069750D01*
X0104721Y0071905D01*
X0105226Y0071400D01*
X0109617Y0071400D01*
X0112721Y0074505D01*
X0112721Y0078895D01*
X0109617Y0082000D01*
X0105226Y0082000D01*
X0104721Y0081495D01*
X0104721Y0083905D01*
X0104726Y0083900D01*
X0109117Y0083900D01*
X0112221Y0087005D01*
X0112221Y0091395D01*
X0109117Y0094500D01*
X0104726Y0094500D01*
X0101621Y0091395D01*
X0101621Y0089050D01*
X0052521Y0138150D01*
X0052521Y0189305D01*
X0052721Y0189505D01*
X0052721Y0193895D01*
X0049617Y0197000D01*
X0045226Y0197000D01*
X0042121Y0193895D01*
X0042121Y0189505D01*
X0045226Y0186400D01*
X0045521Y0186400D01*
X0045521Y0136004D01*
X0046054Y0134717D01*
X0078686Y0102086D01*
X0078250Y0102086D01*
X0075607Y0099443D01*
X0072963Y0102086D01*
X0068407Y0102086D01*
X0065185Y0098864D01*
X0065185Y0094308D01*
X0067041Y0092452D01*
X0065185Y0090596D01*
X0065185Y0086040D01*
X0068025Y0083200D01*
X0065185Y0080360D01*
X0065185Y0075804D01*
X0068407Y0072582D01*
X0072963Y0072582D01*
X0076185Y0075804D01*
X0076185Y0080360D01*
X0073345Y0083200D01*
X0076185Y0086040D01*
X0076185Y0086586D01*
X0086921Y0075850D01*
X0086921Y0036695D01*
X0085621Y0035395D01*
X0085621Y0031005D01*
X0088726Y0027900D01*
X0093117Y0027900D01*
X0096221Y0031005D01*
X0096221Y0035395D01*
X0093921Y0037695D01*
X0093921Y0045000D01*
X0175121Y0045000D01*
X0175121Y0019646D01*
X0174266Y0019292D01*
X0172699Y0017725D01*
X0172421Y0017054D01*
X0172144Y0017725D01*
X0170577Y0019292D01*
X0168529Y0020140D01*
X0166314Y0020140D01*
X0164266Y0019292D01*
X0162699Y0017725D01*
X0162421Y0017054D01*
X0162144Y0017725D01*
X0160577Y0019292D01*
X0158529Y0020140D01*
X0156314Y0020140D01*
X0154266Y0019292D01*
X0152699Y0017725D01*
X0152421Y0017054D01*
X0152144Y0017725D01*
X0150577Y0019292D01*
X0148529Y0020140D01*
X0146314Y0020140D01*
X0144266Y0019292D01*
X0142699Y0017725D01*
X0142421Y0017054D01*
X0142144Y0017725D01*
X0140577Y0019292D01*
X0138529Y0020140D01*
X0136314Y0020140D01*
X0134266Y0019292D01*
X0132699Y0017725D01*
X0131851Y0015678D01*
X0131851Y0007722D01*
X0132699Y0005675D01*
X0134266Y0004108D01*
X0135975Y0003400D01*
X0086204Y0003400D01*
X0088912Y0005209D01*
X0088912Y0005209D01*
X0088912Y0005209D01*
X0090902Y0008187D01*
X0090902Y0008187D01*
X0091601Y0011700D01*
X0090902Y0015213D01*
X0088912Y0018191D01*
X0085934Y0020180D01*
X0082421Y0020879D01*
X0078909Y0020180D01*
X0078909Y0020180D01*
X0075931Y0018191D01*
X0075931Y0018191D01*
X0075931Y0018191D01*
X0073941Y0015213D01*
X0073941Y0015213D01*
X0073242Y0011700D01*
X0073941Y0008187D01*
X0075931Y0005209D01*
X0078639Y0003400D01*
X0031358Y0003400D01*
X0030922Y0003443D01*
X0030116Y0003777D01*
X0029498Y0004394D01*
X0029164Y0005201D01*
X0029121Y0005637D01*
X0029121Y0207763D01*
X0029164Y0208199D01*
X0029498Y0209006D01*
X0030116Y0209623D01*
X0030922Y0209957D01*
X0031358Y0210000D01*
X0084237Y0210000D01*
X0084041Y0209961D01*
X0081175Y0208046D01*
X0079260Y0205180D01*
X0078588Y0201800D01*
X0079260Y0198420D01*
X0079260Y0198420D01*
X0081175Y0195554D01*
X0081175Y0195554D01*
X0084041Y0193639D01*
X0087421Y0192967D01*
X0090802Y0193639D01*
X0093668Y0195554D01*
X0095583Y0198420D01*
X0095851Y0199771D01*
X0095851Y0197722D01*
X0096699Y0195675D01*
X0098266Y0194108D01*
X0100314Y0193260D01*
X0102529Y0193260D01*
X0104577Y0194108D01*
X0106144Y0195675D01*
X0106421Y0196346D01*
X0106699Y0195675D01*
X0108266Y0194108D01*
X0110314Y0193260D01*
X0112529Y0193260D01*
X0114577Y0194108D01*
X0116144Y0195675D01*
X0116421Y0196346D01*
X0116699Y0195675D01*
X0118266Y0194108D01*
X0120314Y0193260D01*
X0122529Y0193260D01*
X0124577Y0194108D01*
X0126144Y0195675D01*
X0126992Y0197722D01*
X0126992Y0205678D01*
X0126144Y0207725D01*
X0124577Y0209292D01*
X0122868Y0210000D01*
X0139975Y0210000D01*
X0138266Y0209292D01*
X0136699Y0207725D01*
X0135851Y0205678D01*
X0135851Y0197722D01*
X0136699Y0195675D01*
X0138266Y0194108D01*
X0139121Y0193754D01*
X0139121Y0193296D02*
X0122617Y0193296D01*
X0120226Y0193296D02*
X0112617Y0193296D01*
X0110226Y0193296D02*
X0102617Y0193296D01*
X0100226Y0193296D02*
X0089078Y0193296D01*
X0085765Y0193296D02*
X0052721Y0193296D01*
X0052721Y0191898D02*
X0139121Y0191898D01*
X0139121Y0190499D02*
X0052721Y0190499D01*
X0052521Y0189101D02*
X0139121Y0189101D01*
X0139121Y0187702D02*
X0052521Y0187702D01*
X0052521Y0186303D02*
X0139121Y0186303D01*
X0139121Y0184905D02*
X0052521Y0184905D01*
X0052521Y0183506D02*
X0139121Y0183506D01*
X0139121Y0182108D02*
X0052521Y0182108D01*
X0052521Y0180709D02*
X0139121Y0180709D01*
X0139121Y0179311D02*
X0052521Y0179311D01*
X0052521Y0177912D02*
X0139121Y0177912D01*
X0139121Y0176514D02*
X0052521Y0176514D01*
X0052521Y0175115D02*
X0139121Y0175115D01*
X0139121Y0173717D02*
X0052521Y0173717D01*
X0052521Y0172318D02*
X0139121Y0172318D01*
X0139121Y0170920D02*
X0052521Y0170920D01*
X0052521Y0169521D02*
X0139121Y0169521D01*
X0139121Y0168123D02*
X0052521Y0168123D01*
X0052521Y0166724D02*
X0139121Y0166724D01*
X0139121Y0165326D02*
X0052521Y0165326D01*
X0052521Y0163927D02*
X0139121Y0163927D01*
X0139121Y0162529D02*
X0052521Y0162529D01*
X0052521Y0161130D02*
X0139121Y0161130D01*
X0139121Y0159732D02*
X0052521Y0159732D01*
X0052521Y0158333D02*
X0139121Y0158333D01*
X0139121Y0156935D02*
X0052521Y0156935D01*
X0052521Y0155536D02*
X0139121Y0155536D01*
X0139121Y0154138D02*
X0052521Y0154138D01*
X0052521Y0152739D02*
X0139121Y0152739D01*
X0139121Y0151341D02*
X0052521Y0151341D01*
X0052521Y0149942D02*
X0139121Y0149942D01*
X0139121Y0148544D02*
X0052521Y0148544D01*
X0052521Y0147145D02*
X0139121Y0147145D01*
X0139121Y0145747D02*
X0052521Y0145747D01*
X0052521Y0144348D02*
X0139121Y0144348D01*
X0139121Y0142950D02*
X0052521Y0142950D01*
X0052521Y0141551D02*
X0139121Y0141551D01*
X0139121Y0140153D02*
X0052521Y0140153D01*
X0052521Y0138754D02*
X0139121Y0138754D01*
X0139121Y0137356D02*
X0053316Y0137356D01*
X0054714Y0135957D02*
X0139121Y0135957D01*
X0139121Y0134559D02*
X0056113Y0134559D01*
X0057511Y0133160D02*
X0139121Y0133160D01*
X0139121Y0131762D02*
X0058910Y0131762D01*
X0060308Y0130363D02*
X0139121Y0130363D01*
X0139121Y0128965D02*
X0061707Y0128965D01*
X0063105Y0127566D02*
X0139121Y0127566D01*
X0139121Y0126168D02*
X0064504Y0126168D01*
X0065902Y0124769D02*
X0139121Y0124769D01*
X0139121Y0123370D02*
X0067301Y0123370D01*
X0068699Y0121972D02*
X0139121Y0121972D01*
X0139548Y0120573D02*
X0070098Y0120573D01*
X0071496Y0119175D02*
X0140797Y0119175D01*
X0142195Y0117776D02*
X0072895Y0117776D01*
X0074293Y0116378D02*
X0143594Y0116378D01*
X0144992Y0114979D02*
X0075692Y0114979D01*
X0077090Y0113581D02*
X0124307Y0113581D01*
X0122909Y0112182D02*
X0078489Y0112182D01*
X0079887Y0110784D02*
X0122121Y0110784D01*
X0122121Y0109385D02*
X0081286Y0109385D01*
X0082684Y0107987D02*
X0122121Y0107987D01*
X0122538Y0106588D02*
X0084083Y0106588D01*
X0085481Y0105190D02*
X0123936Y0105190D01*
X0127380Y0103791D02*
X0086880Y0103791D01*
X0088278Y0102393D02*
X0128779Y0102393D01*
X0130177Y0100994D02*
X0089677Y0100994D01*
X0091075Y0099596D02*
X0131576Y0099596D01*
X0134483Y0106588D02*
X0153383Y0106588D01*
X0151985Y0107987D02*
X0133084Y0107987D01*
X0132721Y0109385D02*
X0150586Y0109385D01*
X0149188Y0110784D02*
X0132721Y0110784D01*
X0131934Y0112182D02*
X0147789Y0112182D01*
X0146391Y0113581D02*
X0130536Y0113581D01*
X0144881Y0105190D02*
X0154782Y0105190D01*
X0156180Y0103791D02*
X0146280Y0103791D01*
X0147678Y0102393D02*
X0157579Y0102393D01*
X0153720Y0100994D02*
X0149077Y0100994D01*
X0150475Y0099596D02*
X0152322Y0099596D01*
X0144771Y0095400D02*
X0095271Y0095400D01*
X0096669Y0094002D02*
X0104228Y0094002D01*
X0102829Y0092603D02*
X0098068Y0092603D01*
X0099466Y0091205D02*
X0101621Y0091205D01*
X0101621Y0089806D02*
X0100865Y0089806D01*
X0096560Y0084212D02*
X0088459Y0084212D01*
X0089858Y0082814D02*
X0097721Y0082814D01*
X0097721Y0081415D02*
X0091256Y0081415D01*
X0092655Y0080017D02*
X0097721Y0080017D01*
X0097721Y0078618D02*
X0093664Y0078618D01*
X0093921Y0077220D02*
X0097721Y0077220D01*
X0097721Y0075821D02*
X0093921Y0075821D01*
X0093921Y0074423D02*
X0097721Y0074423D01*
X0097721Y0073024D02*
X0093921Y0073024D01*
X0093921Y0071626D02*
X0097721Y0071626D01*
X0097721Y0070227D02*
X0093921Y0070227D01*
X0093921Y0068829D02*
X0097721Y0068829D01*
X0097793Y0067430D02*
X0093921Y0067430D01*
X0093921Y0066032D02*
X0098540Y0066032D01*
X0099939Y0064633D02*
X0093921Y0064633D01*
X0093921Y0063234D02*
X0101337Y0063234D01*
X0102121Y0061836D02*
X0093921Y0061836D01*
X0093921Y0060437D02*
X0102121Y0060437D01*
X0102587Y0059039D02*
X0093921Y0059039D01*
X0093921Y0057640D02*
X0103986Y0057640D01*
X0110857Y0057640D02*
X0143986Y0057640D01*
X0145226Y0056400D02*
X0149617Y0056400D01*
X0152721Y0059505D01*
X0152721Y0063895D01*
X0149617Y0067000D01*
X0145226Y0067000D01*
X0142121Y0063895D01*
X0142121Y0059505D01*
X0145226Y0056400D01*
X0142587Y0059039D02*
X0112256Y0059039D01*
X0112721Y0060437D02*
X0142121Y0060437D01*
X0142121Y0061836D02*
X0112721Y0061836D01*
X0112721Y0063234D02*
X0142121Y0063234D01*
X0142859Y0064633D02*
X0111984Y0064633D01*
X0110585Y0066032D02*
X0144258Y0066032D01*
X0145226Y0071400D02*
X0149617Y0071400D01*
X0152721Y0074505D01*
X0152721Y0078895D01*
X0149617Y0082000D01*
X0145226Y0082000D01*
X0142121Y0078895D01*
X0142121Y0074505D01*
X0145226Y0071400D01*
X0145001Y0071626D02*
X0109842Y0071626D01*
X0111241Y0073024D02*
X0143602Y0073024D01*
X0142204Y0074423D02*
X0112639Y0074423D01*
X0112721Y0075821D02*
X0142121Y0075821D01*
X0142121Y0077220D02*
X0112721Y0077220D01*
X0112721Y0078618D02*
X0142121Y0078618D01*
X0143243Y0080017D02*
X0111600Y0080017D01*
X0110202Y0081415D02*
X0144641Y0081415D01*
X0144414Y0084212D02*
X0109429Y0084212D01*
X0110827Y0085611D02*
X0143015Y0085611D01*
X0141621Y0087009D02*
X0112221Y0087009D01*
X0112221Y0088408D02*
X0141621Y0088408D01*
X0141621Y0089806D02*
X0112221Y0089806D01*
X0112221Y0091205D02*
X0141621Y0091205D01*
X0142829Y0092603D02*
X0111014Y0092603D01*
X0109615Y0094002D02*
X0144228Y0094002D01*
X0143373Y0096799D02*
X0093872Y0096799D01*
X0092474Y0098197D02*
X0141974Y0098197D01*
X0152221Y0087009D02*
X0153163Y0087009D01*
X0153521Y0085611D02*
X0150827Y0085611D01*
X0149429Y0084212D02*
X0152438Y0084212D01*
X0152121Y0082814D02*
X0104721Y0082814D01*
X0095161Y0085611D02*
X0087061Y0085611D01*
X0085662Y0087009D02*
X0093763Y0087009D01*
X0092364Y0088408D02*
X0084264Y0088408D01*
X0082865Y0089806D02*
X0090966Y0089806D01*
X0089567Y0091205D02*
X0082925Y0091205D01*
X0084323Y0092603D02*
X0088169Y0092603D01*
X0086770Y0094002D02*
X0085722Y0094002D01*
X0077158Y0100994D02*
X0074055Y0100994D01*
X0075453Y0099596D02*
X0075760Y0099596D01*
X0078379Y0102393D02*
X0029121Y0102393D01*
X0029121Y0103791D02*
X0076980Y0103791D01*
X0075582Y0105190D02*
X0029121Y0105190D01*
X0029121Y0106588D02*
X0074183Y0106588D01*
X0072785Y0107987D02*
X0029121Y0107987D01*
X0029121Y0109385D02*
X0071386Y0109385D01*
X0069988Y0110784D02*
X0029121Y0110784D01*
X0029121Y0112182D02*
X0068589Y0112182D01*
X0067191Y0113581D02*
X0029121Y0113581D01*
X0029121Y0114979D02*
X0065792Y0114979D01*
X0064394Y0116378D02*
X0029121Y0116378D01*
X0029121Y0117776D02*
X0062995Y0117776D01*
X0061597Y0119175D02*
X0029121Y0119175D01*
X0029121Y0120573D02*
X0060198Y0120573D01*
X0058800Y0121972D02*
X0029121Y0121972D01*
X0029121Y0123370D02*
X0057401Y0123370D01*
X0056003Y0124769D02*
X0029121Y0124769D01*
X0029121Y0126168D02*
X0054604Y0126168D01*
X0053206Y0127566D02*
X0029121Y0127566D01*
X0029121Y0128965D02*
X0051807Y0128965D01*
X0050409Y0130363D02*
X0029121Y0130363D01*
X0029121Y0131762D02*
X0049010Y0131762D01*
X0047612Y0133160D02*
X0029121Y0133160D01*
X0029121Y0134559D02*
X0046213Y0134559D01*
X0045541Y0135957D02*
X0029121Y0135957D01*
X0029121Y0137356D02*
X0045521Y0137356D01*
X0045521Y0138754D02*
X0029121Y0138754D01*
X0029121Y0140153D02*
X0045521Y0140153D01*
X0045521Y0141551D02*
X0029121Y0141551D01*
X0029121Y0142950D02*
X0045521Y0142950D01*
X0045521Y0144348D02*
X0029121Y0144348D01*
X0029121Y0145747D02*
X0045521Y0145747D01*
X0045521Y0147145D02*
X0029121Y0147145D01*
X0029121Y0148544D02*
X0045521Y0148544D01*
X0045521Y0149942D02*
X0029121Y0149942D01*
X0029121Y0151341D02*
X0045521Y0151341D01*
X0045521Y0152739D02*
X0029121Y0152739D01*
X0029121Y0154138D02*
X0045521Y0154138D01*
X0045521Y0155536D02*
X0029121Y0155536D01*
X0029121Y0156935D02*
X0045521Y0156935D01*
X0045521Y0158333D02*
X0029121Y0158333D01*
X0029121Y0159732D02*
X0045521Y0159732D01*
X0045521Y0161130D02*
X0029121Y0161130D01*
X0029121Y0162529D02*
X0045521Y0162529D01*
X0045521Y0163927D02*
X0029121Y0163927D01*
X0029121Y0165326D02*
X0045521Y0165326D01*
X0045521Y0166724D02*
X0029121Y0166724D01*
X0029121Y0168123D02*
X0045521Y0168123D01*
X0045521Y0169521D02*
X0029121Y0169521D01*
X0029121Y0170920D02*
X0045521Y0170920D01*
X0045521Y0172318D02*
X0029121Y0172318D01*
X0029121Y0173717D02*
X0045521Y0173717D01*
X0045521Y0175115D02*
X0029121Y0175115D01*
X0029121Y0176514D02*
X0045521Y0176514D01*
X0045521Y0177912D02*
X0029121Y0177912D01*
X0029121Y0179311D02*
X0045521Y0179311D01*
X0045521Y0180709D02*
X0029121Y0180709D01*
X0029121Y0182108D02*
X0045521Y0182108D01*
X0045521Y0183506D02*
X0029121Y0183506D01*
X0029121Y0184905D02*
X0045521Y0184905D01*
X0045521Y0186303D02*
X0029121Y0186303D01*
X0029121Y0187702D02*
X0043924Y0187702D01*
X0042526Y0189101D02*
X0029121Y0189101D01*
X0029121Y0190499D02*
X0042121Y0190499D01*
X0042121Y0191898D02*
X0029121Y0191898D01*
X0029121Y0193296D02*
X0042121Y0193296D01*
X0042921Y0194695D02*
X0029121Y0194695D01*
X0029121Y0196093D02*
X0044319Y0196093D01*
X0050524Y0196093D02*
X0080815Y0196093D01*
X0079880Y0197492D02*
X0029121Y0197492D01*
X0029121Y0198890D02*
X0079167Y0198890D01*
X0078889Y0200289D02*
X0029121Y0200289D01*
X0029121Y0201687D02*
X0078610Y0201687D01*
X0078588Y0201800D02*
X0078588Y0201800D01*
X0078844Y0203086D02*
X0029121Y0203086D01*
X0029121Y0204484D02*
X0079122Y0204484D01*
X0079260Y0205180D02*
X0079260Y0205180D01*
X0079730Y0205883D02*
X0029121Y0205883D01*
X0029121Y0207281D02*
X0080664Y0207281D01*
X0081175Y0208046D02*
X0081175Y0208046D01*
X0081175Y0208046D01*
X0082123Y0208680D02*
X0029363Y0208680D01*
X0051922Y0194695D02*
X0082461Y0194695D01*
X0092382Y0194695D02*
X0097680Y0194695D01*
X0096526Y0196093D02*
X0094028Y0196093D01*
X0093668Y0195554D02*
X0093668Y0195554D01*
X0093668Y0195554D01*
X0094962Y0197492D02*
X0095947Y0197492D01*
X0095583Y0198420D02*
X0095583Y0198420D01*
X0095676Y0198890D02*
X0095851Y0198890D01*
X0105163Y0194695D02*
X0107680Y0194695D01*
X0106526Y0196093D02*
X0106317Y0196093D01*
X0115163Y0194695D02*
X0117680Y0194695D01*
X0116526Y0196093D02*
X0116317Y0196093D01*
X0125163Y0194695D02*
X0137680Y0194695D01*
X0136526Y0196093D02*
X0126317Y0196093D01*
X0126896Y0197492D02*
X0135947Y0197492D01*
X0135851Y0198890D02*
X0126992Y0198890D01*
X0126992Y0200289D02*
X0135851Y0200289D01*
X0135851Y0201687D02*
X0126992Y0201687D01*
X0126992Y0203086D02*
X0135851Y0203086D01*
X0135851Y0204484D02*
X0126992Y0204484D01*
X0126907Y0205883D02*
X0135936Y0205883D01*
X0136515Y0207281D02*
X0126328Y0207281D01*
X0125189Y0208680D02*
X0137654Y0208680D01*
X0155163Y0194695D02*
X0157680Y0194695D01*
X0156526Y0196093D02*
X0156317Y0196093D01*
X0165163Y0194695D02*
X0167680Y0194695D01*
X0166526Y0196093D02*
X0166317Y0196093D01*
X0175163Y0194695D02*
X0177680Y0194695D01*
X0176526Y0196093D02*
X0176317Y0196093D01*
X0185163Y0194695D02*
X0187680Y0194695D01*
X0186526Y0196093D02*
X0186317Y0196093D01*
X0195163Y0194695D02*
X0203680Y0194695D01*
X0202526Y0196093D02*
X0196317Y0196093D01*
X0196896Y0197492D02*
X0201947Y0197492D01*
X0201851Y0198890D02*
X0196992Y0198890D01*
X0196992Y0200289D02*
X0201851Y0200289D01*
X0201851Y0201687D02*
X0196992Y0201687D01*
X0196992Y0203086D02*
X0201851Y0203086D01*
X0201851Y0204484D02*
X0196992Y0204484D01*
X0196907Y0205883D02*
X0201936Y0205883D01*
X0202515Y0207281D02*
X0196328Y0207281D01*
X0195189Y0208680D02*
X0203654Y0208680D01*
X0212317Y0196093D02*
X0212526Y0196093D01*
X0213680Y0194695D02*
X0211163Y0194695D01*
X0221163Y0194695D02*
X0223680Y0194695D01*
X0222526Y0196093D02*
X0222317Y0196093D01*
X0231163Y0194695D02*
X0233680Y0194695D01*
X0232526Y0196093D02*
X0232317Y0196093D01*
X0241163Y0194695D02*
X0243680Y0194695D01*
X0242526Y0196093D02*
X0242317Y0196093D01*
X0251163Y0194695D02*
X0253680Y0194695D01*
X0252526Y0196093D02*
X0252317Y0196093D01*
X0261163Y0194695D02*
X0263680Y0194695D01*
X0262526Y0196093D02*
X0262317Y0196093D01*
X0271163Y0194695D02*
X0273680Y0194695D01*
X0272526Y0196093D02*
X0272317Y0196093D01*
X0281163Y0194695D02*
X0285721Y0194695D01*
X0285721Y0196093D02*
X0282317Y0196093D01*
X0282896Y0197492D02*
X0285721Y0197492D01*
X0285721Y0198890D02*
X0282992Y0198890D01*
X0282992Y0200289D02*
X0285721Y0200289D01*
X0285721Y0201687D02*
X0282992Y0201687D01*
X0282992Y0203086D02*
X0285721Y0203086D01*
X0285721Y0204484D02*
X0282992Y0204484D01*
X0282907Y0205883D02*
X0284835Y0205883D01*
X0283436Y0207281D02*
X0282328Y0207281D01*
X0282038Y0208680D02*
X0281189Y0208680D01*
X0285986Y0159732D02*
X0269348Y0159732D01*
X0271773Y0158333D02*
X0287384Y0158333D01*
X0288783Y0156935D02*
X0272893Y0156935D01*
X0273472Y0155536D02*
X0290181Y0155536D01*
X0291580Y0154138D02*
X0273558Y0154138D01*
X0273420Y0152739D02*
X0292978Y0152739D01*
X0260495Y0159732D02*
X0239348Y0159732D01*
X0241773Y0158333D02*
X0258070Y0158333D01*
X0256950Y0156935D02*
X0242893Y0156935D01*
X0243472Y0155536D02*
X0256371Y0155536D01*
X0256284Y0154138D02*
X0243558Y0154138D01*
X0243420Y0152739D02*
X0256423Y0152739D01*
X0257002Y0151341D02*
X0242841Y0151341D01*
X0241649Y0149942D02*
X0258194Y0149942D01*
X0258280Y0148544D02*
X0241563Y0148544D01*
X0242806Y0147145D02*
X0257037Y0147145D01*
X0256458Y0145747D02*
X0243385Y0145747D01*
X0243558Y0144348D02*
X0256284Y0144348D01*
X0256335Y0142950D02*
X0243508Y0142950D01*
X0242928Y0141551D02*
X0256915Y0141551D01*
X0257984Y0140153D02*
X0241859Y0140153D01*
X0239555Y0138754D02*
X0260288Y0138754D01*
X0295721Y0095400D02*
X0216321Y0095400D01*
X0216321Y0094002D02*
X0295721Y0094002D01*
X0295721Y0092603D02*
X0216321Y0092603D01*
X0216321Y0091205D02*
X0295721Y0091205D01*
X0295721Y0089806D02*
X0216321Y0089806D01*
X0216321Y0088408D02*
X0295721Y0088408D01*
X0295721Y0064633D02*
X0201721Y0064633D01*
X0201451Y0063234D02*
X0295721Y0063234D01*
X0295721Y0061836D02*
X0200053Y0061836D01*
X0198654Y0060437D02*
X0295721Y0060437D01*
X0295721Y0059039D02*
X0194110Y0059039D01*
X0192712Y0057640D02*
X0295721Y0057640D01*
X0295721Y0056242D02*
X0191313Y0056242D01*
X0189915Y0054843D02*
X0295721Y0054843D01*
X0295721Y0053445D02*
X0188516Y0053445D01*
X0187118Y0052046D02*
X0295721Y0052046D01*
X0295721Y0050648D02*
X0185719Y0050648D01*
X0184321Y0049249D02*
X0295721Y0049249D01*
X0295721Y0047851D02*
X0182922Y0047851D01*
X0182121Y0046452D02*
X0295721Y0046452D01*
X0295721Y0045054D02*
X0182121Y0045054D01*
X0182121Y0043655D02*
X0295721Y0043655D01*
X0295721Y0042257D02*
X0182121Y0042257D01*
X0182121Y0040858D02*
X0295721Y0040858D01*
X0295721Y0039460D02*
X0291657Y0039460D01*
X0290968Y0039920D02*
X0290968Y0039920D01*
X0293750Y0038061D02*
X0295721Y0038061D01*
X0295721Y0036663D02*
X0294762Y0036663D01*
X0293890Y0037968D02*
X0293890Y0037968D01*
X0295696Y0035264D02*
X0295721Y0035264D01*
X0287521Y0040606D02*
X0287521Y0040606D01*
X0284075Y0039920D02*
X0284075Y0039920D01*
X0283386Y0039460D02*
X0182121Y0039460D01*
X0182121Y0038061D02*
X0281293Y0038061D01*
X0281153Y0037968D02*
X0281153Y0037968D01*
X0280281Y0036663D02*
X0182121Y0036663D01*
X0182121Y0035264D02*
X0279347Y0035264D01*
X0278966Y0033866D02*
X0182121Y0033866D01*
X0182121Y0032467D02*
X0278688Y0032467D01*
X0278621Y0031069D02*
X0182121Y0031069D01*
X0182121Y0029670D02*
X0278899Y0029670D01*
X0279178Y0028272D02*
X0182121Y0028272D01*
X0182121Y0026873D02*
X0280057Y0026873D01*
X0280991Y0025475D02*
X0182121Y0025475D01*
X0182121Y0024076D02*
X0282883Y0024076D01*
X0284075Y0023280D02*
X0284075Y0023280D01*
X0287101Y0022678D02*
X0182121Y0022678D01*
X0182121Y0021279D02*
X0294596Y0021279D01*
X0295721Y0022678D02*
X0287942Y0022678D01*
X0290968Y0023280D02*
X0290968Y0023280D01*
X0292160Y0024076D02*
X0295721Y0024076D01*
X0295721Y0025475D02*
X0294052Y0025475D01*
X0293890Y0025232D02*
X0293890Y0025232D01*
X0293890Y0025232D01*
X0294986Y0026873D02*
X0295721Y0026873D01*
X0293198Y0019881D02*
X0279809Y0019881D01*
X0281700Y0018482D02*
X0291799Y0018482D01*
X0290401Y0017084D02*
X0282604Y0017084D01*
X0283121Y0015685D02*
X0289002Y0015685D01*
X0287604Y0014287D02*
X0283121Y0014287D01*
X0283121Y0012888D02*
X0286205Y0012888D01*
X0285721Y0011490D02*
X0283121Y0011490D01*
X0283121Y0010091D02*
X0285721Y0010091D01*
X0285721Y0008693D02*
X0283121Y0008693D01*
X0283009Y0007294D02*
X0285721Y0007294D01*
X0285721Y0005896D02*
X0282429Y0005896D01*
X0281280Y0004497D02*
X0285387Y0004497D01*
X0273143Y0018482D02*
X0271700Y0018482D01*
X0269809Y0019881D02*
X0275034Y0019881D01*
X0265034Y0019881D02*
X0259809Y0019881D01*
X0261700Y0018482D02*
X0263143Y0018482D01*
X0255034Y0019881D02*
X0249809Y0019881D01*
X0251700Y0018482D02*
X0253143Y0018482D01*
X0245034Y0019881D02*
X0239809Y0019881D01*
X0241700Y0018482D02*
X0243143Y0018482D01*
X0235034Y0019881D02*
X0229809Y0019881D01*
X0231700Y0018482D02*
X0233143Y0018482D01*
X0225034Y0019881D02*
X0209156Y0019881D01*
X0211387Y0018482D02*
X0223143Y0018482D01*
X0222239Y0017084D02*
X0212409Y0017084D01*
X0212989Y0015685D02*
X0221721Y0015685D01*
X0221721Y0014287D02*
X0212992Y0014287D01*
X0212992Y0012888D02*
X0221721Y0012888D01*
X0221721Y0011490D02*
X0212992Y0011490D01*
X0212992Y0010091D02*
X0221721Y0010091D01*
X0221721Y0008693D02*
X0212992Y0008693D01*
X0212814Y0007294D02*
X0221834Y0007294D01*
X0222413Y0005896D02*
X0212235Y0005896D01*
X0210966Y0004497D02*
X0223563Y0004497D01*
X0203877Y0004497D02*
X0180966Y0004497D01*
X0182235Y0005896D02*
X0202608Y0005896D01*
X0202029Y0007294D02*
X0182814Y0007294D01*
X0182992Y0008693D02*
X0201851Y0008693D01*
X0201851Y0010091D02*
X0182992Y0010091D01*
X0182992Y0011490D02*
X0201851Y0011490D01*
X0201851Y0012888D02*
X0182992Y0012888D01*
X0182992Y0014287D02*
X0201851Y0014287D01*
X0201854Y0015685D02*
X0182989Y0015685D01*
X0182409Y0017084D02*
X0202434Y0017084D01*
X0203456Y0018482D02*
X0182121Y0018482D01*
X0182121Y0019881D02*
X0205687Y0019881D01*
X0175121Y0019881D02*
X0169156Y0019881D01*
X0171387Y0018482D02*
X0173456Y0018482D01*
X0172434Y0017084D02*
X0172409Y0017084D01*
X0175121Y0021279D02*
X0047721Y0021279D01*
X0047721Y0019881D02*
X0078460Y0019881D01*
X0076367Y0018482D02*
X0046699Y0018482D01*
X0047721Y0019505D02*
X0044617Y0016400D01*
X0040226Y0016400D01*
X0037121Y0019505D01*
X0037121Y0023895D01*
X0040226Y0027000D01*
X0044617Y0027000D01*
X0047721Y0023895D01*
X0047721Y0019505D01*
X0047721Y0022678D02*
X0175121Y0022678D01*
X0175121Y0024076D02*
X0047541Y0024076D01*
X0046142Y0025475D02*
X0175121Y0025475D01*
X0175121Y0026873D02*
X0044744Y0026873D01*
X0040099Y0026873D02*
X0029121Y0026873D01*
X0029121Y0025475D02*
X0038701Y0025475D01*
X0037302Y0024076D02*
X0029121Y0024076D01*
X0029121Y0022678D02*
X0037121Y0022678D01*
X0037121Y0021279D02*
X0029121Y0021279D01*
X0029121Y0019881D02*
X0037121Y0019881D01*
X0038144Y0018482D02*
X0029121Y0018482D01*
X0029121Y0017084D02*
X0039543Y0017084D01*
X0045300Y0017084D02*
X0075191Y0017084D01*
X0074257Y0015685D02*
X0029121Y0015685D01*
X0029121Y0014287D02*
X0073757Y0014287D01*
X0073479Y0012888D02*
X0029121Y0012888D01*
X0029121Y0011490D02*
X0073284Y0011490D01*
X0073242Y0011700D02*
X0073242Y0011700D01*
X0073562Y0010091D02*
X0029121Y0010091D01*
X0029121Y0008693D02*
X0073841Y0008693D01*
X0073941Y0008187D02*
X0073941Y0008187D01*
X0074538Y0007294D02*
X0029121Y0007294D01*
X0029121Y0005896D02*
X0075472Y0005896D01*
X0075931Y0005209D02*
X0075931Y0005209D01*
X0075931Y0005209D01*
X0076997Y0004497D02*
X0029456Y0004497D01*
X0029121Y0028272D02*
X0088354Y0028272D01*
X0086956Y0029670D02*
X0029121Y0029670D01*
X0029121Y0031069D02*
X0085621Y0031069D01*
X0085621Y0032467D02*
X0029121Y0032467D01*
X0029121Y0033866D02*
X0085621Y0033866D01*
X0085621Y0035264D02*
X0029121Y0035264D01*
X0029121Y0036663D02*
X0086889Y0036663D01*
X0086921Y0038061D02*
X0029121Y0038061D01*
X0029121Y0039460D02*
X0086921Y0039460D01*
X0086921Y0040858D02*
X0029121Y0040858D01*
X0029121Y0042257D02*
X0086921Y0042257D01*
X0086921Y0043655D02*
X0029121Y0043655D01*
X0029121Y0045054D02*
X0086921Y0045054D01*
X0086921Y0046452D02*
X0029121Y0046452D01*
X0029121Y0047851D02*
X0086921Y0047851D01*
X0086921Y0049249D02*
X0029121Y0049249D01*
X0029121Y0050648D02*
X0086921Y0050648D01*
X0086921Y0052046D02*
X0029121Y0052046D01*
X0029121Y0053445D02*
X0086921Y0053445D01*
X0086921Y0054843D02*
X0029121Y0054843D01*
X0029121Y0056242D02*
X0086921Y0056242D01*
X0086921Y0057640D02*
X0029121Y0057640D01*
X0029121Y0059039D02*
X0086921Y0059039D01*
X0086921Y0060437D02*
X0029121Y0060437D01*
X0029121Y0061836D02*
X0086921Y0061836D01*
X0086921Y0063234D02*
X0029121Y0063234D01*
X0029121Y0064633D02*
X0077734Y0064633D01*
X0078053Y0064314D02*
X0074831Y0067536D01*
X0074831Y0072092D01*
X0078053Y0075314D01*
X0082609Y0075314D01*
X0085831Y0072092D01*
X0085831Y0067536D01*
X0082609Y0064314D01*
X0078053Y0064314D01*
X0076335Y0066032D02*
X0029121Y0066032D01*
X0029121Y0067430D02*
X0074937Y0067430D01*
X0074831Y0068829D02*
X0029121Y0068829D01*
X0029121Y0070227D02*
X0074831Y0070227D01*
X0074831Y0071626D02*
X0029121Y0071626D01*
X0029121Y0073024D02*
X0067965Y0073024D01*
X0066566Y0074423D02*
X0029121Y0074423D01*
X0029121Y0075821D02*
X0065185Y0075821D01*
X0065185Y0077220D02*
X0029121Y0077220D01*
X0029121Y0078618D02*
X0065185Y0078618D01*
X0065185Y0080017D02*
X0029121Y0080017D01*
X0029121Y0081415D02*
X0066240Y0081415D01*
X0067639Y0082814D02*
X0029121Y0082814D01*
X0029121Y0084212D02*
X0067013Y0084212D01*
X0065615Y0085611D02*
X0029121Y0085611D01*
X0029121Y0087009D02*
X0065185Y0087009D01*
X0065185Y0088408D02*
X0029121Y0088408D01*
X0029121Y0089806D02*
X0065185Y0089806D01*
X0065794Y0091205D02*
X0029121Y0091205D01*
X0029121Y0092603D02*
X0066890Y0092603D01*
X0065491Y0094002D02*
X0029121Y0094002D01*
X0029121Y0095400D02*
X0065185Y0095400D01*
X0065185Y0096799D02*
X0029121Y0096799D01*
X0029121Y0098197D02*
X0065185Y0098197D01*
X0065917Y0099596D02*
X0029121Y0099596D01*
X0029121Y0100994D02*
X0067316Y0100994D01*
X0075756Y0085611D02*
X0077161Y0085611D01*
X0078560Y0084212D02*
X0074357Y0084212D01*
X0073732Y0082814D02*
X0079958Y0082814D01*
X0081357Y0081415D02*
X0075130Y0081415D01*
X0076185Y0080017D02*
X0082755Y0080017D01*
X0084154Y0078618D02*
X0076185Y0078618D01*
X0076185Y0077220D02*
X0085552Y0077220D01*
X0086921Y0075821D02*
X0076185Y0075821D01*
X0077161Y0074423D02*
X0074804Y0074423D01*
X0075763Y0073024D02*
X0073406Y0073024D01*
X0083501Y0074423D02*
X0086921Y0074423D01*
X0086921Y0073024D02*
X0084899Y0073024D01*
X0085831Y0071626D02*
X0086921Y0071626D01*
X0086921Y0070227D02*
X0085831Y0070227D01*
X0085831Y0068829D02*
X0086921Y0068829D01*
X0086921Y0067430D02*
X0085725Y0067430D01*
X0086921Y0066032D02*
X0084326Y0066032D01*
X0082928Y0064633D02*
X0086921Y0064633D01*
X0093921Y0056242D02*
X0181414Y0056242D01*
X0182812Y0057640D02*
X0150857Y0057640D01*
X0152256Y0059039D02*
X0184211Y0059039D01*
X0185609Y0060437D02*
X0152721Y0060437D01*
X0152721Y0061836D02*
X0187008Y0061836D01*
X0188406Y0063234D02*
X0152721Y0063234D01*
X0151984Y0064633D02*
X0189805Y0064633D01*
X0191121Y0066032D02*
X0150585Y0066032D01*
X0149842Y0071626D02*
X0196797Y0071626D01*
X0193453Y0070227D02*
X0104721Y0070227D01*
X0104721Y0071626D02*
X0105001Y0071626D01*
X0105643Y0068829D02*
X0192055Y0068829D01*
X0191121Y0067430D02*
X0107041Y0067430D01*
X0093921Y0054843D02*
X0180015Y0054843D01*
X0178617Y0053445D02*
X0093921Y0053445D01*
X0093921Y0052046D02*
X0177218Y0052046D01*
X0175121Y0043655D02*
X0093921Y0043655D01*
X0093921Y0042257D02*
X0175121Y0042257D01*
X0175121Y0040858D02*
X0093921Y0040858D01*
X0093921Y0039460D02*
X0175121Y0039460D01*
X0175121Y0038061D02*
X0133556Y0038061D01*
X0133117Y0038500D02*
X0128726Y0038500D01*
X0125621Y0035395D01*
X0125621Y0031005D01*
X0128726Y0027900D01*
X0133117Y0027900D01*
X0136221Y0031005D01*
X0136221Y0035395D01*
X0133117Y0038500D01*
X0134954Y0036663D02*
X0175121Y0036663D01*
X0175121Y0035264D02*
X0136221Y0035264D01*
X0136221Y0033866D02*
X0175121Y0033866D01*
X0175121Y0032467D02*
X0136221Y0032467D01*
X0136221Y0031069D02*
X0175121Y0031069D01*
X0175121Y0029670D02*
X0134887Y0029670D01*
X0133489Y0028272D02*
X0175121Y0028272D01*
X0165687Y0019881D02*
X0159156Y0019881D01*
X0161387Y0018482D02*
X0163456Y0018482D01*
X0162434Y0017084D02*
X0162409Y0017084D01*
X0155687Y0019881D02*
X0149156Y0019881D01*
X0151387Y0018482D02*
X0153456Y0018482D01*
X0152434Y0017084D02*
X0152409Y0017084D01*
X0145687Y0019881D02*
X0139156Y0019881D01*
X0141387Y0018482D02*
X0143456Y0018482D01*
X0142434Y0017084D02*
X0142409Y0017084D01*
X0135687Y0019881D02*
X0086383Y0019881D01*
X0085934Y0020180D02*
X0085934Y0020180D01*
X0088476Y0018482D02*
X0133456Y0018482D01*
X0132434Y0017084D02*
X0089652Y0017084D01*
X0088912Y0018191D02*
X0088912Y0018191D01*
X0088912Y0018191D01*
X0090586Y0015685D02*
X0131854Y0015685D01*
X0131851Y0014287D02*
X0091086Y0014287D01*
X0090902Y0015213D02*
X0090902Y0015213D01*
X0091364Y0012888D02*
X0131851Y0012888D01*
X0131851Y0011490D02*
X0091559Y0011490D01*
X0091281Y0010091D02*
X0131851Y0010091D01*
X0131851Y0008693D02*
X0091002Y0008693D01*
X0090305Y0007294D02*
X0132029Y0007294D01*
X0132608Y0005896D02*
X0089371Y0005896D01*
X0087846Y0004497D02*
X0133877Y0004497D01*
X0128354Y0028272D02*
X0093489Y0028272D01*
X0094887Y0029670D02*
X0126956Y0029670D01*
X0125621Y0031069D02*
X0096221Y0031069D01*
X0096221Y0032467D02*
X0125621Y0032467D01*
X0125621Y0033866D02*
X0096221Y0033866D01*
X0096221Y0035264D02*
X0125621Y0035264D01*
X0126889Y0036663D02*
X0094954Y0036663D01*
X0093921Y0038061D02*
X0128287Y0038061D01*
X0151241Y0073024D02*
X0174348Y0073024D01*
X0172949Y0074423D02*
X0152639Y0074423D01*
X0152721Y0075821D02*
X0171551Y0075821D01*
X0170152Y0077220D02*
X0160436Y0077220D01*
X0161835Y0078618D02*
X0168754Y0078618D01*
X0167355Y0080017D02*
X0162721Y0080017D01*
X0162721Y0081415D02*
X0165957Y0081415D01*
X0164558Y0082814D02*
X0162721Y0082814D01*
X0162405Y0084212D02*
X0163160Y0084212D01*
X0161761Y0085611D02*
X0161006Y0085611D01*
X0152121Y0081415D02*
X0150202Y0081415D01*
X0151600Y0080017D02*
X0152121Y0080017D01*
X0152721Y0078618D02*
X0153008Y0078618D01*
X0152721Y0077220D02*
X0154407Y0077220D01*
X0163283Y0106588D02*
X0164321Y0106588D01*
X0164321Y0107987D02*
X0161884Y0107987D01*
X0160486Y0109385D02*
X0164321Y0109385D01*
X0164321Y0110784D02*
X0159087Y0110784D01*
X0157689Y0112182D02*
X0164321Y0112182D01*
X0164321Y0113581D02*
X0156290Y0113581D01*
X0154892Y0114979D02*
X0164321Y0114979D01*
X0164321Y0116378D02*
X0153493Y0116378D01*
X0152095Y0117776D02*
X0164321Y0117776D01*
X0164321Y0119175D02*
X0150696Y0119175D01*
X0149298Y0120573D02*
X0164321Y0120573D01*
X0164643Y0121972D02*
X0147899Y0121972D01*
X0146501Y0123370D02*
X0165742Y0123370D01*
X0167141Y0124769D02*
X0146121Y0124769D01*
X0146121Y0126168D02*
X0168539Y0126168D01*
X0169938Y0127566D02*
X0146121Y0127566D01*
X0146121Y0128965D02*
X0171336Y0128965D01*
X0172735Y0130363D02*
X0146121Y0130363D01*
X0146121Y0131762D02*
X0174133Y0131762D01*
X0175532Y0133160D02*
X0146121Y0133160D01*
X0146121Y0134559D02*
X0176930Y0134559D01*
X0178329Y0135957D02*
X0146121Y0135957D01*
X0200123Y0100994D02*
X0204669Y0100994D01*
X0203368Y0099596D02*
X0201521Y0099596D01*
X0202221Y0098197D02*
X0202789Y0098197D01*
X0202721Y0096799D02*
X0202221Y0096799D01*
X0202221Y0095400D02*
X0203038Y0095400D01*
X0203873Y0094002D02*
X0201719Y0094002D01*
X0082421Y0020879D02*
X0082421Y0020879D01*
X0084041Y0209961D02*
X0084041Y0209961D01*
M02*
