G75*
%MOIN*%
%OFA0B0*%
%FSLAX25Y25*%
%IPPOS*%
%LPD*%
%AMOC8*
5,1,8,0,0,1.08239X$1,22.5*
%
%ADD10C,0.01100*%
%ADD11C,0.01000*%
%ADD12C,0.00500*%
D10*
X0274482Y0056246D02*
X0275466Y0056246D01*
X0277435Y0056246D02*
X0281371Y0056246D01*
X0281371Y0057230D02*
X0281371Y0055261D01*
X0280387Y0052933D02*
X0281371Y0051949D01*
X0281371Y0049980D01*
X0280387Y0048996D01*
X0278419Y0048996D01*
X0277435Y0049980D01*
X0277435Y0051949D01*
X0278419Y0052933D01*
X0280387Y0052933D01*
X0277435Y0056246D02*
X0277435Y0057230D01*
X0277435Y0059739D02*
X0277435Y0062691D01*
X0278419Y0063675D01*
X0279403Y0062691D01*
X0279403Y0060723D01*
X0280387Y0059739D01*
X0281371Y0060723D01*
X0281371Y0063675D01*
X0277435Y0066094D02*
X0277435Y0067078D01*
X0279403Y0069047D01*
X0281371Y0069047D02*
X0277435Y0069047D01*
X0278419Y0071555D02*
X0279403Y0071555D01*
X0279403Y0075492D01*
X0278419Y0075492D02*
X0277435Y0074508D01*
X0277435Y0072540D01*
X0278419Y0071555D01*
X0281371Y0072540D02*
X0281371Y0074508D01*
X0280387Y0075492D01*
X0278419Y0075492D01*
X0279403Y0078001D02*
X0275466Y0078001D01*
X0279403Y0078001D02*
X0281371Y0079969D01*
X0279403Y0081938D01*
X0275466Y0081938D01*
X0278419Y0090892D02*
X0279403Y0090892D01*
X0279403Y0094829D01*
X0278419Y0094829D02*
X0277435Y0093844D01*
X0277435Y0091876D01*
X0278419Y0090892D01*
X0281371Y0091876D02*
X0281371Y0093844D01*
X0280387Y0094829D01*
X0278419Y0094829D01*
X0277435Y0097247D02*
X0277435Y0098231D01*
X0279403Y0100200D01*
X0281371Y0100200D02*
X0277435Y0100200D01*
X0278419Y0102709D02*
X0277435Y0103693D01*
X0277435Y0105661D01*
X0279403Y0105661D02*
X0279403Y0102709D01*
X0278419Y0102709D02*
X0281371Y0102709D01*
X0281371Y0105661D01*
X0280387Y0106645D01*
X0279403Y0105661D01*
X0280387Y0109154D02*
X0277435Y0109154D01*
X0280387Y0109154D02*
X0281371Y0110138D01*
X0280387Y0111122D01*
X0281371Y0112107D01*
X0280387Y0113091D01*
X0277435Y0113091D01*
X0278419Y0115600D02*
X0281371Y0115600D01*
X0281371Y0117568D02*
X0278419Y0117568D01*
X0277435Y0116584D01*
X0278419Y0115600D01*
X0278419Y0117568D02*
X0277435Y0118552D01*
X0277435Y0119536D01*
X0281371Y0119536D01*
X0277435Y0121955D02*
X0277435Y0122939D01*
X0279403Y0124908D01*
X0281371Y0124908D02*
X0277435Y0124908D01*
X0277435Y0128220D02*
X0281371Y0128220D01*
X0281371Y0127236D02*
X0281371Y0129205D01*
X0277435Y0129205D02*
X0277435Y0128220D01*
X0275466Y0128220D02*
X0274482Y0128220D01*
X0275466Y0131713D02*
X0275466Y0135650D01*
X0281371Y0135650D01*
X0278419Y0135650D02*
X0278419Y0133682D01*
X0277435Y0046487D02*
X0277435Y0043535D01*
X0278419Y0042551D01*
X0281371Y0042551D01*
X0281371Y0040042D02*
X0280387Y0040042D01*
X0280387Y0039058D01*
X0281371Y0039058D01*
X0281371Y0040042D01*
X0278419Y0040042D02*
X0278419Y0039058D01*
X0277435Y0039058D01*
X0277435Y0040042D01*
X0278419Y0040042D01*
X0277435Y0046487D02*
X0281371Y0046487D01*
D11*
X0288380Y0056700D02*
X0288382Y0056810D01*
X0288388Y0056919D01*
X0288398Y0057029D01*
X0288412Y0057138D01*
X0288429Y0057246D01*
X0288451Y0057354D01*
X0288477Y0057461D01*
X0288506Y0057566D01*
X0288539Y0057671D01*
X0288576Y0057774D01*
X0288617Y0057876D01*
X0288661Y0057977D01*
X0288709Y0058076D01*
X0288760Y0058173D01*
X0288815Y0058268D01*
X0288874Y0058361D01*
X0288935Y0058452D01*
X0289000Y0058540D01*
X0289068Y0058627D01*
X0289139Y0058710D01*
X0289213Y0058791D01*
X0289290Y0058870D01*
X0289370Y0058945D01*
X0289452Y0059018D01*
X0289537Y0059087D01*
X0289625Y0059154D01*
X0289714Y0059217D01*
X0289806Y0059277D01*
X0289900Y0059334D01*
X0289997Y0059387D01*
X0290094Y0059436D01*
X0290194Y0059483D01*
X0290295Y0059525D01*
X0290398Y0059564D01*
X0290502Y0059599D01*
X0290607Y0059630D01*
X0290714Y0059658D01*
X0290821Y0059681D01*
X0290929Y0059701D01*
X0291038Y0059717D01*
X0291147Y0059729D01*
X0291256Y0059737D01*
X0291366Y0059741D01*
X0291476Y0059741D01*
X0291586Y0059737D01*
X0291695Y0059729D01*
X0291804Y0059717D01*
X0291913Y0059701D01*
X0292021Y0059681D01*
X0292128Y0059658D01*
X0292235Y0059630D01*
X0292340Y0059599D01*
X0292444Y0059564D01*
X0292547Y0059525D01*
X0292648Y0059483D01*
X0292748Y0059436D01*
X0292845Y0059387D01*
X0292941Y0059334D01*
X0293036Y0059277D01*
X0293128Y0059217D01*
X0293217Y0059154D01*
X0293305Y0059087D01*
X0293390Y0059018D01*
X0293472Y0058945D01*
X0293552Y0058870D01*
X0293629Y0058791D01*
X0293703Y0058710D01*
X0293774Y0058627D01*
X0293842Y0058540D01*
X0293907Y0058452D01*
X0293968Y0058361D01*
X0294027Y0058268D01*
X0294082Y0058173D01*
X0294133Y0058076D01*
X0294181Y0057977D01*
X0294225Y0057876D01*
X0294266Y0057774D01*
X0294303Y0057671D01*
X0294336Y0057566D01*
X0294365Y0057461D01*
X0294391Y0057354D01*
X0294413Y0057246D01*
X0294430Y0057138D01*
X0294444Y0057029D01*
X0294454Y0056919D01*
X0294460Y0056810D01*
X0294462Y0056700D01*
X0294460Y0056590D01*
X0294454Y0056481D01*
X0294444Y0056371D01*
X0294430Y0056262D01*
X0294413Y0056154D01*
X0294391Y0056046D01*
X0294365Y0055939D01*
X0294336Y0055834D01*
X0294303Y0055729D01*
X0294266Y0055626D01*
X0294225Y0055524D01*
X0294181Y0055423D01*
X0294133Y0055324D01*
X0294082Y0055227D01*
X0294027Y0055132D01*
X0293968Y0055039D01*
X0293907Y0054948D01*
X0293842Y0054860D01*
X0293774Y0054773D01*
X0293703Y0054690D01*
X0293629Y0054609D01*
X0293552Y0054530D01*
X0293472Y0054455D01*
X0293390Y0054382D01*
X0293305Y0054313D01*
X0293217Y0054246D01*
X0293128Y0054183D01*
X0293036Y0054123D01*
X0292942Y0054066D01*
X0292845Y0054013D01*
X0292748Y0053964D01*
X0292648Y0053917D01*
X0292547Y0053875D01*
X0292444Y0053836D01*
X0292340Y0053801D01*
X0292235Y0053770D01*
X0292128Y0053742D01*
X0292021Y0053719D01*
X0291913Y0053699D01*
X0291804Y0053683D01*
X0291695Y0053671D01*
X0291586Y0053663D01*
X0291476Y0053659D01*
X0291366Y0053659D01*
X0291256Y0053663D01*
X0291147Y0053671D01*
X0291038Y0053683D01*
X0290929Y0053699D01*
X0290821Y0053719D01*
X0290714Y0053742D01*
X0290607Y0053770D01*
X0290502Y0053801D01*
X0290398Y0053836D01*
X0290295Y0053875D01*
X0290194Y0053917D01*
X0290094Y0053964D01*
X0289997Y0054013D01*
X0289900Y0054066D01*
X0289806Y0054123D01*
X0289714Y0054183D01*
X0289625Y0054246D01*
X0289537Y0054313D01*
X0289452Y0054382D01*
X0289370Y0054455D01*
X0289290Y0054530D01*
X0289213Y0054609D01*
X0289139Y0054690D01*
X0289068Y0054773D01*
X0289000Y0054860D01*
X0288935Y0054948D01*
X0288874Y0055039D01*
X0288815Y0055132D01*
X0288760Y0055227D01*
X0288709Y0055324D01*
X0288661Y0055423D01*
X0288617Y0055524D01*
X0288576Y0055626D01*
X0288539Y0055729D01*
X0288506Y0055834D01*
X0288477Y0055939D01*
X0288451Y0056046D01*
X0288429Y0056154D01*
X0288412Y0056262D01*
X0288398Y0056371D01*
X0288388Y0056481D01*
X0288382Y0056590D01*
X0288380Y0056700D01*
X0288380Y0071700D02*
X0288382Y0071810D01*
X0288388Y0071919D01*
X0288398Y0072029D01*
X0288412Y0072138D01*
X0288429Y0072246D01*
X0288451Y0072354D01*
X0288477Y0072461D01*
X0288506Y0072566D01*
X0288539Y0072671D01*
X0288576Y0072774D01*
X0288617Y0072876D01*
X0288661Y0072977D01*
X0288709Y0073076D01*
X0288760Y0073173D01*
X0288815Y0073268D01*
X0288874Y0073361D01*
X0288935Y0073452D01*
X0289000Y0073540D01*
X0289068Y0073627D01*
X0289139Y0073710D01*
X0289213Y0073791D01*
X0289290Y0073870D01*
X0289370Y0073945D01*
X0289452Y0074018D01*
X0289537Y0074087D01*
X0289625Y0074154D01*
X0289714Y0074217D01*
X0289806Y0074277D01*
X0289900Y0074334D01*
X0289997Y0074387D01*
X0290094Y0074436D01*
X0290194Y0074483D01*
X0290295Y0074525D01*
X0290398Y0074564D01*
X0290502Y0074599D01*
X0290607Y0074630D01*
X0290714Y0074658D01*
X0290821Y0074681D01*
X0290929Y0074701D01*
X0291038Y0074717D01*
X0291147Y0074729D01*
X0291256Y0074737D01*
X0291366Y0074741D01*
X0291476Y0074741D01*
X0291586Y0074737D01*
X0291695Y0074729D01*
X0291804Y0074717D01*
X0291913Y0074701D01*
X0292021Y0074681D01*
X0292128Y0074658D01*
X0292235Y0074630D01*
X0292340Y0074599D01*
X0292444Y0074564D01*
X0292547Y0074525D01*
X0292648Y0074483D01*
X0292748Y0074436D01*
X0292845Y0074387D01*
X0292941Y0074334D01*
X0293036Y0074277D01*
X0293128Y0074217D01*
X0293217Y0074154D01*
X0293305Y0074087D01*
X0293390Y0074018D01*
X0293472Y0073945D01*
X0293552Y0073870D01*
X0293629Y0073791D01*
X0293703Y0073710D01*
X0293774Y0073627D01*
X0293842Y0073540D01*
X0293907Y0073452D01*
X0293968Y0073361D01*
X0294027Y0073268D01*
X0294082Y0073173D01*
X0294133Y0073076D01*
X0294181Y0072977D01*
X0294225Y0072876D01*
X0294266Y0072774D01*
X0294303Y0072671D01*
X0294336Y0072566D01*
X0294365Y0072461D01*
X0294391Y0072354D01*
X0294413Y0072246D01*
X0294430Y0072138D01*
X0294444Y0072029D01*
X0294454Y0071919D01*
X0294460Y0071810D01*
X0294462Y0071700D01*
X0294460Y0071590D01*
X0294454Y0071481D01*
X0294444Y0071371D01*
X0294430Y0071262D01*
X0294413Y0071154D01*
X0294391Y0071046D01*
X0294365Y0070939D01*
X0294336Y0070834D01*
X0294303Y0070729D01*
X0294266Y0070626D01*
X0294225Y0070524D01*
X0294181Y0070423D01*
X0294133Y0070324D01*
X0294082Y0070227D01*
X0294027Y0070132D01*
X0293968Y0070039D01*
X0293907Y0069948D01*
X0293842Y0069860D01*
X0293774Y0069773D01*
X0293703Y0069690D01*
X0293629Y0069609D01*
X0293552Y0069530D01*
X0293472Y0069455D01*
X0293390Y0069382D01*
X0293305Y0069313D01*
X0293217Y0069246D01*
X0293128Y0069183D01*
X0293036Y0069123D01*
X0292942Y0069066D01*
X0292845Y0069013D01*
X0292748Y0068964D01*
X0292648Y0068917D01*
X0292547Y0068875D01*
X0292444Y0068836D01*
X0292340Y0068801D01*
X0292235Y0068770D01*
X0292128Y0068742D01*
X0292021Y0068719D01*
X0291913Y0068699D01*
X0291804Y0068683D01*
X0291695Y0068671D01*
X0291586Y0068663D01*
X0291476Y0068659D01*
X0291366Y0068659D01*
X0291256Y0068663D01*
X0291147Y0068671D01*
X0291038Y0068683D01*
X0290929Y0068699D01*
X0290821Y0068719D01*
X0290714Y0068742D01*
X0290607Y0068770D01*
X0290502Y0068801D01*
X0290398Y0068836D01*
X0290295Y0068875D01*
X0290194Y0068917D01*
X0290094Y0068964D01*
X0289997Y0069013D01*
X0289900Y0069066D01*
X0289806Y0069123D01*
X0289714Y0069183D01*
X0289625Y0069246D01*
X0289537Y0069313D01*
X0289452Y0069382D01*
X0289370Y0069455D01*
X0289290Y0069530D01*
X0289213Y0069609D01*
X0289139Y0069690D01*
X0289068Y0069773D01*
X0289000Y0069860D01*
X0288935Y0069948D01*
X0288874Y0070039D01*
X0288815Y0070132D01*
X0288760Y0070227D01*
X0288709Y0070324D01*
X0288661Y0070423D01*
X0288617Y0070524D01*
X0288576Y0070626D01*
X0288539Y0070729D01*
X0288506Y0070834D01*
X0288477Y0070939D01*
X0288451Y0071046D01*
X0288429Y0071154D01*
X0288412Y0071262D01*
X0288398Y0071371D01*
X0288388Y0071481D01*
X0288382Y0071590D01*
X0288380Y0071700D01*
X0288380Y0086700D02*
X0288382Y0086810D01*
X0288388Y0086919D01*
X0288398Y0087029D01*
X0288412Y0087138D01*
X0288429Y0087246D01*
X0288451Y0087354D01*
X0288477Y0087461D01*
X0288506Y0087566D01*
X0288539Y0087671D01*
X0288576Y0087774D01*
X0288617Y0087876D01*
X0288661Y0087977D01*
X0288709Y0088076D01*
X0288760Y0088173D01*
X0288815Y0088268D01*
X0288874Y0088361D01*
X0288935Y0088452D01*
X0289000Y0088540D01*
X0289068Y0088627D01*
X0289139Y0088710D01*
X0289213Y0088791D01*
X0289290Y0088870D01*
X0289370Y0088945D01*
X0289452Y0089018D01*
X0289537Y0089087D01*
X0289625Y0089154D01*
X0289714Y0089217D01*
X0289806Y0089277D01*
X0289900Y0089334D01*
X0289997Y0089387D01*
X0290094Y0089436D01*
X0290194Y0089483D01*
X0290295Y0089525D01*
X0290398Y0089564D01*
X0290502Y0089599D01*
X0290607Y0089630D01*
X0290714Y0089658D01*
X0290821Y0089681D01*
X0290929Y0089701D01*
X0291038Y0089717D01*
X0291147Y0089729D01*
X0291256Y0089737D01*
X0291366Y0089741D01*
X0291476Y0089741D01*
X0291586Y0089737D01*
X0291695Y0089729D01*
X0291804Y0089717D01*
X0291913Y0089701D01*
X0292021Y0089681D01*
X0292128Y0089658D01*
X0292235Y0089630D01*
X0292340Y0089599D01*
X0292444Y0089564D01*
X0292547Y0089525D01*
X0292648Y0089483D01*
X0292748Y0089436D01*
X0292845Y0089387D01*
X0292941Y0089334D01*
X0293036Y0089277D01*
X0293128Y0089217D01*
X0293217Y0089154D01*
X0293305Y0089087D01*
X0293390Y0089018D01*
X0293472Y0088945D01*
X0293552Y0088870D01*
X0293629Y0088791D01*
X0293703Y0088710D01*
X0293774Y0088627D01*
X0293842Y0088540D01*
X0293907Y0088452D01*
X0293968Y0088361D01*
X0294027Y0088268D01*
X0294082Y0088173D01*
X0294133Y0088076D01*
X0294181Y0087977D01*
X0294225Y0087876D01*
X0294266Y0087774D01*
X0294303Y0087671D01*
X0294336Y0087566D01*
X0294365Y0087461D01*
X0294391Y0087354D01*
X0294413Y0087246D01*
X0294430Y0087138D01*
X0294444Y0087029D01*
X0294454Y0086919D01*
X0294460Y0086810D01*
X0294462Y0086700D01*
X0294460Y0086590D01*
X0294454Y0086481D01*
X0294444Y0086371D01*
X0294430Y0086262D01*
X0294413Y0086154D01*
X0294391Y0086046D01*
X0294365Y0085939D01*
X0294336Y0085834D01*
X0294303Y0085729D01*
X0294266Y0085626D01*
X0294225Y0085524D01*
X0294181Y0085423D01*
X0294133Y0085324D01*
X0294082Y0085227D01*
X0294027Y0085132D01*
X0293968Y0085039D01*
X0293907Y0084948D01*
X0293842Y0084860D01*
X0293774Y0084773D01*
X0293703Y0084690D01*
X0293629Y0084609D01*
X0293552Y0084530D01*
X0293472Y0084455D01*
X0293390Y0084382D01*
X0293305Y0084313D01*
X0293217Y0084246D01*
X0293128Y0084183D01*
X0293036Y0084123D01*
X0292942Y0084066D01*
X0292845Y0084013D01*
X0292748Y0083964D01*
X0292648Y0083917D01*
X0292547Y0083875D01*
X0292444Y0083836D01*
X0292340Y0083801D01*
X0292235Y0083770D01*
X0292128Y0083742D01*
X0292021Y0083719D01*
X0291913Y0083699D01*
X0291804Y0083683D01*
X0291695Y0083671D01*
X0291586Y0083663D01*
X0291476Y0083659D01*
X0291366Y0083659D01*
X0291256Y0083663D01*
X0291147Y0083671D01*
X0291038Y0083683D01*
X0290929Y0083699D01*
X0290821Y0083719D01*
X0290714Y0083742D01*
X0290607Y0083770D01*
X0290502Y0083801D01*
X0290398Y0083836D01*
X0290295Y0083875D01*
X0290194Y0083917D01*
X0290094Y0083964D01*
X0289997Y0084013D01*
X0289900Y0084066D01*
X0289806Y0084123D01*
X0289714Y0084183D01*
X0289625Y0084246D01*
X0289537Y0084313D01*
X0289452Y0084382D01*
X0289370Y0084455D01*
X0289290Y0084530D01*
X0289213Y0084609D01*
X0289139Y0084690D01*
X0289068Y0084773D01*
X0289000Y0084860D01*
X0288935Y0084948D01*
X0288874Y0085039D01*
X0288815Y0085132D01*
X0288760Y0085227D01*
X0288709Y0085324D01*
X0288661Y0085423D01*
X0288617Y0085524D01*
X0288576Y0085626D01*
X0288539Y0085729D01*
X0288506Y0085834D01*
X0288477Y0085939D01*
X0288451Y0086046D01*
X0288429Y0086154D01*
X0288412Y0086262D01*
X0288398Y0086371D01*
X0288388Y0086481D01*
X0288382Y0086590D01*
X0288380Y0086700D01*
X0288380Y0101700D02*
X0288382Y0101810D01*
X0288388Y0101919D01*
X0288398Y0102029D01*
X0288412Y0102138D01*
X0288429Y0102246D01*
X0288451Y0102354D01*
X0288477Y0102461D01*
X0288506Y0102566D01*
X0288539Y0102671D01*
X0288576Y0102774D01*
X0288617Y0102876D01*
X0288661Y0102977D01*
X0288709Y0103076D01*
X0288760Y0103173D01*
X0288815Y0103268D01*
X0288874Y0103361D01*
X0288935Y0103452D01*
X0289000Y0103540D01*
X0289068Y0103627D01*
X0289139Y0103710D01*
X0289213Y0103791D01*
X0289290Y0103870D01*
X0289370Y0103945D01*
X0289452Y0104018D01*
X0289537Y0104087D01*
X0289625Y0104154D01*
X0289714Y0104217D01*
X0289806Y0104277D01*
X0289900Y0104334D01*
X0289997Y0104387D01*
X0290094Y0104436D01*
X0290194Y0104483D01*
X0290295Y0104525D01*
X0290398Y0104564D01*
X0290502Y0104599D01*
X0290607Y0104630D01*
X0290714Y0104658D01*
X0290821Y0104681D01*
X0290929Y0104701D01*
X0291038Y0104717D01*
X0291147Y0104729D01*
X0291256Y0104737D01*
X0291366Y0104741D01*
X0291476Y0104741D01*
X0291586Y0104737D01*
X0291695Y0104729D01*
X0291804Y0104717D01*
X0291913Y0104701D01*
X0292021Y0104681D01*
X0292128Y0104658D01*
X0292235Y0104630D01*
X0292340Y0104599D01*
X0292444Y0104564D01*
X0292547Y0104525D01*
X0292648Y0104483D01*
X0292748Y0104436D01*
X0292845Y0104387D01*
X0292941Y0104334D01*
X0293036Y0104277D01*
X0293128Y0104217D01*
X0293217Y0104154D01*
X0293305Y0104087D01*
X0293390Y0104018D01*
X0293472Y0103945D01*
X0293552Y0103870D01*
X0293629Y0103791D01*
X0293703Y0103710D01*
X0293774Y0103627D01*
X0293842Y0103540D01*
X0293907Y0103452D01*
X0293968Y0103361D01*
X0294027Y0103268D01*
X0294082Y0103173D01*
X0294133Y0103076D01*
X0294181Y0102977D01*
X0294225Y0102876D01*
X0294266Y0102774D01*
X0294303Y0102671D01*
X0294336Y0102566D01*
X0294365Y0102461D01*
X0294391Y0102354D01*
X0294413Y0102246D01*
X0294430Y0102138D01*
X0294444Y0102029D01*
X0294454Y0101919D01*
X0294460Y0101810D01*
X0294462Y0101700D01*
X0294460Y0101590D01*
X0294454Y0101481D01*
X0294444Y0101371D01*
X0294430Y0101262D01*
X0294413Y0101154D01*
X0294391Y0101046D01*
X0294365Y0100939D01*
X0294336Y0100834D01*
X0294303Y0100729D01*
X0294266Y0100626D01*
X0294225Y0100524D01*
X0294181Y0100423D01*
X0294133Y0100324D01*
X0294082Y0100227D01*
X0294027Y0100132D01*
X0293968Y0100039D01*
X0293907Y0099948D01*
X0293842Y0099860D01*
X0293774Y0099773D01*
X0293703Y0099690D01*
X0293629Y0099609D01*
X0293552Y0099530D01*
X0293472Y0099455D01*
X0293390Y0099382D01*
X0293305Y0099313D01*
X0293217Y0099246D01*
X0293128Y0099183D01*
X0293036Y0099123D01*
X0292942Y0099066D01*
X0292845Y0099013D01*
X0292748Y0098964D01*
X0292648Y0098917D01*
X0292547Y0098875D01*
X0292444Y0098836D01*
X0292340Y0098801D01*
X0292235Y0098770D01*
X0292128Y0098742D01*
X0292021Y0098719D01*
X0291913Y0098699D01*
X0291804Y0098683D01*
X0291695Y0098671D01*
X0291586Y0098663D01*
X0291476Y0098659D01*
X0291366Y0098659D01*
X0291256Y0098663D01*
X0291147Y0098671D01*
X0291038Y0098683D01*
X0290929Y0098699D01*
X0290821Y0098719D01*
X0290714Y0098742D01*
X0290607Y0098770D01*
X0290502Y0098801D01*
X0290398Y0098836D01*
X0290295Y0098875D01*
X0290194Y0098917D01*
X0290094Y0098964D01*
X0289997Y0099013D01*
X0289900Y0099066D01*
X0289806Y0099123D01*
X0289714Y0099183D01*
X0289625Y0099246D01*
X0289537Y0099313D01*
X0289452Y0099382D01*
X0289370Y0099455D01*
X0289290Y0099530D01*
X0289213Y0099609D01*
X0289139Y0099690D01*
X0289068Y0099773D01*
X0289000Y0099860D01*
X0288935Y0099948D01*
X0288874Y0100039D01*
X0288815Y0100132D01*
X0288760Y0100227D01*
X0288709Y0100324D01*
X0288661Y0100423D01*
X0288617Y0100524D01*
X0288576Y0100626D01*
X0288539Y0100729D01*
X0288506Y0100834D01*
X0288477Y0100939D01*
X0288451Y0101046D01*
X0288429Y0101154D01*
X0288412Y0101262D01*
X0288398Y0101371D01*
X0288388Y0101481D01*
X0288382Y0101590D01*
X0288380Y0101700D01*
X0288380Y0116700D02*
X0288382Y0116810D01*
X0288388Y0116919D01*
X0288398Y0117029D01*
X0288412Y0117138D01*
X0288429Y0117246D01*
X0288451Y0117354D01*
X0288477Y0117461D01*
X0288506Y0117566D01*
X0288539Y0117671D01*
X0288576Y0117774D01*
X0288617Y0117876D01*
X0288661Y0117977D01*
X0288709Y0118076D01*
X0288760Y0118173D01*
X0288815Y0118268D01*
X0288874Y0118361D01*
X0288935Y0118452D01*
X0289000Y0118540D01*
X0289068Y0118627D01*
X0289139Y0118710D01*
X0289213Y0118791D01*
X0289290Y0118870D01*
X0289370Y0118945D01*
X0289452Y0119018D01*
X0289537Y0119087D01*
X0289625Y0119154D01*
X0289714Y0119217D01*
X0289806Y0119277D01*
X0289900Y0119334D01*
X0289997Y0119387D01*
X0290094Y0119436D01*
X0290194Y0119483D01*
X0290295Y0119525D01*
X0290398Y0119564D01*
X0290502Y0119599D01*
X0290607Y0119630D01*
X0290714Y0119658D01*
X0290821Y0119681D01*
X0290929Y0119701D01*
X0291038Y0119717D01*
X0291147Y0119729D01*
X0291256Y0119737D01*
X0291366Y0119741D01*
X0291476Y0119741D01*
X0291586Y0119737D01*
X0291695Y0119729D01*
X0291804Y0119717D01*
X0291913Y0119701D01*
X0292021Y0119681D01*
X0292128Y0119658D01*
X0292235Y0119630D01*
X0292340Y0119599D01*
X0292444Y0119564D01*
X0292547Y0119525D01*
X0292648Y0119483D01*
X0292748Y0119436D01*
X0292845Y0119387D01*
X0292941Y0119334D01*
X0293036Y0119277D01*
X0293128Y0119217D01*
X0293217Y0119154D01*
X0293305Y0119087D01*
X0293390Y0119018D01*
X0293472Y0118945D01*
X0293552Y0118870D01*
X0293629Y0118791D01*
X0293703Y0118710D01*
X0293774Y0118627D01*
X0293842Y0118540D01*
X0293907Y0118452D01*
X0293968Y0118361D01*
X0294027Y0118268D01*
X0294082Y0118173D01*
X0294133Y0118076D01*
X0294181Y0117977D01*
X0294225Y0117876D01*
X0294266Y0117774D01*
X0294303Y0117671D01*
X0294336Y0117566D01*
X0294365Y0117461D01*
X0294391Y0117354D01*
X0294413Y0117246D01*
X0294430Y0117138D01*
X0294444Y0117029D01*
X0294454Y0116919D01*
X0294460Y0116810D01*
X0294462Y0116700D01*
X0294460Y0116590D01*
X0294454Y0116481D01*
X0294444Y0116371D01*
X0294430Y0116262D01*
X0294413Y0116154D01*
X0294391Y0116046D01*
X0294365Y0115939D01*
X0294336Y0115834D01*
X0294303Y0115729D01*
X0294266Y0115626D01*
X0294225Y0115524D01*
X0294181Y0115423D01*
X0294133Y0115324D01*
X0294082Y0115227D01*
X0294027Y0115132D01*
X0293968Y0115039D01*
X0293907Y0114948D01*
X0293842Y0114860D01*
X0293774Y0114773D01*
X0293703Y0114690D01*
X0293629Y0114609D01*
X0293552Y0114530D01*
X0293472Y0114455D01*
X0293390Y0114382D01*
X0293305Y0114313D01*
X0293217Y0114246D01*
X0293128Y0114183D01*
X0293036Y0114123D01*
X0292942Y0114066D01*
X0292845Y0114013D01*
X0292748Y0113964D01*
X0292648Y0113917D01*
X0292547Y0113875D01*
X0292444Y0113836D01*
X0292340Y0113801D01*
X0292235Y0113770D01*
X0292128Y0113742D01*
X0292021Y0113719D01*
X0291913Y0113699D01*
X0291804Y0113683D01*
X0291695Y0113671D01*
X0291586Y0113663D01*
X0291476Y0113659D01*
X0291366Y0113659D01*
X0291256Y0113663D01*
X0291147Y0113671D01*
X0291038Y0113683D01*
X0290929Y0113699D01*
X0290821Y0113719D01*
X0290714Y0113742D01*
X0290607Y0113770D01*
X0290502Y0113801D01*
X0290398Y0113836D01*
X0290295Y0113875D01*
X0290194Y0113917D01*
X0290094Y0113964D01*
X0289997Y0114013D01*
X0289900Y0114066D01*
X0289806Y0114123D01*
X0289714Y0114183D01*
X0289625Y0114246D01*
X0289537Y0114313D01*
X0289452Y0114382D01*
X0289370Y0114455D01*
X0289290Y0114530D01*
X0289213Y0114609D01*
X0289139Y0114690D01*
X0289068Y0114773D01*
X0289000Y0114860D01*
X0288935Y0114948D01*
X0288874Y0115039D01*
X0288815Y0115132D01*
X0288760Y0115227D01*
X0288709Y0115324D01*
X0288661Y0115423D01*
X0288617Y0115524D01*
X0288576Y0115626D01*
X0288539Y0115729D01*
X0288506Y0115834D01*
X0288477Y0115939D01*
X0288451Y0116046D01*
X0288429Y0116154D01*
X0288412Y0116262D01*
X0288398Y0116371D01*
X0288388Y0116481D01*
X0288382Y0116590D01*
X0288380Y0116700D01*
D12*
X0054937Y0055641D02*
X0032496Y0055641D01*
X0054937Y0055641D02*
X0054937Y0056822D01*
X0062811Y0056822D01*
X0062811Y0055838D01*
X0054937Y0055641D02*
X0087614Y0055641D01*
X0087418Y0110759D02*
X0062811Y0110759D01*
X0062811Y0109578D01*
X0054937Y0109578D01*
X0054937Y0110759D01*
X0032103Y0110759D01*
X0054937Y0110759D02*
X0062811Y0110759D01*
X0284169Y0114055D02*
X0284586Y0113638D01*
X0286254Y0115306D01*
X0286671Y0114889D01*
X0286671Y0114055D01*
X0286254Y0113638D01*
X0284586Y0113638D01*
X0284169Y0114055D02*
X0284169Y0114889D01*
X0284586Y0115306D01*
X0286254Y0115306D01*
X0286254Y0116271D02*
X0286671Y0116271D01*
X0286671Y0116688D01*
X0286254Y0116688D01*
X0286254Y0116271D01*
X0286671Y0117782D02*
X0286671Y0119450D01*
X0286671Y0118616D02*
X0284169Y0118616D01*
X0285003Y0119450D01*
X0285003Y0104450D02*
X0284169Y0103616D01*
X0286671Y0103616D01*
X0286671Y0104450D02*
X0286671Y0102782D01*
X0286671Y0101688D02*
X0286671Y0101271D01*
X0286254Y0101271D01*
X0286254Y0101688D01*
X0286671Y0101688D01*
X0286671Y0100306D02*
X0286671Y0098638D01*
X0286671Y0099472D02*
X0284169Y0099472D01*
X0285003Y0100306D01*
X0285003Y0089450D02*
X0284169Y0088616D01*
X0286671Y0088616D01*
X0286671Y0089450D02*
X0286671Y0087782D01*
X0286671Y0086688D02*
X0286671Y0086271D01*
X0286254Y0086271D01*
X0286254Y0086688D01*
X0286671Y0086688D01*
X0286671Y0085306D02*
X0285003Y0083638D01*
X0284586Y0083638D01*
X0284169Y0084055D01*
X0284169Y0084889D01*
X0284586Y0085306D01*
X0286671Y0085306D02*
X0286671Y0083638D01*
X0286671Y0074450D02*
X0286671Y0072782D01*
X0286671Y0073616D02*
X0284169Y0073616D01*
X0285003Y0074450D01*
X0286254Y0071688D02*
X0286254Y0071271D01*
X0286671Y0071271D01*
X0286671Y0071688D01*
X0286254Y0071688D01*
X0286254Y0070306D02*
X0286671Y0069889D01*
X0286671Y0069055D01*
X0286254Y0068638D01*
X0285837Y0068638D01*
X0285420Y0069055D01*
X0285420Y0069472D01*
X0285420Y0069055D02*
X0285003Y0068638D01*
X0284586Y0068638D01*
X0284169Y0069055D01*
X0284169Y0069889D01*
X0284586Y0070306D01*
X0285003Y0059450D02*
X0284169Y0058616D01*
X0286671Y0058616D01*
X0286671Y0059450D02*
X0286671Y0057782D01*
X0286671Y0056688D02*
X0286671Y0056271D01*
X0286254Y0056271D01*
X0286254Y0056688D01*
X0286671Y0056688D01*
X0285420Y0055306D02*
X0285420Y0053638D01*
X0284169Y0054055D02*
X0285420Y0055306D01*
X0286671Y0054055D02*
X0284169Y0054055D01*
M02*
